<svg xmlns="http://www.w3.org/2000/svg" viewBox="0 0 654.45 183.61"><defs><style>.cls-1{fill:#33558b;}</style></defs><title>Asset 11</title><g id="Layer_2" data-name="Layer 2"><g id="OBJECTS"><path class="cls-1" d="M27,40.5a8.85,8.85,0,0,0-1.59,3.19,1.13,1.13,0,0,0,.6,1.06,9.5,9.5,0,0,1-1.2,1,5.31,5.31,0,0,1-2.39.53,4.55,4.55,0,0,1-1.92-.3.73.73,0,0,1-.4-1q.93-3,7-12t8.1-12.71q4.44-8,4.45-12.82A7.69,7.69,0,0,0,39,4.12q-1.32-2.73-6.3-2.73Q24.9,1.39,16.6,8.1A42.62,42.62,0,0,0,6.44,19.49q-3.53,6-3.52,10.72,0,6.76,6,6.91h.53q7.63,0,11.82-5.52a6.81,6.81,0,0,0,1.59-3.71c0-1-.22-1.66-.66-1.93-.05,0-.07-.13-.07-.26s.13-.2.4-.2c1.15,0,1.72.75,1.72,2.25a8.44,8.44,0,0,1-1.36,3.79,13.38,13.38,0,0,1-4.81,4.51,15,15,0,0,1-8,2.13,9.61,9.61,0,0,1-7.31-2.86A10.43,10.43,0,0,1,0,27.82Q0,17.33,13.68,6.37a28.49,28.49,0,0,1,9.26-4.58A37,37,0,0,1,33.93,0q5.24,0,7.14,1.83A6.45,6.45,0,0,1,43,6.71q0,4.64-3.79,12.55c-.79,1.63-2.59,4.62-5.37,9l5.11-6.51A147.91,147.91,0,0,1,51.79,7.9,19.8,19.8,0,0,1,56.2,4.68a9.23,9.23,0,0,1,4.15-1.29c1.6,0,2.39.84,2.39,2.52,0,1.46-.69,3.66-2.09,6.61s-2.8,5.73-4.21,8.36a57.81,57.81,0,0,0-2.59,5.18c-.31.82-.53,1.47-.67,2a4,4,0,0,1-.26.8q.19-.34,4.38-5.08A135.38,135.38,0,0,1,69.65,11.88L80.27,3.12a3.71,3.71,0,0,1,2.26-1.06c.66,0,1.21.55,1.63,1.66a8,8,0,0,1,.63,2.69q0,1-3.19,4.28A92.33,92.33,0,0,0,67.52,29.28q-5.77,10.09-5.77,14.41a2.3,2.3,0,0,0,.4,1.56,1.28,1.28,0,0,0,1.26.26A23.13,23.13,0,0,0,67,44.15a28.31,28.31,0,0,1,3.61-1.39c.23.09.34.2.34.33q0,1-3.49,2.79a13.16,13.16,0,0,1-5.24,1.79q-1.77,0-2.16-.6a7.13,7.13,0,0,1-1.2-4.18q0-5.7,6.11-16.4,3.91-6.7,12.09-18.06Q70.72,13.61,59.82,24.3T45.55,41q-1.72,3.12-4.19,3.12c-.75,0-1.12-.26-1.12-.79A11.48,11.48,0,0,1,41.6,41q1.35-2.13,6-10Q59,11.15,59,7.1C59,6.4,58.78,6,58.3,6c-.71,0-1.75.6-3.12,1.79A127.55,127.55,0,0,0,39.51,24,169.51,169.51,0,0,0,27,40.5Z"/><path class="cls-1" d="M76.75,44q-3.37,0-3.38-4.38,0-3.59,3.91-9.92t6.31-6.41a2.93,2.93,0,0,1,1.5.53c.55.35.82.71.82,1.06-.22.31-.48.66-.79,1l-1,1.23c-.35.44-.84,1.07-1.46,1.89l-1.79,2.36q-5,6.44-5,8.86c0,1.62.55,2.43,1.66,2.43a7.82,7.82,0,0,0,3.78-1.53,33.54,33.54,0,0,0,8.83-7.57c.8-1,1.34-1.53,1.63-1.53s.43.18.43.53-.51,1.07-1.52,2.13l-2.43,2.52q-.9.93-1.23,1.23l-1.22,1.13a16.13,16.13,0,0,1-1.37,1.16c-.31.22-.75.56-1.32,1a8.37,8.37,0,0,1-1.53,1l-1.53.7A8.53,8.53,0,0,1,76.75,44ZM90.66,16.76a1.83,1.83,0,0,1,.9,1.5,1.85,1.85,0,0,1-.83,1.49,2.94,2.94,0,0,1-1.83.63,2.68,2.68,0,0,1-1.82-.73A2.14,2.14,0,0,1,86.25,18q0-1.86,2.52-1.86A3.25,3.25,0,0,1,90.66,16.76Z"/><path class="cls-1" d="M100.06,22.24c1.19,0,1.79.47,1.79,1.4a1.78,1.78,0,0,1-.2.79q-6,8.31-7.17,12.55,15.47-15.46,18.79-15.47a3.38,3.38,0,0,1,.6-.06c1.24,0,1.86.55,1.86,1.66a1.74,1.74,0,0,1-.14.66,42.19,42.19,0,0,1-2.65,3.59A61.11,61.11,0,0,0,108,34a10.64,10.64,0,0,0-2,5.32c0,1.41.31,2.12.93,2.12q2.91,0,10.15-8a5.46,5.46,0,0,0,.47-.6c.66-.8,1.06-1.2,1.19-1.2s.2.23.2.67A3,3,0,0,1,118,34q-8.22,9.38-11.68,9.37-3.26,0-3.25-3.59a17.08,17.08,0,0,1,2.65-8.23L110,24.63a52,52,0,0,0-8,7.27q-3.53,4-6.41,7.67c-1.93,2.48-3,3.72-3.35,3.72a1.78,1.78,0,0,1-1.56-.83A3.55,3.55,0,0,1,90,40.4a9.18,9.18,0,0,1,.86-3.28q.87-2.07,2.2-5l-4,4.18c-1,1-1.58,1.46-1.82,1.46s-.37-.14-.37-.43a1.51,1.51,0,0,1,.53-1,52.81,52.81,0,0,0,4.25-4.71Q93.42,29.42,98.8,23A1.63,1.63,0,0,1,100.06,22.24Z"/><path class="cls-1" d="M138.3,23l.93-.2a1.75,1.75,0,0,1,1.36.54,1.5,1.5,0,0,1,.5.82,3.32,3.32,0,0,1-.07.67,24.21,24.21,0,0,1-1.92,3.35q-2.32,4.05-3.85,6.84A113.89,113.89,0,0,1,127,48.73q-6.11,8.1-11.61,8.11A4.36,4.36,0,0,1,112,55.21a5.65,5.65,0,0,1-1.49-3.62c.13-.53.33-.8.6-.8s.24.16.33.47a5,5,0,0,0,1.26,2.65,2.68,2.68,0,0,0,1.86.93q3.78,0,8.1-5A57.15,57.15,0,0,0,129,40.17l3.32-6.57-5,5c-3.19,3.06-5.37,4.58-6.54,4.58A5.5,5.5,0,0,1,117.45,42a4.19,4.19,0,0,1-1.79-3.52q0-4.84,6.81-11.55t12.38-6.71c1.5,0,2.48.49,2.92,1.46l.33.9C138.19,22.85,138.26,23,138.3,23ZM118.45,39.31c0,1.59.55,2.39,1.66,2.39q3.86,0,10.49-8.44l7-9.69a1.62,1.62,0,0,0-1.66-.93q-4.12,0-10.82,6.34T118.45,39.31Z"/><path class="cls-1" d="M162.87,23l.93-.2a1.76,1.76,0,0,1,1.36.54,1.5,1.5,0,0,1,.5.82,4.24,4.24,0,0,1-.07.67,25,25,0,0,1-1.93,3.35q-2.32,4.05-3.85,6.84a114.19,114.19,0,0,1-8.23,13.74q-6.11,8.1-11.62,8.11a4.35,4.35,0,0,1-3.35-1.63,5.71,5.71,0,0,1-1.5-3.62c.14-.53.34-.8.6-.8s.25.16.33.47a5,5,0,0,0,1.27,2.65,2.66,2.66,0,0,0,1.85.93q3.79,0,8.1-5a56,56,0,0,0,6.31-9.69l3.32-6.57-5,5c-3.18,3.06-5.36,4.58-6.54,4.58A5.47,5.47,0,0,1,142,42a4.16,4.16,0,0,1-1.79-3.52q0-4.84,6.8-11.55t12.39-6.71c1.5,0,2.47.49,2.92,1.46l.33.9C162.76,22.85,162.82,23,162.87,23ZM143,39.31c0,1.59.55,2.39,1.66,2.39q3.84,0,10.49-8.44l7-9.69a1.61,1.61,0,0,0-1.66-.93q-4.11,0-10.82,6.34T143,39.31Z"/><path class="cls-1" d="M183.85,43.62a8.5,8.5,0,0,1-1.43.07,3.56,3.56,0,0,1-2.19-.86,2.72,2.72,0,0,1-1.1-2.23,10.68,10.68,0,0,1,.5-3c.33-1.11.57-1.95.7-2.52Q172.7,44,168.38,44c-1.82,0-2.81-1.12-3-3.38V40.1q0-2.85,3.45-7.7a47.85,47.85,0,0,0-3.91,4,.9.9,0,0,1-.67.27c-.17,0-.26-.11-.26-.33a2.53,2.53,0,0,1,.59-1.13l9.17-10.76a4.81,4.81,0,0,1,3.52-2c1.19,0,1.79.4,1.79,1.2a1.19,1.19,0,0,1-.4.86A53.65,53.65,0,0,0,172,32.67q-4,5.7-4,8.43c0,.8.27,1.19.8,1.19q2.79,0,8.1-5.51,1.86-1.86,6.9-8.2t6.64-6.34c1.6,0,2.39.62,2.39,1.86,0,.44-.93,1.73-2.79,3.85q-3.78,4.59-5.77,7.47t-2,4.68q0,1.8,1,1.8a2.59,2.59,0,0,0,1.06-.27q4.59-2,11-9.3a1.11,1.11,0,0,1,.8-.46c.26,0,.39.14.39.43a1.51,1.51,0,0,1-.46,1,65.16,65.16,0,0,1-6.71,6.68C186.73,42.17,184.91,43.4,183.85,43.62Z"/><path class="cls-1" d="M204.63,41.3a7.09,7.09,0,0,1-2.12,5c-1.42,1.48-2.38,2.23-2.89,2.23s-.77,0-.77-.14a12.77,12.77,0,0,1,1.43-1.76A4.62,4.62,0,0,0,201.71,44a2.36,2.36,0,0,0-.9-1.79c-.6-.53-.89-.93-.89-1.2,0-1.33.64-2,1.92-2a3.1,3.1,0,0,1,1.89.66A2,2,0,0,1,204.63,41.3Z"/><path class="cls-1" d="M239.49,38a.65.65,0,0,1,.73.73c0,.62-.33.93-1,.93a31.59,31.59,0,0,0-9.49,1.59q-2.46.87-5.81,2.19a35.11,35.11,0,0,1-3.59,1.33c-.15,0-.34-.17-.56-.5a2.48,2.48,0,0,1-.34-1.39c0-.6.2-1,.6-1.1,1.2-.53,3.43-1.35,6.71-2.45Q235,24.1,243.4,9a53.91,53.91,0,0,1-9.29,4.39c-.67.26-1,0-1-.67a1,1,0,0,1,.6-.86q4.51-1.66,12.55-8l.4-.66q.66-1.26,2.79-1.26c1.41,0,2.12.33,2.12,1a1.17,1.17,0,0,1-.2.53L230,38.77A54.77,54.77,0,0,1,239.49,38Z"/><path class="cls-1" d="M286,2.59q6.24,0,6.24,5.58v.46q-.33,5.78-11.88,9.36,10,1.07,10,7a6.15,6.15,0,0,1-.27,1.86q-2,7.83-11.75,12.75a41.58,41.58,0,0,1-18.73,4.25A24,24,0,0,1,249,41.83q-4.15-2.05-4.15-5.91a10,10,0,0,1,1.46-4.71q1.45-2.66,6-4.59a20.4,20.4,0,0,1,7.6-1.92c.53,0,.8.18.8.53s-.31.66-.93.66c-1.46,0-3.36.72-5.68,2.16s-3.71,2.93-4.15,4.48a9.67,9.67,0,0,0-.33,2.26q0,5.77,7.9,7.17a21.61,21.61,0,0,0,4.18.4,28.09,28.09,0,0,0,11.82-2.79q9.3-4.32,12.55-12.41a5.93,5.93,0,0,0,.46-2.26,4,4,0,0,0-2.78-3.85,16.76,16.76,0,0,0-6.64-1.2,17.89,17.89,0,0,0-6.44,1,3,3,0,0,1-1.27.26c-.79,0-1.19-.37-1.19-1.12a2,2,0,0,1,.56-1.4,1.81,1.81,0,0,1,1.36-.6,29.45,29.45,0,0,0,10.69-1.92Q287.15,13.55,288,9A4,4,0,0,0,288,8.1q0-2.85-3.55-2.85a23.29,23.29,0,0,0-8.07,1.69,41.51,41.51,0,0,0-7.63,3.68,1.11,1.11,0,0,1-.47.2c-.31,0-.46-.28-.46-.86,0-1.33.42-2.08,1.26-2.26,1-.31,2.63-1.5,4.85-3.58.26-.27.5-.36.73-.27a.5.5,0,0,1,.33.5.82.82,0,0,1-.3.63,6.79,6.79,0,0,0-.63.66C278.81,3.61,282.78,2.59,286,2.59Z"/><path class="cls-1" d="M331.58,40.5a8.76,8.76,0,0,0-1.6,3.19,1.13,1.13,0,0,0,.6,1.06,9.5,9.5,0,0,1-1.2,1,5.28,5.28,0,0,1-2.39.53,4.55,4.55,0,0,1-1.92-.3.73.73,0,0,1-.4-1q.93-3,7-12t8.1-12.71q4.45-8,4.45-12.82a7.84,7.84,0,0,0-.66-3.38q-1.33-2.73-6.31-2.73-7.77,0-16.07,6.71A42.79,42.79,0,0,0,311,19.49q-3.51,6-3.52,10.72,0,6.76,6,6.91H314q7.63,0,11.82-5.52a6.81,6.81,0,0,0,1.59-3.71c0-1-.22-1.66-.66-1.93-.05,0-.07-.13-.07-.26s.14-.2.4-.2c1.15,0,1.73.75,1.73,2.25a8.57,8.57,0,0,1-1.36,3.79,13.5,13.5,0,0,1-4.82,4.51,15,15,0,0,1-8,2.13,9.57,9.57,0,0,1-7.3-2.86,10.39,10.39,0,0,1-2.73-7.5q0-10.49,13.68-21.45a28.59,28.59,0,0,1,9.26-4.58,37,37,0,0,1,11-1.79q5.25,0,7.14,1.83a6.45,6.45,0,0,1,1.89,4.88q0,4.64-3.78,12.55-1.2,2.44-5.38,9l5.11-6.51A147.91,147.91,0,0,1,356.34,7.9a19.63,19.63,0,0,1,4.42-3.22,9.19,9.19,0,0,1,4.15-1.29c1.59,0,2.39.84,2.39,2.52q0,2.19-2.09,6.61T361,20.88a57.81,57.81,0,0,0-2.59,5.18c-.31.82-.53,1.47-.66,2a4.36,4.36,0,0,1-.27.8q.19-.34,4.38-5.08A136.73,136.73,0,0,1,374.2,11.88l10.63-8.76a3.68,3.68,0,0,1,2.25-1.06c.67,0,1.21.55,1.63,1.66a8,8,0,0,1,.63,2.69q0,1-3.19,4.28a91.91,91.91,0,0,0-14.07,18.59q-5.77,10.09-5.78,14.41a2.3,2.3,0,0,0,.4,1.56,1.28,1.28,0,0,0,1.26.26,22.75,22.75,0,0,0,3.62-1.36,28.23,28.23,0,0,1,3.62-1.39q.33.14.33.33,0,1-3.49,2.79a13.16,13.16,0,0,1-5.24,1.79q-1.76,0-2.16-.6a7.12,7.12,0,0,1-1.19-4.18q0-5.7,6.1-16.4,3.93-6.7,12.09-18.06-6.37,5.18-17.26,15.87T350.1,41c-1.15,2.08-2.55,3.12-4.18,3.12-.76,0-1.13-.26-1.13-.79A11.48,11.48,0,0,1,346.15,41q1.37-2.13,6-10Q363.57,11.15,363.58,7.1c0-.7-.25-1.06-.73-1.06-.71,0-1.75.6-3.12,1.79A127.55,127.55,0,0,0,344.06,24,167.52,167.52,0,0,0,331.58,40.5Z"/><path class="cls-1" d="M401,23.37l.93-.2a2.06,2.06,0,0,1,1.39.6q.66.6.66.93a63.5,63.5,0,0,1-4.11,6.41q-4.12,6.07-4.12,8.46a1.12,1.12,0,0,0,.07.4c.22,1,.7,1.53,1.46,1.53q3.45,0,12.61-11.42a.59.59,0,0,1,.47-.27c.17,0,.26.17.26.5a2.44,2.44,0,0,1-.59,1.29Q401.55,43,397.11,43a3.24,3.24,0,0,1-1.13-.2,4.28,4.28,0,0,1-2.92-4.38,10.18,10.18,0,0,1,.26-2.26l-4.11,4q-3.93,3.46-5.68,3.46a5.72,5.72,0,0,1-3.35-1.13,4.17,4.17,0,0,1-1.8-3.52q0-4.84,6.78-11.59t12.41-6.74a2.9,2.9,0,0,1,2.92,1.53c.14.35.25.65.34.9S401,23.37,401,23.37ZM381.17,39.7c0,1.6.56,2.39,1.66,2.39q3.85,0,10.49-8.43l7-9.69a1.83,1.83,0,0,0-1.72-.93q-4,0-10.76,6.27T381.17,39.7Z"/><path class="cls-1" d="M419.81,43.56q-5,0-5-5.52a15.2,15.2,0,0,1,1.47-6.1,26.8,26.8,0,0,1,3.18-5.58,4.87,4.87,0,0,1-.86.07c-1.06,0-1.95-.76-2.66-2.26l-4.91,6.37q-4.12,5.12-4.78,5.11c-.22,0-.33-.08-.33-.26a3.55,3.55,0,0,1,1.13-1.93,62,62,0,0,0,8.16-11.35q1.53-5.77,3.85-5.78c1,0,1.53.45,1.53,1.33A6,6,0,0,1,419,21.05l-1.59,2.12c0,.93.68,1.4,2.06,1.4a5.29,5.29,0,0,0,2.65-.87l1.73-1.06a2,2,0,0,1,.66-.07,1.64,1.64,0,0,1,1.13.67,1.18,1.18,0,0,1,.4,1.19l-4.58,5.78q-4.26,5.45-4.25,8.6T420.08,42q3.06,0,7.5-3.25a31.67,31.67,0,0,0,4.85-4.32A14.43,14.43,0,0,1,434.69,32c.31,0,.46.17.46.5a1.88,1.88,0,0,1-.6,1.16l-2.12,2.39a39.77,39.77,0,0,1-4,3.59Q423.2,43.56,419.81,43.56Z"/><path class="cls-1" d="M435.82,44.09a4.27,4.27,0,0,1-1.33-.2q-4.25-1.2-4.25-4.78,0-4.65,5.84-10.76t10.49-6.11a3.69,3.69,0,0,1,2.49.83,2.59,2.59,0,0,1,1,2q0,3.72-5.61,7.1t-9.13,3.39a3.14,3.14,0,0,1-.92-.13,7.58,7.58,0,0,0-1,3.78c0,2.3,1.09,3.45,3.29,3.45s5-1.48,8.53-4.45a42.06,42.06,0,0,0,6.9-6.9c.4-.53.74-.8,1-.8s.43.13.43.4a2.18,2.18,0,0,1-.53,1.13,40.83,40.83,0,0,1-8.63,8.36Q439.34,44.09,435.82,44.09ZM448.36,25c0-.54-.56-.8-1.69-.8s-2.73.86-4.81,2.59A29.65,29.65,0,0,0,435.35,34a2.67,2.67,0,0,0,.86.14c1.69,0,3.93-.9,6.74-2.69s4.57-3.75,5.28-5.88A1.58,1.58,0,0,0,448.36,25Z"/><path class="cls-1" d="M466.82,21.84l9.56-.13c.13.09.2.16.2.2,0,.4-2.75.95-8.27,1.66s-8.48,1.13-8.92,1.26c-.85.76-2.39,3-4.65,6.74s-3.39,6.47-3.39,8.2,1.13,2.46,3.39,2.46a12.27,12.27,0,0,0,4.18-1,23.43,23.43,0,0,0,4-1.86,41.64,41.64,0,0,0,8-6.84q.93-.93,1.26-.93c.14,0,.2.14.2.4a3.82,3.82,0,0,1-1,1.6,29.85,29.85,0,0,1-7.77,6.83,18.91,18.91,0,0,1-9.89,3.19,5.85,5.85,0,0,1-3.36-.89c-.86-.6-1.29-1.81-1.29-3.62s.79-4.31,2.39-7.47,2.81-5.52,3.65-7.07a8,8,0,0,1-1.59.2c-1.29,0-1.93-.51-1.93-1.53q0-1.12,1.59-1.59a4.6,4.6,0,0,0,.6-.07h3.85q1.2-1.53,2.73-3.52c1.23-1.59,2.07-2.39,2.52-2.39a3.82,3.82,0,0,1,1.66.53q1,.54,1,1.26t-3.18,4.32C463.46,21.82,465,21.84,466.82,21.84Z"/><path class="cls-1" d="M517.42,44a12.22,12.22,0,0,0,4.84-1q2.93-1.2,2.92-3.52,0-2.65-4-4.12c-.35-.13-.53-.31-.53-.53,0-.57.38-.75,1.13-.53q5.5,1.59,5.51,5.31,0,3.12-3.38,5a14.36,14.36,0,0,1-7.14,1.9,29.87,29.87,0,0,1-9.33-1.93l-9.23-3.32a18.52,18.52,0,0,0-5-.93c-1.59.76-4.2,1.77-7.83,3.06a6,6,0,0,1-1.4.2q-1.59,0-1.59-1.2a3.64,3.64,0,0,1,1.73-2.79c1.68-1.1,4.13-1.66,7.37-1.66.75,0,1.5,0,2.25.07q15.54-9.36,20.19-13a44.36,44.36,0,0,0,6.9-6.45,16.22,16.22,0,0,0,3.79-8,9.37,9.37,0,0,0,.13-1.13q0-3.58-4.45-3.59T509.55,8.7a39.4,39.4,0,0,0-9.86,6,.83.83,0,0,1-.6.27c-.44,0-.66-.27-.66-.8a1,1,0,0,1,.4-.8A50.13,50.13,0,0,1,511,6.11q7.61-3.39,13.38-3.39t5.77,4.72q0,5.18-6.17,11.42A98,98,0,0,1,514.56,27a124.9,124.9,0,0,1-19.12,11.78,63.38,63.38,0,0,1,10.16,2.76A39.49,39.49,0,0,0,517.42,44Z"/><path class="cls-1" d="M567.08,2.39c-.09.62-.66.72-1.73.3a7.39,7.39,0,0,0-2.55-.63h-1.1a9.91,9.91,0,0,1,3.79,2.32,11.61,11.61,0,0,1,3.71,8.77,22.5,22.5,0,0,1-2.92,10.69,35.09,35.09,0,0,1-7.83,9.76Q547,43.82,535.61,43.82a15.72,15.72,0,0,1-2.53-.2q-5.51-.72-5.51-7.77t5.18-15.47a43,43,0,0,1,9-10.29,48.92,48.92,0,0,1,11.72-7.63.78.78,0,0,1-.27-.53c0-.54.73-.8,2.19-.8.44,0,1,0,1.6.07A15.8,15.8,0,0,1,562.1.53Q567.08.53,567.08,2.39ZM530.63,36.85c0,3.36,1.08,5.14,3.25,5.31a11.85,11.85,0,0,0,1.33.07q9,0,19.72-9.46t10.76-20.15q0-5.05-2.13-6.78a14.62,14.62,0,0,0-6.11-3q-6.16,1.92-13,8.43a59,59,0,0,0-8.37,10Q530.63,29.68,530.63,36.85Z"/><path class="cls-1" d="M598.68,44a12.27,12.27,0,0,0,4.85-1q2.93-1.2,2.92-3.52,0-2.65-4.05-4.12c-.35-.13-.53-.31-.53-.53,0-.57.38-.75,1.13-.53q5.5,1.59,5.51,5.31,0,3.12-3.39,5a14.29,14.29,0,0,1-7.13,1.9,29.81,29.81,0,0,1-9.33-1.93l-9.23-3.32a18.52,18.52,0,0,0-5-.93c-1.6.76-4.21,1.77-7.84,3.06a6,6,0,0,1-1.39.2q-1.59,0-1.59-1.2a3.65,3.65,0,0,1,1.72-2.79c1.68-1.1,4.14-1.66,7.37-1.66.76,0,1.51,0,2.26.07q15.54-9.36,20.18-13a44.5,44.5,0,0,0,6.91-6.45,16.11,16.11,0,0,0,3.78-8A8.08,8.08,0,0,0,606,9.43c0-2.39-1.49-3.59-4.45-3.59S595,6.8,590.82,8.7a39.4,39.4,0,0,0-9.86,6,.83.83,0,0,1-.6.27c-.45,0-.67-.27-.67-.8a1,1,0,0,1,.4-.8,50.4,50.4,0,0,1,12.19-7.3q7.59-3.39,13.38-3.39t5.77,4.72q0,5.18-6.17,11.42A99.33,99.33,0,0,1,595.83,27a125.4,125.4,0,0,1-19.12,11.78,63.07,63.07,0,0,1,10.15,2.76A39.49,39.49,0,0,0,598.68,44Z"/><path class="cls-1" d="M641.71,44a12.22,12.22,0,0,0,4.84-1q2.93-1.2,2.93-3.52c0-1.77-1.36-3.14-4.05-4.12-.36-.13-.54-.31-.54-.53,0-.57.38-.75,1.13-.53,3.68,1.06,5.51,2.83,5.51,5.31q0,3.12-3.38,5a14.36,14.36,0,0,1-7.14,1.9,29.87,29.87,0,0,1-9.33-1.93l-9.23-3.32a18.52,18.52,0,0,0-5-.93c-1.59.76-4.2,1.77-7.83,3.06a6,6,0,0,1-1.4.2q-1.59,0-1.59-1.2a3.67,3.67,0,0,1,1.73-2.79c1.68-1.1,4.13-1.66,7.37-1.66.75,0,1.5,0,2.25.07q15.54-9.36,20.19-13a43.9,43.9,0,0,0,6.9-6.45,16.13,16.13,0,0,0,3.79-8A7.65,7.65,0,0,0,649,9.43q0-3.58-4.45-3.59T633.84,8.7a39.58,39.58,0,0,0-9.86,6,.83.83,0,0,1-.6.27c-.44,0-.66-.27-.66-.8a1,1,0,0,1,.4-.8,50.13,50.13,0,0,1,12.18-7.3q7.61-3.39,13.38-3.39t5.77,4.72q0,5.18-6.17,11.42A98,98,0,0,1,638.85,27a124.9,124.9,0,0,1-19.12,11.78,63.38,63.38,0,0,1,10.16,2.76A39.49,39.49,0,0,0,641.71,44Z"/><path class="cls-1" d="M96,80h-.15c-.27.76-.57,1.61-.9,2.57s-.66,2-1,3-.69,2-1,3l-.44,2c-.12.39-.25.83-.39,1.31s-.28,1-.44,1.46-.3,1-.44,1.39-.25.83-.36,1.16c-.21.07-.43.12-.67.18a4.33,4.33,0,0,1-.86.07,2.83,2.83,0,0,1-1.59-.39,1.33,1.33,0,0,1-.58-1.17,2.68,2.68,0,0,1,.11-.72c.08-.25.16-.54.24-.85.21-.69.49-1.55.85-2.59s.74-2.15,1.16-3.37.85-2.43,1.3-3.66S91.7,81,92.1,79.89s.74-2,1-2.71a5,5,0,0,1,1.16-.41,7.07,7.07,0,0,1,1.6-.18,5.88,5.88,0,0,1,2,.31,1.63,1.63,0,0,1,1.11,1c.44,1.15.91,2.47,1.41,3.95s1,3,1.54,4.64,1,3.18,1.5,4.7.91,2.91,1.29,4.14a2.22,2.22,0,0,1-.87.56,3.28,3.28,0,0,1-1.27.22,2.26,2.26,0,0,1-1.48-.39,2.48,2.48,0,0,1-.71-1.21l-1.28-4.1-.41-2q-.51-1.59-1-3.15c-.32-1-.63-2-.92-2.9S96.22,80.68,96,80ZM90.75,91.29l1.47-3.11h7.84l.59,3.11Z"/><path class="cls-1" d="M111.34,89.66l-3.85-.19v-14c.16,0,.4-.1.72-.16a5.49,5.49,0,0,1,1-.09,2.61,2.61,0,0,1,1.6.39,1.69,1.69,0,0,1,.5,1.39Zm-3.85-2.17,3.85.19v8.09a4.28,4.28,0,0,1-.72.17,6.53,6.53,0,0,1-1,.08,2.66,2.66,0,0,1-1.59-.39,1.67,1.67,0,0,1-.51-1.4Zm5.61,2.1-2.7-1.78,7.12-7.09a3.2,3.2,0,0,1,1.85.55,1.6,1.6,0,0,1,.69,1.33,1.84,1.84,0,0,1-.46,1.2,13.64,13.64,0,0,1-1.36,1.31Zm-2.6-1.22,3-1.41,7.31,6.87a2.87,2.87,0,0,1-.63,1.63,1.91,1.91,0,0,1-1.47.59,2.52,2.52,0,0,1-1.32-.36,5.07,5.07,0,0,1-1.22-1.11Z"/><path class="cls-1" d="M129.49,96.3a8.65,8.65,0,0,1-4.92-1.21,4.51,4.51,0,0,1-.46-6.8A7.07,7.07,0,0,1,128,86.93l4.26-.44v-.56a2,2,0,0,0-.86-1.82,4.41,4.41,0,0,0-2.43-.57,9,9,0,0,0-2.38.32,11.83,11.83,0,0,0-2.07.75,2.5,2.5,0,0,1-.57-.69,1.74,1.74,0,0,1,1-2.57,7.88,7.88,0,0,1,2-.6,15.34,15.34,0,0,1,2.33-.18,8.22,8.22,0,0,1,4.89,1.3A4.69,4.69,0,0,1,136,86v7.21a1.82,1.82,0,0,1-.36,1.19,3.75,3.75,0,0,1-.92.78,8.54,8.54,0,0,1-2.23.83A12.81,12.81,0,0,1,129.49,96.3Zm0-2.94a7.21,7.21,0,0,0,1.69-.19,4,4,0,0,0,1.1-.41V89.19l-3.1.31a4,4,0,0,0-2,.55,1.51,1.51,0,0,0-.68,1.33,1.69,1.69,0,0,0,.72,1.44A3.76,3.76,0,0,0,129.49,93.36Z"/><path class="cls-1" d="M149.8,92.57V82.73h3.86V93a2,2,0,0,1-.3,1.14,3.06,3.06,0,0,1-1,.87,7.82,7.82,0,0,1-2.05.89,11.53,11.53,0,0,1-7.27-.44,6.06,6.06,0,0,1-2.84-2.57,8.71,8.71,0,0,1-1-4.4,8.85,8.85,0,0,1,1-4.49A6.25,6.25,0,0,1,143,81.4a8.59,8.59,0,0,1,3.82-.83,7.4,7.4,0,0,1,2.12.28,6.32,6.32,0,0,1,1.55.66V84.8a4.2,4.2,0,0,0-1.32-.82,4.78,4.78,0,0,0-1.88-.34,4.57,4.57,0,0,0-2.1.48,3.46,3.46,0,0,0-1.47,1.57,6.32,6.32,0,0,0-.53,2.81,4.84,4.84,0,0,0,1.13,3.57,4.11,4.11,0,0,0,3,1.13,4.51,4.51,0,0,0,2.44-.63Zm3.86-9.06-3.86,0V75.46c.15,0,.38-.1.71-.16a5.53,5.53,0,0,1,1-.09,2.7,2.7,0,0,1,1.63.39,1.69,1.69,0,0,1,.5,1.39Z"/><path class="cls-1" d="M180.55,90.25v5.08a3.12,3.12,0,0,1-1,.52,4.89,4.89,0,0,1-1.45.2,4.52,4.52,0,0,1-1.73-.31,2.68,2.68,0,0,1-1.31-1.38l-4.6-8.25c-.25-.5-.52-1-.8-1.56s-.55-1.08-.8-1.6l-.69-1.44-3.76.87V77.46a2,2,0,0,1,1-.65,4.5,4.5,0,0,1,1.45-.22,4.63,4.63,0,0,1,1.73.31,2.65,2.65,0,0,1,1.31,1.35l4.61,8.24c.27.5.55,1,.83,1.57s.54,1.07.79,1.6.45,1,.64,1.44ZM164.41,81l3.54-.1c.08.8.15,1.63.2,2.51s.09,1.75.1,2.6,0,1.68,0,2.48V95.8a6.35,6.35,0,0,1-.73.14,7.23,7.23,0,0,1-1,.08,2.62,2.62,0,0,1-1.62-.39,1.73,1.73,0,0,1-.48-1.4Zm16.14,10.5-3.57.09c-.17-1.61-.27-3.18-.29-4.72s0-3,0-4.46V76.81c.19,0,.45-.1.77-.16a5.67,5.67,0,0,1,1-.1,2.45,2.45,0,0,1,1.58.41,1.69,1.69,0,0,1,.49,1.38Z"/><path class="cls-1" d="M184.78,76.59a2.1,2.1,0,0,1,.64-1.54,2.22,2.22,0,0,1,1.62-.63,2.14,2.14,0,0,1,1.61.63,2.22,2.22,0,0,1,0,3.06,2.15,2.15,0,0,1-1.61.64,2.23,2.23,0,0,1-1.62-.64A2.12,2.12,0,0,1,184.78,76.59ZM189,89.53h-3.89v-8.4a4.35,4.35,0,0,1,.74-.17,7,7,0,0,1,1-.08,2.61,2.61,0,0,1,1.6.39,1.74,1.74,0,0,1,.5,1.43Zm-3.89-2H189v8.21a4.28,4.28,0,0,1-.72.17,6.53,6.53,0,0,1-1,.08,2.7,2.7,0,0,1-1.6-.39,1.62,1.62,0,0,1-.54-1.4Z"/><path class="cls-1" d="M197.07,89.66l-3.86-.19v-14l.72-.16a5.6,5.6,0,0,1,1-.09,2.63,2.63,0,0,1,1.6.39,1.69,1.69,0,0,1,.5,1.39Zm-3.86-2.17,3.86.19v8.09a4.28,4.28,0,0,1-.72.17,6.66,6.66,0,0,1-1,.08,2.61,2.61,0,0,1-1.58-.39,1.64,1.64,0,0,1-.52-1.4Zm5.61,2.1-2.69-1.78,7.11-7.09a3.17,3.17,0,0,1,1.85.55,1.6,1.6,0,0,1,.69,1.33,1.83,1.83,0,0,1-.45,1.2A14,14,0,0,1,204,85.11Zm-2.6-1.22,3-1.41,7.3,6.87a2.79,2.79,0,0,1-.62,1.63,1.91,1.91,0,0,1-1.48.59,2.46,2.46,0,0,1-1.31-.36,5.09,5.09,0,0,1-1.23-1.11Z"/><path class="cls-1" d="M215.22,96.3a8.71,8.71,0,0,1-4.93-1.21,4,4,0,0,1-1.78-3.58,4,4,0,0,1,1.33-3.22,7.06,7.06,0,0,1,3.87-1.36l4.26-.44v-.56a2,2,0,0,0-.86-1.82,4.37,4.37,0,0,0-2.43-.57,9,9,0,0,0-2.38.32,12.46,12.46,0,0,0-2.07.75,2.48,2.48,0,0,1-.56-.69,1.74,1.74,0,0,1,1-2.57,8.12,8.12,0,0,1,2.05-.6,15.57,15.57,0,0,1,2.34-.18,8.22,8.22,0,0,1,4.89,1.3A4.69,4.69,0,0,1,221.77,86v7.21a1.82,1.82,0,0,1-.36,1.19,3.63,3.63,0,0,1-.93.78,8.33,8.33,0,0,1-2.22.83A12.87,12.87,0,0,1,215.22,96.3Zm0-2.94a7.28,7.28,0,0,0,1.69-.19,4,4,0,0,0,1.1-.41V89.19l-3.11.31a4.08,4.08,0,0,0-2,.55,1.5,1.5,0,0,0-.67,1.33,1.69,1.69,0,0,0,.72,1.44A3.72,3.72,0,0,0,215.22,93.36Z"/><path class="cls-1" d="M229.64,89.53h-3.86V75.46l.72-.16a5.49,5.49,0,0,1,1-.09,2.59,2.59,0,0,1,1.6.39,1.66,1.66,0,0,1,.51,1.39Zm-3.86-2h3.86v8.21a4.2,4.2,0,0,1-.73.17,6.43,6.43,0,0,1-1,.08,2.61,2.61,0,0,1-1.58-.39,1.64,1.64,0,0,1-.52-1.4Zm13.7,1.94h-3.86V86.68a2.87,2.87,0,0,0-.86-2.32,3.27,3.27,0,0,0-2.18-.72,4.71,4.71,0,0,0-2,.41,7.1,7.1,0,0,0-1.55.94l-.22-3.14A11.23,11.23,0,0,1,230.7,81a7.24,7.24,0,0,1,2.54-.42A6.71,6.71,0,0,1,237.77,82a5.56,5.56,0,0,1,1.71,4.45Zm-3.86-1.91h3.86v8.18a4.35,4.35,0,0,1-.74.17,6.59,6.59,0,0,1-1,.08,2.63,2.63,0,0,1-1.6-.39,1.7,1.7,0,0,1-.5-1.4Z"/><path class="cls-1" d="M115.17,133.85a6.65,6.65,0,0,1-6.49-4.37,14.21,14.21,0,0,1-.94-5.56,13.15,13.15,0,0,1,1.06-5.77,7.18,7.18,0,0,1,2.76-3.15,7,7,0,0,1,3.61-1,6.88,6.88,0,0,1,6.41,4.19,13.22,13.22,0,0,1,1,5.72,14.3,14.3,0,0,1-.94,5.53,7.24,7.24,0,0,1-2.62,3.31A7,7,0,0,1,115.17,133.85Zm0-2.13a4,4,0,0,0,3.6-2,10.79,10.79,0,0,0,1.29-5.78,12.46,12.46,0,0,0-.68-4.5,5.37,5.37,0,0,0-1.77-2.49,4.13,4.13,0,0,0-4.87,0,5.23,5.23,0,0,0-1.77,2.53,12.58,12.58,0,0,0-.66,4.45,10.89,10.89,0,0,0,1.28,5.78A4,4,0,0,0,115.17,131.72Z"/><path class="cls-1" d="M133.25,133.85a10,10,0,0,1-3.73-.64,5.57,5.57,0,0,1-2.48-1.86,5,5,0,0,1-.87-2.95,4.68,4.68,0,0,1,.7-2.62,5.54,5.54,0,0,1,1.8-1.74,7,7,0,0,1,2.29-.88l1.88-.31a8.21,8.21,0,0,0,3.39-1.3,2.94,2.94,0,0,0,0-4.61,4.89,4.89,0,0,0-3-.83,4.83,4.83,0,0,0-3,.85,2.66,2.66,0,0,0-1.12,2.25,2.77,2.77,0,0,0,.64,1.92,3.91,3.91,0,0,0,1.72,1.08,10.58,10.58,0,0,0,2.37.48l1.38.47a8.35,8.35,0,0,1,2.44.9,5.25,5.25,0,0,1,1.88,1.71,4.63,4.63,0,0,1,.72,2.66,4.8,4.8,0,0,1-.89,2.92,5.63,5.63,0,0,1-2.48,1.86A9.68,9.68,0,0,1,133.25,133.85Zm0-2.1a5.57,5.57,0,0,0,3.29-.88,2.89,2.89,0,0,0,1.26-2.53,3.35,3.35,0,0,0-1.52-2.89,7.9,7.9,0,0,0-4.06-1.22l-1.6-.47a6.27,6.27,0,0,1-2.9-1.63,4.09,4.09,0,0,1-1.08-2.95,4.6,4.6,0,0,1,.83-2.76,5.26,5.26,0,0,1,2.32-1.78,8.79,8.79,0,0,1,3.46-.63,7.62,7.62,0,0,1,4.84,1.4,4.63,4.63,0,0,1,1.78,3.84,3.85,3.85,0,0,1-1.34,3.1,6.81,6.81,0,0,1-3.24,1.47l-2.13.44a6.48,6.48,0,0,0-3.25,1.36,3.47,3.47,0,0,0-1.24,2.75,2.91,2.91,0,0,0,1.23,2.49A5.53,5.53,0,0,0,133.25,131.75Z"/><path class="cls-1" d="M143,132.13a1.84,1.84,0,0,1,.45-1.26,1.64,1.64,0,0,1,1.27-.5,1.62,1.62,0,0,1,1.26.5,1.87,1.87,0,0,1,.43,1.26,1.78,1.78,0,0,1-.43,1.22,1.62,1.62,0,0,1-1.26.5,1.64,1.64,0,0,1-1.27-.5A1.75,1.75,0,0,1,143,132.13Z"/><path class="cls-1" d="M155.63,133.85a7,7,0,0,1-3.87-1.08,7.08,7.08,0,0,1-2.62-3.29,14.4,14.4,0,0,1-.94-5.56,13.14,13.14,0,0,1,1.07-5.77A7.18,7.18,0,0,1,152,115a7,7,0,0,1,3.6-1A6.88,6.88,0,0,1,162,118.2a13.22,13.22,0,0,1,1.05,5.72,14.12,14.12,0,0,1-.94,5.53,7.24,7.24,0,0,1-2.62,3.31A7,7,0,0,1,155.63,133.85Zm0-2.13a4,4,0,0,0,3.61-2,10.89,10.89,0,0,0,1.28-5.78,12.48,12.48,0,0,0-.67-4.5,5.37,5.37,0,0,0-1.77-2.49,4.14,4.14,0,0,0-4.88,0,5.36,5.36,0,0,0-1.77,2.53,12.58,12.58,0,0,0-.66,4.45,10.79,10.79,0,0,0,1.29,5.78A4,4,0,0,0,155.63,131.72Z"/><path class="cls-1" d="M173.9,133.85a6.65,6.65,0,0,1-6.48-4.37,14.21,14.21,0,0,1-.94-5.56,13.15,13.15,0,0,1,1.06-5.77A7.18,7.18,0,0,1,170.3,115a7,7,0,0,1,3.6-1,6.86,6.86,0,0,1,6.41,4.19,13.22,13.22,0,0,1,1.05,5.72,14.12,14.12,0,0,1-.94,5.53,7.22,7.22,0,0,1-2.61,3.31A7,7,0,0,1,173.9,133.85Zm0-2.13a4,4,0,0,0,3.61-2,10.79,10.79,0,0,0,1.28-5.78,12.48,12.48,0,0,0-.67-4.5,5.37,5.37,0,0,0-1.77-2.49,4.13,4.13,0,0,0-4.87,0,5.31,5.31,0,0,0-1.78,2.53,12.84,12.84,0,0,0-.65,4.45,10.79,10.79,0,0,0,1.28,5.78A4,4,0,0,0,173.9,131.72Z"/><path class="cls-1" d="M200.58,119.12a3,3,0,0,1,.63-.22,3.33,3.33,0,0,1,.78-.09,2.34,2.34,0,0,1,1,.2,1,1,0,0,1,.55.61c.52,1.51,1,2.9,1.42,4.19s.84,2.53,1.23,3.73l1.17,3.71h.13q.59-2.82,1.16-5.5c.37-1.79.74-3.6,1.09-5.44s.68-3.8,1-5.89a2.28,2.28,0,0,1,1.06-.22,1.48,1.48,0,0,1,.94.27.93.93,0,0,1,.35.79,13.59,13.59,0,0,1-.18,1.81c-.11.8-.27,1.74-.47,2.82s-.42,2.21-.69,3.41-.53,2.41-.83,3.61-.58,2.33-.87,3.4-.58,2-.85,2.79a5.24,5.24,0,0,1-.72.3,3.4,3.4,0,0,1-1,.14,2.67,2.67,0,0,1-1.16-.22,1.13,1.13,0,0,1-.63-.6c-.29-.73-.65-1.69-1.07-2.9s-.85-2.51-1.3-3.94-.88-2.85-1.3-4.25c-.4,1.38-.82,2.81-1.28,4.29s-.91,2.86-1.34,4.14-.81,2.3-1.14,3.07a3.56,3.56,0,0,1-1.69.41,2.48,2.48,0,0,1-1.15-.24,1.28,1.28,0,0,1-.61-.58c-.21-.52-.46-1.3-.77-2.35s-.62-2.24-.95-3.59-.67-2.74-1-4.2-.63-2.85-.91-4.2-.51-2.54-.67-3.59a2.16,2.16,0,0,1,.59-.4,1.77,1.77,0,0,1,.82-.19,1.32,1.32,0,0,1,.88.27,1.52,1.52,0,0,1,.43.89c.28,1.32.54,2.59.79,3.82s.51,2.48.77,3.73.53,2.57.83,3.94.61,2.83,1,4.4h.12c.3-.94.58-1.84.85-2.7s.55-1.73.85-2.64.61-1.91,1-3S200.14,120.56,200.58,119.12Z"/><path class="cls-1" d="M219.86,124.17h-2.54v-9.72a3.37,3.37,0,0,1,.48-.14,3.22,3.22,0,0,1,.71-.08,1.59,1.59,0,0,1,1,.27,1.07,1.07,0,0,1,.33.89Zm-2.54-2.1h2.54v11.31l-.47.14a2.51,2.51,0,0,1-.69.08,1.61,1.61,0,0,1-1-.28,1.07,1.07,0,0,1-.34-.88Z"/><path class="cls-1" d="M232.27,124.58l1-1.57a7.89,7.89,0,0,1,3.54.7,5,5,0,0,1,2.12,1.87,4.9,4.9,0,0,1,.7,2.6,4.74,4.74,0,0,1-2,4.23,10.45,10.45,0,0,1-5.85,1.38c-.56,0-1.12,0-1.69,0s-1.12-.09-1.66-.17-1.06-.19-1.57-.31c-.87-.25-1.31-.73-1.31-1.45v-16a1.14,1.14,0,0,1,.26-.79,1.53,1.53,0,0,1,.77-.4,12.34,12.34,0,0,1,2.27-.43c.81-.07,1.67-.11,2.59-.11a10.25,10.25,0,0,1,5.52,1.27,4.3,4.3,0,0,1,2,3.87,4.75,4.75,0,0,1-.64,2.43,4.55,4.55,0,0,1-2.07,1.79,9,9,0,0,1-3.81.67l-.28-1.56a4.85,4.85,0,0,0,3.13-.87,2.9,2.9,0,0,0,1.07-2.39,2.55,2.55,0,0,0-1.24-2.34,7,7,0,0,0-3.65-.77c-.71,0-1.34,0-1.88.08s-1,.12-1.5.2v14.93c.5.1,1.08.18,1.73.25s1.33.09,2,.09a7.2,7.2,0,0,0,4-.88,3,3,0,0,0,1.35-2.69,3.14,3.14,0,0,0-1.2-2.59A5.64,5.64,0,0,0,232.27,124.58Zm3.6-2.07v2.07h-8.62v-2.07Z"/><path class="cls-1" d="M306,89.12H299.2V78.37a1.17,1.17,0,0,1,.33-.88,2.64,2.64,0,0,1,.86-.5,14.38,14.38,0,0,1,2.37-.47,25.3,25.3,0,0,1,2.77-.15c2.76,0,4.83.57,6.19,1.71a5.75,5.75,0,0,1,2.06,4.68,5.85,5.85,0,0,1-1,3.32,6.24,6.24,0,0,1-2.68,2.24A9.58,9.58,0,0,1,306,89.12Zm-6.84-1.38h4v8a4,4,0,0,1-.76.17,7.66,7.66,0,0,1-1.09.08,2.55,2.55,0,0,1-1.63-.42,1.81,1.81,0,0,1-.5-1.43ZM303.15,86h2.6a4.85,4.85,0,0,0,2.95-.81,2.84,2.84,0,0,0,1.1-2.42,2.79,2.79,0,0,0-1.1-2.38,5.4,5.4,0,0,0-3.23-.81c-.42,0-.82,0-1.22,0a11,11,0,0,0-1.1.14Zm2.35,2.1,3.39-1c.52.69,1.06,1.38,1.61,2.08s1.09,1.38,1.6,2l1.38,1.8q.61.83,1,1.35a2.38,2.38,0,0,1-3.62,1.24,4.6,4.6,0,0,1-1-1.15Z"/><path class="cls-1" d="M318.89,90.38l-.16-2.7,8.4-1.25a3.27,3.27,0,0,0-.91-2.07,3.11,3.11,0,0,0-2.38-.88,3.52,3.52,0,0,0-2.66,1.11,4.56,4.56,0,0,0-1.1,3.19l.09,1.63a4.21,4.21,0,0,0,1.55,2.94,5.25,5.25,0,0,0,3.22.94,7.43,7.43,0,0,0,2.44-.39,7.3,7.3,0,0,0,1.79-.86,2.23,2.23,0,0,1,.7.7,1.71,1.71,0,0,1-.45,2.32,5.07,5.07,0,0,1-1.94.9,11.29,11.29,0,0,1-2.79.31,9.86,9.86,0,0,1-4.28-.89,6.64,6.64,0,0,1-2.92-2.68,9.85,9.85,0,0,1-.45-7.81,6.72,6.72,0,0,1,1.61-2.4A7,7,0,0,1,321,81.05a8.35,8.35,0,0,1,2.82-.48,7.47,7.47,0,0,1,3.62.83,6.31,6.31,0,0,1,2.45,2.3,6.45,6.45,0,0,1,.89,3.39,1.68,1.68,0,0,1-.46,1.3,2.14,2.14,0,0,1-1.27.51Z"/><path class="cls-1" d="M345.47,91.63a4.07,4.07,0,0,1-1.63,3.43,7.72,7.72,0,0,1-4.74,1.24,9.66,9.66,0,0,1-4.1-.75c-1.07-.5-1.6-1.17-1.6-2a2,2,0,0,1,.25-1,1.89,1.89,0,0,1,.66-.71,10.2,10.2,0,0,0,2,1,7.22,7.22,0,0,0,2.63.44c1.77,0,2.66-.54,2.66-1.63a1.4,1.4,0,0,0-.47-1.11,2.92,2.92,0,0,0-1.44-.61l-1.79-.47a7.09,7.09,0,0,1-3.4-1.57,3.77,3.77,0,0,1-1.11-2.85,3.94,3.94,0,0,1,1.63-3.25,7.22,7.22,0,0,1,4.51-1.26,11.06,11.06,0,0,1,2.7.29,4.54,4.54,0,0,1,1.86.87,1.69,1.69,0,0,1,.68,1.34,1.9,1.9,0,0,1-.24,1,1.57,1.57,0,0,1-.61.64,8.45,8.45,0,0,0-1-.48,7.74,7.74,0,0,0-1.45-.44,7.61,7.61,0,0,0-1.63-.18,4,4,0,0,0-1.93.4,1.22,1.22,0,0,0-.71,1.11,1.19,1.19,0,0,0,.41.91,3,3,0,0,0,1.38.59l1.6.38a7.83,7.83,0,0,1,3.7,1.74A4,4,0,0,1,345.47,91.63Z"/><path class="cls-1" d="M350.54,90.38l-.15-2.7,8.4-1.25a3.33,3.33,0,0,0-.91-2.07,3.11,3.11,0,0,0-2.38-.88,3.55,3.55,0,0,0-2.67,1.11,4.55,4.55,0,0,0-1.09,3.19l.09,1.63a4.18,4.18,0,0,0,1.55,2.94,5.24,5.24,0,0,0,3.21.94A7.45,7.45,0,0,0,359,92.9a7.3,7.3,0,0,0,1.79-.86,2.34,2.34,0,0,1,.7.7,1.71,1.71,0,0,1-.45,2.32,5.05,5.05,0,0,1-1.95.9,11.17,11.17,0,0,1-2.79.31,9.82,9.82,0,0,1-4.27-.89,6.64,6.64,0,0,1-2.92-2.68,9.85,9.85,0,0,1-.45-7.81,6.72,6.72,0,0,1,1.61-2.4,7,7,0,0,1,2.37-1.44,8.27,8.27,0,0,1,2.82-.48,7.5,7.5,0,0,1,3.62.83,6.21,6.21,0,0,1,2.44,2.3,6.36,6.36,0,0,1,.9,3.39,1.71,1.71,0,0,1-.46,1.3,2.17,2.17,0,0,1-1.27.51Z"/><path class="cls-1" d="M372.55,96.27a7.27,7.27,0,0,1-2.27-.33,7.88,7.88,0,0,1-1.68-.73V91.88a6.77,6.77,0,0,0,1.42.9,4.6,4.6,0,0,0,2,.39A3.85,3.85,0,0,0,375,92a5.21,5.21,0,0,0,1.1-3.65,6,6,0,0,0-.52-2.74,3.23,3.23,0,0,0-1.43-1.49,4.37,4.37,0,0,0-2-.47,5,5,0,0,0-2.67.69v9.9h-3.85V84a2.26,2.26,0,0,1,.28-1.19,2.88,2.88,0,0,1,.94-.88A10.28,10.28,0,0,1,369,81a10.93,10.93,0,0,1,3-.39,9.76,9.76,0,0,1,4.07.8A6.07,6.07,0,0,1,379,83.89a8.65,8.65,0,0,1,1,4.45,9.05,9.05,0,0,1-1,4.39,6.4,6.4,0,0,1-2.63,2.65A8.12,8.12,0,0,1,372.55,96.27Zm-4.89,5.42a2.53,2.53,0,0,1-1.58-.4,1.7,1.7,0,0,1-.52-1.41V93.14l3.85,0v8.27a3.18,3.18,0,0,1-.72.17A5.52,5.52,0,0,1,367.66,101.69Z"/><path class="cls-1" d="M394.74,91.63a4,4,0,0,1-1.63,3.43,7.69,7.69,0,0,1-4.73,1.24,9.71,9.71,0,0,1-4.11-.75c-1.07-.5-1.6-1.17-1.6-2a2.07,2.07,0,0,1,.25-1,1.89,1.89,0,0,1,.66-.71,10.47,10.47,0,0,0,2,1,7.22,7.22,0,0,0,2.63.44c1.78,0,2.67-.54,2.67-1.63a1.43,1.43,0,0,0-.47-1.11,3,3,0,0,0-1.45-.61l-1.78-.47a7,7,0,0,1-3.4-1.57,3.74,3.74,0,0,1-1.12-2.85,4,4,0,0,1,1.63-3.25,7.23,7.23,0,0,1,4.52-1.26,11,11,0,0,1,2.69.29,4.59,4.59,0,0,1,1.87.87,1.68,1.68,0,0,1,.67,1.34,2,2,0,0,1-.23,1,1.59,1.59,0,0,1-.62.64,9,9,0,0,0-1-.48,7.85,7.85,0,0,0-1.46-.44,7.54,7.54,0,0,0-1.63-.18,4,4,0,0,0-1.93.4,1.21,1.21,0,0,0-.7,1.11,1.18,1.18,0,0,0,.4.91,3,3,0,0,0,1.38.59l1.6.38a7.79,7.79,0,0,1,3.7,1.74A4,4,0,0,1,394.74,91.63Z"/><path class="cls-1" d="M397.78,76.59a2.06,2.06,0,0,1,.64-1.54,2.22,2.22,0,0,1,1.62-.63,2.14,2.14,0,0,1,1.61.63,2.22,2.22,0,0,1,0,3.06,2.15,2.15,0,0,1-1.61.64,2.23,2.23,0,0,1-1.62-.64A2.08,2.08,0,0,1,397.78,76.59ZM402,89.53h-3.89v-8.4a4.35,4.35,0,0,1,.74-.17,6.79,6.79,0,0,1,1.05-.08,2.63,2.63,0,0,1,1.6.39,1.74,1.74,0,0,1,.5,1.43Zm-3.89-2H402v8.21a4.28,4.28,0,0,1-.72.17,6.53,6.53,0,0,1-1,.08,2.67,2.67,0,0,1-1.6-.39,1.62,1.62,0,0,1-.54-1.4Z"/><path class="cls-1" d="M412.82,89.47V78.37a1.17,1.17,0,0,1,.33-.88A2.59,2.59,0,0,1,414,77a14.1,14.1,0,0,1,2.38-.47,23.78,23.78,0,0,1,2.57-.15q4.14,0,6.19,1.75a5.94,5.94,0,0,1,2,4.77,6.5,6.5,0,0,1-.91,3.48,5.93,5.93,0,0,1-2.66,2.28,10.14,10.14,0,0,1-4.33.82ZM415,96a2.51,2.51,0,0,1-1.63-.42,1.78,1.78,0,0,1-.51-1.43V87.68h4v8.09a4.37,4.37,0,0,1-.77.17A7.62,7.62,0,0,1,415,96Zm1.81-9.72h2.32a4.71,4.71,0,0,0,3-.86,3,3,0,0,0,1.1-2.52,3,3,0,0,0-1.05-2.51,4.81,4.81,0,0,0-3-.81c-.46,0-.89,0-1.29,0a11,11,0,0,0-1.1.14Z"/><path class="cls-1" d="M431.54,90.38l-.16-2.7,8.4-1.25a3.27,3.27,0,0,0-.91-2.07,3.09,3.09,0,0,0-2.38-.88,3.52,3.52,0,0,0-2.66,1.11,4.56,4.56,0,0,0-1.1,3.19l.09,1.63a4.21,4.21,0,0,0,1.55,2.94,5.25,5.25,0,0,0,3.22.94A7.39,7.39,0,0,0,440,92.9a7.12,7.12,0,0,0,1.79-.86,2.23,2.23,0,0,1,.7.7,1.71,1.71,0,0,1-.45,2.32,5.07,5.07,0,0,1-1.94.9,11.29,11.29,0,0,1-2.79.31,9.86,9.86,0,0,1-4.28-.89,6.64,6.64,0,0,1-2.92-2.68,9.85,9.85,0,0,1-.45-7.81,6.85,6.85,0,0,1,1.61-2.4,7,7,0,0,1,2.37-1.44,8.35,8.35,0,0,1,2.82-.48,7.47,7.47,0,0,1,3.62.83,6.24,6.24,0,0,1,2.45,2.3,6.45,6.45,0,0,1,.89,3.39,1.68,1.68,0,0,1-.46,1.3,2.14,2.14,0,0,1-1.26.51Z"/><path class="cls-1" d="M450.41,84.55v4.29h-3.86V84.23a2.31,2.31,0,0,1,.38-1.33,4.15,4.15,0,0,1,1.06-1,9.3,9.3,0,0,1,2.39-.94,12.25,12.25,0,0,1,3.1-.37c2,0,2.95.6,2.95,1.81a2.48,2.48,0,0,1-.13.8,3,3,0,0,1-.31.65c-.21,0-.47-.08-.79-.11s-.65,0-1,0a9,9,0,0,0-2.12.24A5.94,5.94,0,0,0,450.41,84.55Zm-3.86,3,3.86.18v8a4.28,4.28,0,0,1-.72.17,6.66,6.66,0,0,1-1,.08,2.61,2.61,0,0,1-1.58-.39,1.64,1.64,0,0,1-.52-1.4Z"/><path class="cls-1" d="M472.44,86.15v3h-3.85V86.3a2.44,2.44,0,0,0-.79-2,3.19,3.19,0,0,0-2.1-.64,6.26,6.26,0,0,0-1.74.23,8.19,8.19,0,0,0-1.36.55v4.77h-3.85v-5a2.26,2.26,0,0,1,.31-1.24A3.11,3.11,0,0,1,460,82,8.61,8.61,0,0,1,462.43,81a12.11,12.11,0,0,1,3.3-.42A7.74,7.74,0,0,1,470.67,82,5,5,0,0,1,472.44,86.15Zm-13.69,1.5h3.85v8.12a4.28,4.28,0,0,1-.72.17,6.53,6.53,0,0,1-1,.08,2.64,2.64,0,0,1-1.59-.39,1.67,1.67,0,0,1-.51-1.4Zm9.84,0h3.85v8.12a3.22,3.22,0,0,1-.7.17,6.8,6.8,0,0,1-1,.08,2.72,2.72,0,0,1-1.62-.39,1.67,1.67,0,0,1-.51-1.4Z"/><path class="cls-1" d="M476.3,76.59a2.06,2.06,0,0,1,.64-1.54,2.22,2.22,0,0,1,1.62-.63,2.15,2.15,0,0,1,1.61.63,2.22,2.22,0,0,1,0,3.06,2.16,2.16,0,0,1-1.61.64,2.23,2.23,0,0,1-1.62-.64A2.08,2.08,0,0,1,476.3,76.59Zm4.2,12.94h-3.89v-8.4a4.35,4.35,0,0,1,.74-.17,6.79,6.79,0,0,1,1-.08,2.63,2.63,0,0,1,1.6.39,1.74,1.74,0,0,1,.5,1.43Zm-3.89-2h3.89v8.21a4.28,4.28,0,0,1-.72.17,6.66,6.66,0,0,1-1,.08,2.66,2.66,0,0,1-1.59-.39,1.62,1.62,0,0,1-.54-1.4Z"/><path class="cls-1" d="M488.58,89.66l-3.85-.19v-14l.72-.16a5.49,5.49,0,0,1,1-.09,2.61,2.61,0,0,1,1.6.39,1.66,1.66,0,0,1,.5,1.39Zm-3.85-2.17,3.85.19v8.09a3.84,3.84,0,0,1-.72.17,6.53,6.53,0,0,1-1,.08,2.61,2.61,0,0,1-1.58-.39,1.64,1.64,0,0,1-.52-1.4Zm5.61,2.1-2.7-1.78,7.12-7.09a3.2,3.2,0,0,1,1.85.55,1.6,1.6,0,0,1,.69,1.33,1.79,1.79,0,0,1-.46,1.2,12.61,12.61,0,0,1-1.36,1.31Zm-2.6-1.22,3-1.41L498,93.83a2.73,2.73,0,0,1-.63,1.63,1.88,1.88,0,0,1-1.47.59,2.52,2.52,0,0,1-1.32-.36,5.07,5.07,0,0,1-1.22-1.11Z"/><path class="cls-1" d="M506.73,96.3a8.65,8.65,0,0,1-4.92-1.21A4,4,0,0,1,500,91.51a4,4,0,0,1,1.33-3.22,7,7,0,0,1,3.87-1.36l4.26-.44v-.56a2,2,0,0,0-.86-1.82,4.39,4.39,0,0,0-2.43-.57,9,9,0,0,0-2.38.32,12.14,12.14,0,0,0-2.07.75,2.32,2.32,0,0,1-.56-.69,1.72,1.72,0,0,1,1-2.57,8,8,0,0,1,2.05-.6,15.37,15.37,0,0,1,2.34-.18,8.26,8.26,0,0,1,4.89,1.3A4.69,4.69,0,0,1,513.28,86v7.21a1.82,1.82,0,0,1-.36,1.19,3.75,3.75,0,0,1-.92.78,8.54,8.54,0,0,1-2.23.83A12.81,12.81,0,0,1,506.73,96.3Zm0-2.94a7.3,7.3,0,0,0,1.7-.19,3.9,3.9,0,0,0,1.09-.41V89.19l-3.1.31a4,4,0,0,0-2,.55,1.5,1.5,0,0,0-.67,1.33,1.69,1.69,0,0,0,.72,1.44A3.7,3.7,0,0,0,506.73,93.36Z"/><path class="cls-1" d="M521.15,89.53H517.3V75.46c.16,0,.4-.1.72-.16a5.49,5.49,0,0,1,1-.09,2.61,2.61,0,0,1,1.6.39,1.69,1.69,0,0,1,.5,1.39Zm-3.85-2h3.85v8.21a4.28,4.28,0,0,1-.72.17,6.53,6.53,0,0,1-1,.08,2.66,2.66,0,0,1-1.59-.39,1.67,1.67,0,0,1-.51-1.4ZM531,89.5h-3.85V86.68a2.87,2.87,0,0,0-.86-2.32,3.29,3.29,0,0,0-2.18-.72,4.71,4.71,0,0,0-2,.41,6.87,6.87,0,0,0-1.55.94l-.22-3.14a11.23,11.23,0,0,1,1.85-.86,7.24,7.24,0,0,1,2.54-.42A6.71,6.71,0,0,1,529.29,82a5.59,5.59,0,0,1,1.7,4.45Zm-3.85-1.91H531v8.18a4,4,0,0,1-.73.17,6.8,6.8,0,0,1-1,.08,2.61,2.61,0,0,1-1.6-.39,1.7,1.7,0,0,1-.5-1.4Z"/><path class="cls-1" d="M540.84,96.3a8.71,8.71,0,0,1-4.93-1.21,4,4,0,0,1-1.78-3.58,4,4,0,0,1,1.33-3.22,7.06,7.06,0,0,1,3.87-1.36l4.27-.44v-.56a2,2,0,0,0-.87-1.82,4.37,4.37,0,0,0-2.43-.57,9,9,0,0,0-2.38.32,12.46,12.46,0,0,0-2.07.75,2.48,2.48,0,0,1-.56-.69,1.74,1.74,0,0,1,1-2.57,8.12,8.12,0,0,1,2.05-.6,15.57,15.57,0,0,1,2.34-.18,8.22,8.22,0,0,1,4.89,1.3A4.69,4.69,0,0,1,547.39,86v7.21a1.82,1.82,0,0,1-.36,1.19,3.63,3.63,0,0,1-.93.78,8.46,8.46,0,0,1-2.22.83A12.81,12.81,0,0,1,540.84,96.3Zm0-2.94a7.28,7.28,0,0,0,1.69-.19,4,4,0,0,0,1.1-.41V89.19l-3.11.31a4.08,4.08,0,0,0-2,.55,1.5,1.5,0,0,0-.67,1.33,1.69,1.69,0,0,0,.72,1.44A3.72,3.72,0,0,0,540.84,93.36Z"/><path class="cls-1" d="M565,86.15v3h-3.85V86.3a2.44,2.44,0,0,0-.79-2,3.19,3.19,0,0,0-2.1-.64,6.26,6.26,0,0,0-1.74.23,8.19,8.19,0,0,0-1.36.55v4.77h-3.85v-5a2.26,2.26,0,0,1,.31-1.24,3.11,3.11,0,0,1,.94-.89A8.61,8.61,0,0,1,555,81a12.13,12.13,0,0,1,3.31-.42A7.71,7.71,0,0,1,563.26,82,5,5,0,0,1,565,86.15Zm-13.69,1.5h3.85v8.12a4.28,4.28,0,0,1-.72.17,6.53,6.53,0,0,1-1,.08,2.66,2.66,0,0,1-1.59-.39,1.67,1.67,0,0,1-.51-1.4Zm9.84,0H565v8.12a3.22,3.22,0,0,1-.7.17,6.8,6.8,0,0,1-1,.08,2.72,2.72,0,0,1-1.62-.39,1.67,1.67,0,0,1-.51-1.4Z"/><path class="cls-1" d="M307.77,126.1h-2.54v-9.59l-4,1.88a1.6,1.6,0,0,1-.67-.47,1.16,1.16,0,0,1-.27-.78c0-.61.38-1.07,1.13-1.38l4.39-1.92h.59a1.37,1.37,0,0,1,1,.38,1.36,1.36,0,0,1,.37,1Zm-2.54-1.25h2.54v8.3a3.65,3.65,0,0,1-.5.14,2.51,2.51,0,0,1-.69.08,1.53,1.53,0,0,1-1-.28,1.07,1.07,0,0,1-.35-.88Z"/><path class="cls-1" d="M313.1,116a1.46,1.46,0,0,1,.72-1.11,5.71,5.71,0,0,1,1.95-.9,9.73,9.73,0,0,1,2.66-.34,8.07,8.07,0,0,1,3.45.67,5,5,0,0,1,3,4.78,6.72,6.72,0,0,1-1,3.39,17.5,17.5,0,0,1-3.27,3.79l-5.11,4.73h9.31a1.32,1.32,0,0,1,.22.4,1.87,1.87,0,0,1,.09.61,1.09,1.09,0,0,1-.27.78.9.9,0,0,1-.7.28H313.13a1.39,1.39,0,0,1-.47-.55,1.66,1.66,0,0,1-.15-.7,2.08,2.08,0,0,1,.18-.89,2.45,2.45,0,0,1,.57-.74l5.64-5.42a14.81,14.81,0,0,0,2.66-3.06,5,5,0,0,0,.73-2.59,3.16,3.16,0,0,0-1-2.41,4.29,4.29,0,0,0-3-.94,6.17,6.17,0,0,0-2.46.47,9.31,9.31,0,0,0-1.8,1,1.7,1.7,0,0,1-.61-.47A1.16,1.16,0,0,1,313.1,116Z"/><path class="cls-1" d="M328.34,131.81a1.82,1.82,0,0,1,.45-1.26,1.64,1.64,0,0,1,1.27-.5,1.58,1.58,0,0,1,1.25.5,1.81,1.81,0,0,1,.44,1.26,1.76,1.76,0,0,1-.44,1.22,1.58,1.58,0,0,1-1.25.5,1.64,1.64,0,0,1-1.27-.5A1.77,1.77,0,0,1,328.34,131.81Z"/><path class="cls-1" d="M340.28,113.66a8.12,8.12,0,0,1,4.81,1.3,4.48,4.48,0,0,1,1.83,3.9,4.18,4.18,0,0,1-.52,2.15,4.28,4.28,0,0,1-1.22,1.39,4,4,0,0,1-1.27.66,5.17,5.17,0,0,1,1.66.86,5.1,5.1,0,0,1,1.37,1.57,4.6,4.6,0,0,1,.55,2.3,5.25,5.25,0,0,1-.91,3.14,5.56,5.56,0,0,1-2.51,1.89,9.85,9.85,0,0,1-3.7.65,11.79,11.79,0,0,1-3.06-.36,6.11,6.11,0,0,1-2.08-.93,1.53,1.53,0,0,1-.75-1.19,1.26,1.26,0,0,1,.23-.75,2,2,0,0,1,.61-.53,9.53,9.53,0,0,0,2,1.12,7.81,7.81,0,0,0,3.06.51,5.75,5.75,0,0,0,3.36-.9,3.09,3.09,0,0,0,1.28-2.71,3.17,3.17,0,0,0-1.19-2.57,5.33,5.33,0,0,0-3.45-1h-2.6a1.52,1.52,0,0,1-.22-.46,2,2,0,0,1-.09-.61,2,2,0,0,1,.09-.62,1.38,1.38,0,0,1,.22-.44h2.38a5.06,5.06,0,0,0,3.31-.86,2.89,2.89,0,0,0,1-2.28,2.68,2.68,0,0,0-1.13-2.33,5.25,5.25,0,0,0-3.07-.8,7.18,7.18,0,0,0-2.65.45,9,9,0,0,0-1.9,1,1.46,1.46,0,0,1-.56-.5,1.23,1.23,0,0,1-.25-.75,1.43,1.43,0,0,1,.72-1.1,5.94,5.94,0,0,1,1.94-.88A10.05,10.05,0,0,1,340.28,113.66Z"/><path class="cls-1" d="M358.46,133.53a7,7,0,0,1-3.87-1.08,7.08,7.08,0,0,1-2.62-3.29,14.26,14.26,0,0,1-.94-5.57,13.14,13.14,0,0,1,1.06-5.76,7,7,0,0,1,10-3.14,7.14,7.14,0,0,1,2.76,3.18,13.28,13.28,0,0,1,1.05,5.72,14.36,14.36,0,0,1-.94,5.54,7.16,7.16,0,0,1-2.62,3.3A7,7,0,0,1,358.46,133.53Zm0-2.13a4.06,4.06,0,0,0,3.6-2,10.8,10.8,0,0,0,1.29-5.79,12.36,12.36,0,0,0-.68-4.49,5.46,5.46,0,0,0-1.77-2.5,4.15,4.15,0,0,0-4.87,0,5.33,5.33,0,0,0-1.77,2.52,12.66,12.66,0,0,0-.66,4.45,10.9,10.9,0,0,0,1.28,5.79A4,4,0,0,0,358.46,131.4Z"/><path class="cls-1" d="M383.28,126h-7.49a3.57,3.57,0,0,1-.16-.46,2.26,2.26,0,0,1-.06-.55,1,1,0,0,1,.3-.8,1.18,1.18,0,0,1,.8-.26h7.49c0,.12.09.27.14.44a1.78,1.78,0,0,1,.08.53,1.16,1.16,0,0,1-.28.8A1.07,1.07,0,0,1,383.28,126Z"/><path class="cls-1" d="M400.3,126.1h-2.54v-9.59l-4,1.88a1.54,1.54,0,0,1-.67-.47,1.16,1.16,0,0,1-.27-.78c0-.61.38-1.07,1.13-1.38l4.39-1.92h.59a1.37,1.37,0,0,1,1,.38,1.36,1.36,0,0,1,.37,1Zm-2.54-1.25h2.54v8.3a3.65,3.65,0,0,1-.5.14,2.51,2.51,0,0,1-.69.08,1.53,1.53,0,0,1-1-.28,1.07,1.07,0,0,1-.35-.88Z"/><path class="cls-1" d="M404.69,126.13l9.12-12.1c.19,0,.4-.08.64-.11a5.25,5.25,0,0,1,.65,0,2.82,2.82,0,0,1,.83.12,1.34,1.34,0,0,1,.64.46,1.52,1.52,0,0,1,.25,1v11H420a2,2,0,0,1,.19.43,1.63,1.63,0,0,1,.1.61,1.18,1.18,0,0,1-.25.78.91.91,0,0,1-.72.28h-2.45v4.71l-.45.1a2.27,2.27,0,0,1-.65.08,1.53,1.53,0,0,1-1-.28,1,1,0,0,1-.34-.81v-3.8h-9.06a1.29,1.29,0,0,1-.55-.56,1.77,1.77,0,0,1-.24-.91,2.31,2.31,0,0,1,.05-.49C404.61,126.39,404.65,126.26,404.69,126.13Zm9.72.25.06-9.87h-.06l-7,9.87Z"/><path class="cls-1" d="M421.36,131.81a1.83,1.83,0,0,1,.46-1.26,1.64,1.64,0,0,1,1.27-.5,1.58,1.58,0,0,1,1.25.5,1.86,1.86,0,0,1,.44,1.26,1.81,1.81,0,0,1-.44,1.22,1.58,1.58,0,0,1-1.25.5,1.64,1.64,0,0,1-1.27-.5A1.78,1.78,0,0,1,421.36,131.81Z"/><path class="cls-1" d="M434,133.53a7,7,0,0,1-3.87-1.08,7.08,7.08,0,0,1-2.62-3.29,14.26,14.26,0,0,1-.94-5.57,13.14,13.14,0,0,1,1.06-5.76,7,7,0,0,1,10-3.14,7.14,7.14,0,0,1,2.76,3.18,13.28,13.28,0,0,1,1.05,5.72,14.36,14.36,0,0,1-.94,5.54,7.16,7.16,0,0,1-2.62,3.3A7,7,0,0,1,434,133.53Zm0-2.13a4.05,4.05,0,0,0,3.6-2,10.8,10.8,0,0,0,1.29-5.79,12.36,12.36,0,0,0-.68-4.49,5.46,5.46,0,0,0-1.77-2.5,4.15,4.15,0,0,0-4.87,0,5.33,5.33,0,0,0-1.77,2.52,12.66,12.66,0,0,0-.66,4.45,10.9,10.9,0,0,0,1.28,5.79A4,4,0,0,0,434,131.4Z"/><path class="cls-1" d="M452.3,133.53a7,7,0,0,1-3.87-1.08,7.08,7.08,0,0,1-2.62-3.29,14.45,14.45,0,0,1-.94-5.57,13.12,13.12,0,0,1,1.07-5.76,7.07,7.07,0,0,1,2.76-3.15,7.1,7.1,0,0,1,7.25,0,7.14,7.14,0,0,1,2.76,3.18,13.28,13.28,0,0,1,1.05,5.72,14.17,14.17,0,0,1-.94,5.54,7.16,7.16,0,0,1-2.62,3.3A6.94,6.94,0,0,1,452.3,133.53Zm0-2.13a4.07,4.07,0,0,0,3.61-2,10.9,10.9,0,0,0,1.28-5.79,12.39,12.39,0,0,0-.67-4.49,5.46,5.46,0,0,0-1.77-2.5,4.15,4.15,0,0,0-2.45-.78,4.09,4.09,0,0,0-2.43.8,5.33,5.33,0,0,0-1.77,2.52,12.66,12.66,0,0,0-.66,4.45,10.8,10.8,0,0,0,1.29,5.79A4,4,0,0,0,452.3,131.4Z"/><path class="cls-1" d="M479,118.8a2.46,2.46,0,0,1,.62-.22,2.9,2.9,0,0,1,.79-.1,2.4,2.4,0,0,1,1.05.21,1,1,0,0,1,.54.61c.53,1.5,1,2.9,1.43,4.18s.84,2.53,1.22,3.73.78,2.44,1.18,3.72h.12c.4-1.88.79-3.72,1.16-5.5s.75-3.6,1.1-5.44.68-3.8,1-5.89a2.32,2.32,0,0,1,1.07-.22,1.56,1.56,0,0,1,.94.26,1,1,0,0,1,.34.8,12.94,12.94,0,0,1-.17,1.8c-.11.81-.27,1.75-.47,2.83s-.43,2.21-.69,3.41-.54,2.4-.83,3.61-.59,2.33-.88,3.4-.57,2-.84,2.79a4.93,4.93,0,0,1-.73.3,3.35,3.35,0,0,1-1,.14,2.86,2.86,0,0,1-1.16-.22,1.17,1.17,0,0,1-.62-.6c-.3-.73-.65-1.7-1.07-2.9s-.85-2.52-1.3-4-.88-2.84-1.3-4.24c-.4,1.37-.83,2.81-1.29,4.29s-.9,2.86-1.33,4.14-.81,2.3-1.14,3.07a4.31,4.31,0,0,1-.68.27,3.54,3.54,0,0,1-1,.14,2.41,2.41,0,0,1-1.14-.24,1.28,1.28,0,0,1-.61-.58c-.21-.52-.47-1.3-.77-2.35s-.62-2.24-1-3.59-.66-2.75-1-4.2-.63-2.85-.91-4.2-.51-2.54-.68-3.59a2.72,2.72,0,0,1,.6-.41,1.85,1.85,0,0,1,.81-.18,1.36,1.36,0,0,1,.88.26,1.53,1.53,0,0,1,.44.9c.27,1.31.53,2.59.79,3.82s.5,2.48.76,3.73.54,2.57.83,3.93.62,2.84,1,4.41h.12c.29-.94.58-1.84.85-2.7l.84-2.65c.3-.9.62-1.9,1-3S478.54,120.24,479,118.8Z"/><path class="cls-1" d="M498.25,123.84h-2.54v-9.71a4.1,4.1,0,0,1,.49-.14,2.64,2.64,0,0,1,.7-.08,1.66,1.66,0,0,1,1,.26,1.1,1.1,0,0,1,.33.9Zm-2.54-2.1h2.54v11.32a3.58,3.58,0,0,1-.47.14,3,3,0,0,1-.69.08,1.58,1.58,0,0,1-1-.28,1.07,1.07,0,0,1-.35-.88Z"/><path class="cls-1" d="M510.66,124.25l1-1.57a7.88,7.88,0,0,1,3.54.71,4.8,4.8,0,0,1,2.82,4.47,4.74,4.74,0,0,1-2,4.23,10.45,10.45,0,0,1-5.85,1.38c-.56,0-1.13,0-1.69-.05s-1.12-.09-1.66-.17-1.07-.19-1.57-.32q-1.32-.37-1.32-1.44V115.44a1.09,1.09,0,0,1,.27-.78,1.57,1.57,0,0,1,.77-.41,11.56,11.56,0,0,1,2.27-.42c.8-.07,1.67-.11,2.59-.11A10.1,10.1,0,0,1,515.3,115a4.29,4.29,0,0,1,2,3.87,4.85,4.85,0,0,1-.64,2.43,4.55,4.55,0,0,1-2.07,1.79,9,9,0,0,1-3.81.67l-.28-1.57a4.85,4.85,0,0,0,3.13-.86,2.91,2.91,0,0,0,1.07-2.4,2.57,2.57,0,0,0-1.24-2.33,7.06,7.06,0,0,0-3.65-.77c-.71,0-1.34,0-1.88.08s-1.05.12-1.51.2V131a14.21,14.21,0,0,0,1.74.25,18.81,18.81,0,0,0,2,.1,7.23,7.23,0,0,0,4-.88,3,3,0,0,0,1.35-2.7,3.11,3.11,0,0,0-1.21-2.58A5.62,5.62,0,0,0,510.66,124.25Zm3.61-2.07v2.07h-8.62v-2.07Z"/><path class="cls-1" d="M265.49,183.61a.56.56,0,0,1-.56-.56V69.68a.56.56,0,1,1,1.12,0V183.05A.56.56,0,0,1,265.49,183.61Z"/><path class="cls-1" d="M274.15,183.61a.56.56,0,0,1-.56-.56V69.68a.56.56,0,1,1,1.12,0V183.05A.56.56,0,0,1,274.15,183.61Z"/></g></g></svg>