<svg xmlns="http://www.w3.org/2000/svg" xmlns:xlink="http://www.w3.org/1999/xlink" viewBox="0 0 543.49 301.28"><defs><style>.cls-1{fill:none;}.cls-2{isolation:isolate;}.cls-3{mix-blend-mode:overlay;}.cls-4{fill:#fff;}.cls-5{clip-path:url(#clip-path);}.cls-6{opacity:0.5;}.cls-7{fill:#98e6f9;}.cls-8{fill:#10548d;}.cls-9{opacity:0.2;}.cls-10{clip-path:url(#clip-path-2);}.cls-11{opacity:0.9;}.cls-12{fill:#074f77;}.cls-13{clip-path:url(#clip-path-3);}.cls-14{opacity:0.3;}.cls-15{fill:#009cdd;}.cls-16{clip-path:url(#clip-path-4);}.cls-17{clip-path:url(#clip-path-5);}</style><clipPath id="clip-path"><circle id="SVGID" class="cls-1" cx="65.9" cy="65.65" r="62.34"/></clipPath><clipPath id="clip-path-2"><circle class="cls-1" cx="271.87" cy="65.65" r="62.34"/></clipPath><clipPath id="clip-path-3"><circle id="SVGID-2" data-name="SVGID" class="cls-1" cx="477.84" cy="65.65" r="62.34"/></clipPath><clipPath id="clip-path-4"><circle id="SVGID-3" data-name="SVGID" class="cls-1" cx="477.84" cy="225.06" r="62.34" transform="translate(180.5 661.6) rotate(-80.96)"/></clipPath><clipPath id="clip-path-5"><circle id="SVGID-4" data-name="SVGID" class="cls-1" cx="271.87" cy="225.06" r="62.34" transform="translate(-8.31 439.68) rotate(-77.07)"/></clipPath></defs><title>prokes</title><g class="cls-2"><g id="Layer_2" data-name="Layer 2"><g id="OBJECTS"><g class="cls-3"><circle class="cls-4" cx="62.34" cy="69.21" r="62.34" transform="translate(-15.8 119.9) rotate(-80.96)"/></g><g class="cls-3"><circle class="cls-4" cx="65.9" cy="65.65" r="62.34"/></g><g class="cls-5"><g class="cls-6"><path class="cls-7" d="M87.12,40.14a7.73,7.73,0,0,0-5.69-7.46A5,5,0,0,0,81.74,31a5.15,5.15,0,0,0-5.15-5.15,5,5,0,0,0-2.49.67,8.25,8.25,0,0,0-15.77,3.41,8.35,8.35,0,0,0,.08,1.13,4.32,4.32,0,1,0-6.19,6,6.64,6.64,0,0,0,7.31,11,4.67,4.67,0,0,0,6.54,2.35,5.13,5.13,0,0,0,9.21.29,4.7,4.7,0,0,0,.92.09,4.52,4.52,0,0,0,4.24-3A7.73,7.73,0,0,0,87.12,40.14Z"/></g><g class="cls-6"><path class="cls-7" d="M84.56,97.25a7.74,7.74,0,0,0-5.7-7.46,5,5,0,0,0,.31-1.69A5.14,5.14,0,0,0,74,83a5,5,0,0,0-2.49.67A8.25,8.25,0,0,0,55.76,87a8.34,8.34,0,0,0,.09,1.13,4.33,4.33,0,0,0-7.75,2.66,4.3,4.3,0,0,0,1.56,3.31,6.64,6.64,0,0,0,7.31,11,4.67,4.67,0,0,0,6.54,2.35,5.12,5.12,0,0,0,9.2.29,4.73,4.73,0,0,0,.93.09,4.53,4.53,0,0,0,4.24-3A7.74,7.74,0,0,0,84.56,97.25Z"/></g><path class="cls-4" d="M41.8,132.22a72,72,0,0,1-13.6-1.3A70,70,0,0,1,20.59,129l-.46-.14.15-.45c.24-.77.49-1.53.75-2.29.06-.18.12-.42.19-.67a5.93,5.93,0,0,1,.65-1.78l4-12.68c.24-.76.49-1.51.74-2.27a52.63,52.63,0,0,0,1.66-5.63,19.7,19.7,0,0,0,.45-3.55,18.18,18.18,0,0,0-2.17-9.21c-.41-.74-.78-1.48-1.15-2.28s-.66-1.48-1-2.23l-.36-.89c-.31-.76-.63-1.55-1-2.4a23.88,23.88,0,0,1-1.18-3.66c-.47-1.82-.87-3.68-1.2-5.55-.15-.86-.25-1.74-.35-2.6s-.22-2-.41-3a29.1,29.1,0,0,0-2.79-7.27c-.34-.65-.68-1.3-1-1.94-.15-.27-.32-.54-.5-.82a7.61,7.61,0,0,1-1.07-2.2l0-.25a3,3,0,0,1,0-.66c0-.09,0-.25,0-.25l0-.21a2.48,2.48,0,0,1,.2-.56,3.08,3.08,0,0,1,1.65-1.39,6.47,6.47,0,0,1,2.27-.39A6.34,6.34,0,0,1,20.1,52c2.21.53,4.22,2.11,6.15,4.81a37.75,37.75,0,0,1,3.29,5.59l.27.56a14.7,14.7,0,0,0,1.44,2.61l.09-.1c.13-.14.26-.29.38-.44l.17-.22a9,9,0,0,0,.75-1.18l.06-.11.18-.38.11-.25c0-.08.2-.52.2-.52.06-.16.11-.31.16-.48l.14-.46L33.6,61c.07-.3.15-.6.22-.9l.1-.46c.36-1.56.74-3.13,1.13-4.69.5-2,1-4,1.6-6.06l.54-1.94.74-2.58.49-1.64c.19-.62.35-1.17.52-1.72l.18-.68.15-.51c.08-.28.18-.59.29-.94l.23-.71.28-.78.25-.65c.1-.26.21-.51.32-.77s.21-.49.33-.72l.25-.51.14-.28.16-.29c.15-.26.3-.52.46-.76l.2-.3.06-.08a5.56,5.56,0,0,1,.39-.5,3.68,3.68,0,0,1,.51-.53l.22-.2.19-.14.17-.12.17-.1.08,0,.19-.09.09,0a2.69,2.69,0,0,1,.52-.14l.2,0h.1l.44,0,.15,0a2.29,2.29,0,0,1,.37.12,2.22,2.22,0,0,1,.5.28,4.55,4.55,0,0,1,1.49,3A15.77,15.77,0,0,1,48.23,37c0,.61,0,1.29,0,2a57.29,57.29,0,0,1-1.09,8h0s-.21,1.32-.43,3c-.16,1.29-.3,2.52-.39,3.55,0,.68-.09,1.34-.11,1.92a6.66,6.66,0,0,0,.1,1.66A2.55,2.55,0,0,0,47,56c0-.1.08-.19.11-.28a23.76,23.76,0,0,0,.71-2.36l0-.15c0-.21.1-.44.14-.67a7.48,7.48,0,0,1,.48-1.65l2.48-9,.5,0L51,41.75l1.22-4.31.82-2.86.82-2.83.29-.93a11.87,11.87,0,0,1,1.92-4,3.9,3.9,0,0,1,2.44-1.57l.4,0a2.27,2.27,0,0,1,.81.14c1.26.62,2.08,2,2.46,4a23.21,23.21,0,0,1,.07,6.38A66.47,66.47,0,0,1,60.85,44c-.08.38-.17.75-.26,1.11-.78,3.2-1.53,5.57-1.55,5.62h0s-.36,1.75-.75,3.77c-.55,2.86-.77,4.33-.86,5.09l.09-.13a19.78,19.78,0,0,0,1.3-2.65c.06-.14.13-.32.2-.53,0,0,.15-.43.2-.59l.5-1.58c.17-.55.35-1.17.54-1.82l1.87-6.58,1-3.37.49,0-.46-.13c.31-1.05.61-2,.91-3l.32-1,.27-.79c.12-.35.23-.65.33-.93l.19-.48.09-.23c.12-.28.24-.55.37-.79s.12-.25.18-.36l.3-.51.23-.33a5.59,5.59,0,0,1,.58-.68,3.7,3.7,0,0,1,.57-.49l.28-.18a2.44,2.44,0,0,1,.28-.14,2.72,2.72,0,0,1,.55-.18l.11,0a2,2,0,0,1,.34,0h.21l.35.05a1,1,0,0,1,.2,0,1.46,1.46,0,0,1,.25.1l.21.13a5.56,5.56,0,0,1,2.18,3.94,25.36,25.36,0,0,1-.54,8.7,69.69,69.69,0,0,1-2.52,9c-.78,3.12-1.56,6.53-1.88,8.39l.48.09-.44-.19.17-.43,3.69-8.11.21-.44.39-.75.23-.42c.38-.67.76-1.3,1.15-1.86l.37-.51c.13-.18.25-.34.39-.5s.26-.32.4-.47a8.11,8.11,0,0,1,.82-.77,3.45,3.45,0,0,1,1.06-.59l.26-.07a1.24,1.24,0,0,1,.27,0h.12a1.18,1.18,0,0,1,.27,0,1.67,1.67,0,0,1,.51.16l.15.08c1.28.67,1.78,1.73,1.67,3.54a39.89,39.89,0,0,1-1.74,8.85c-.4,1.38-.83,2.74-1.25,4.07-.22.69-.44,1.37-.65,2a105.39,105.39,0,0,1-7.14,17.37,107.56,107.56,0,0,1-6.06,10.21C62.07,95,61.2,96,60.35,97.06A24.17,24.17,0,0,0,56.42,103a23.52,23.52,0,0,0-1.22,4.17,63.14,63.14,0,0,0-.9,7.88c-.1,1.35-.2,2.74-.34,4.1L52.65,131.4l-.36.06A72.17,72.17,0,0,1,41.8,132.22Z"/><path class="cls-8" d="M59,25.74a1.66,1.66,0,0,1,.61.1c1.18.58,1.86,1.89,2.18,3.62a23,23,0,0,1,.07,6.25,67.45,67.45,0,0,1-1.42,8.13c-.08.38-.17.75-.26,1.1-.79,3.26-1.54,5.6-1.54,5.6s-.37,1.77-.77,3.82c-.54,2.82-1.12,6.16-.83,6.16h0a.58.58,0,0,0,.16-.05l.07,0,.07,0a1.84,1.84,0,0,0,.26-.24l0-.06,0-.05L57.7,60a1.77,1.77,0,0,0,.16-.22l.06-.09A19.72,19.72,0,0,0,59.25,57c.07-.15.14-.34.22-.56,0,0,0-.1.05-.15s.1-.29.15-.46,0-.08,0-.13.09-.29.14-.45,0-.1,0-.15a.19.19,0,0,0,0-.07q.12-.37.24-.78.26-.84.54-1.83c0-.12.07-.23.1-.35s0-.18.08-.27c.15-.51.3-1,.45-1.58l.08-.26.65-2.32c.16-.54.31-1.09.47-1.63a1.09,1.09,0,0,1,.05-.17l.54-1.87c.07-.25.14-.5.22-.75,0,0,0,0,0-.05l.21-.69,0-.1c.3-1,.61-2,.9-2.94l0-.06c.07-.21.13-.41.19-.6s.08-.22.11-.32S65,38,65,37.8a1.72,1.72,0,0,1,.07-.21c.11-.31.21-.61.32-.88,0,0,0-.08,0-.12s.1-.24.14-.35l.09-.22c.12-.28.23-.54.35-.77s.12-.24.18-.34.19-.33.29-.48.14-.22.21-.31a4.36,4.36,0,0,1,.52-.63,4.66,4.66,0,0,1,.51-.43l.24-.15.24-.12a2.37,2.37,0,0,1,.45-.15l.09,0,.28,0h.17l.28,0,.17,0a.65.65,0,0,1,.16.07l0,0a.57.57,0,0,1,.13.08,5.09,5.09,0,0,1,2,3.63A25.33,25.33,0,0,1,71.44,45a68.42,68.42,0,0,1-2.51,9s-2.49,9.9-2,10.07H67a.44.44,0,0,0,.27-.16,3.76,3.76,0,0,0,.55-.91l.08-.17a1,1,0,0,1,.07-.15.08.08,0,0,1,0,0c0-.13.09-.25.12-.32l0-.1,3.69-8.11.09-.19.11-.23.21-.4c.05-.11.12-.23.18-.35s.07-.13.11-.2l.12-.21c.31-.56.7-1.2,1.12-1.82l.18-.25.18-.25c.12-.17.25-.33.37-.48s.26-.31.39-.45a6.4,6.4,0,0,1,.77-.72,2.79,2.79,0,0,1,.91-.51l.21-.05a.63.63,0,0,1,.19,0h.29a1.29,1.29,0,0,1,.38.12l.13.07c1.13.6,1.52,1.48,1.43,3.1A41.17,41.17,0,0,1,77.48,60c-.61,2.08-1.29,4.14-1.9,6.11a106.18,106.18,0,0,1-7.11,17.29,104.84,104.84,0,0,1-6,10.16c-2.1,3.13-5,5.73-6.46,9.26a24.71,24.71,0,0,0-1.25,4.26c-.79,3.94-.82,8.05-1.24,12S52.64,127,52.22,131a72.39,72.39,0,0,1-10.41.76,70.94,70.94,0,0,1-13.52-1.3,69.66,69.66,0,0,1-7.56-1.9q.36-1.14.75-2.28a9.55,9.55,0,0,1,.82-2.38c.05-.19.11-.38.17-.57.34-1.07.68-2.14,1-3.22,0,0,0,0,0,0q1.41-4.48,2.81-9c.82-2.61,1.83-5.24,2.41-7.94a20.15,20.15,0,0,0,.47-3.64,18.72,18.72,0,0,0-2.24-9.44c-.43-.79-.8-1.53-1.13-2.26s-.65-1.47-1-2.22c-.42-1-.85-2.1-1.36-3.28a25.17,25.17,0,0,1-1.16-3.6q-.69-2.73-1.19-5.51c-.32-1.85-.39-3.77-.76-5.59a28.72,28.72,0,0,0-2.83-7.39c-.34-.66-.69-1.31-1-2A13,13,0,0,1,15,55.4s0-.08,0-.12,0-.07,0-.1a3.78,3.78,0,0,1,0-.56c0-.07,0-.14,0-.2l0-.09a.36.36,0,0,1,0-.1,1.59,1.59,0,0,1,.16-.43,2.51,2.51,0,0,1,1.4-1.16,5.61,5.61,0,0,1,2.09-.37,6.46,6.46,0,0,1,1.37.15c2.52.61,4.44,2.61,5.87,4.63a38.18,38.18,0,0,1,3.26,5.51,16,16,0,0,0,2.08,3.68l.05,0c.15-.14.3-.29.44-.44s.27-.31.4-.46a2.35,2.35,0,0,0,.19-.25,8.79,8.79,0,0,0,.78-1.23l.06-.11c.07-.13.13-.26.19-.4l.12-.27.11-.27.1-.27c.06-.17.11-.33.16-.5a.08.08,0,0,0,0-.05c0-.09.06-.19.08-.28a1,1,0,0,0,0-.14l.12-.42c.07-.31.15-.61.22-.91,0-.15.07-.31.1-.46.37-1.56.74-3.13,1.13-4.68.51-2,1-4,1.59-6.06.17-.61.34-1.22.52-1.83a.84.84,0,0,1,.05-.17c.23-.84.47-1.67.72-2.51l.06-.2.42-1.43a.19.19,0,0,0,0-.07l.51-1.65v-.05l.11-.44a.19.19,0,0,0,0-.07l.06-.2c0-.07,0-.15.07-.23a.36.36,0,0,1,0-.1l0-.1c.08-.28.18-.59.29-.93l.08-.26.15-.45c.06-.17.12-.35.19-.53s0-.09,0-.14l.17-.44c0-.1.07-.19.11-.3l.31-.75c.11-.24.21-.48.32-.71s.11-.23.17-.34,0-.09.08-.15.09-.19.14-.28l.15-.28c.14-.25.29-.5.45-.74l.18-.27.11-.15c.11-.14.21-.28.32-.41a5.27,5.27,0,0,1,.46-.48l.09-.08.11-.09.18-.14.14-.09,0,0,.15-.09,0,0,.15-.07.09,0a2.28,2.28,0,0,1,.41-.11l.14,0h.18a1.24,1.24,0,0,1,.27,0l.13,0,.29.1a1.75,1.75,0,0,1,.4.22,4.18,4.18,0,0,1,1.3,2.69A15.73,15.73,0,0,1,47.76,37c0,.64,0,1.31,0,2a56.76,56.76,0,0,1-1.07,7.92s-.22,1.34-.44,3.07c-.14,1.11-.29,2.38-.39,3.57-.06.69-.1,1.36-.11,2,0,1.23.06,2.11.37,2.18h.11l.14,0c.46-.12.85-.79,1.14-1.49l.12-.3a24.36,24.36,0,0,0,.76-2.56A11.6,11.6,0,0,1,49,51.05c.06-.23.13-.46.19-.7s.07-.26.11-.39l.45-1.63c0-.22.11-.44.17-.66s.09-.29.13-.44.14-.53.22-.8.15-.54.22-.82.14-.48.2-.71.14-.49.2-.73l.21-.73.13-.49c.05-.17.1-.33.14-.5s.09-.33.14-.49l0-.08c.09-.3.17-.61.26-.91.14-.5.27-1,.41-1.48,0-.09.05-.18.08-.26s.08-.31.13-.47.09-.32.13-.48.14-.48.2-.72l.44-1.51.38-1.34c.21-.73.41-1.42.6-2.05.06-.2.11-.38.17-.56s.07-.23.1-.34a1.87,1.87,0,0,1,.07-.22c0-.09,0-.19.08-.28l.09-.3a11.13,11.13,0,0,1,1.84-3.8,3.43,3.43,0,0,1,2.14-1.4l.34,0m0-.95a3.87,3.87,0,0,0-.48,0,4.37,4.37,0,0,0-2.74,1.74,12.26,12.26,0,0,0-2,4.12l0,.18,0,.13-.08.28,0,.08,0,.12,0,.13-.06.23-.11.35-.06.2-.6,2.07c-.1.33-.19.67-.29,1l-.09.31-.1.34-.34,1.19-.12.43-.08.28-.09.31,0,.18-.1.36,0,.1a1.82,1.82,0,0,1-.07.25l-.42,1.49-.13.46-.12.45,0,.09c0,.16-.08.32-.13.48l-.06.21-.08.29-.12.43,0,.06-.2.74-.07.26-.13.46-.2.72-.23.82-.07.27-.15.52-.12.45-.11.4-.07.26c-.16.57-.31,1.12-.45,1.64,0,.13-.07.25-.1.37l0,.13-.13.49a7.45,7.45,0,0,0-.5,1.72c0,.23-.09.45-.14.65l0,.16a21.87,21.87,0,0,1-.69,2.29.61.61,0,0,1-.05.12.61.61,0,0,0,0-.14c0-.52.05-1.16.11-1.89.08-1,.22-2.25.38-3.53.2-1.56.4-2.82.43-3a56.74,56.74,0,0,0,1.09-8c0-.74,0-1.43,0-2.05a15.61,15.61,0,0,0-.23-2.53,4.94,4.94,0,0,0-1.67-3.29,2.89,2.89,0,0,0-.6-.33,3.45,3.45,0,0,0-.42-.14l-.21,0a2.46,2.46,0,0,0-.4,0h-.26l-.23,0a3.47,3.47,0,0,0-.59.16l-.16.07-.19.09,0,0,0,0-.16.09h0l0,0-.17.12-.24.18L43,31.5h0l0,0-.1.09a6.06,6.06,0,0,0-.55.57c-.12.14-.24.3-.36.46l-.06.09,0,.06a3.62,3.62,0,0,0-.22.32c-.16.25-.32.52-.48.79l-.15.29-.17.31-.08.16c-.05.1-.11.22-.16.34s-.23.49-.34.74-.22.52-.32.78l-.06.15-.06.16-.12.32,0,.13-.05.14-.19.55-.16.45,0,.12,0,.15c-.12.36-.21.68-.3,1l0,.11,0,.1-.06.23,0,.06-.05.16,0,.08c0,.17-.08.31-.1.39h0v.07c-.17.54-.33,1.08-.49,1.63a.43.43,0,0,0,0,.11c-.13.43-.27.91-.41,1.39l0,.1,0,.1c-.25.84-.49,1.68-.73,2.52l0,.08,0,.09-.51,1.84c-.56,2-1.1,4.09-1.6,6.08-.39,1.57-.77,3.15-1.13,4.7l-.11.46-.21.88c0,.13-.07.27-.11.41l0,.12a2.76,2.76,0,0,1-.08.27v.06c0,.15-.1.3-.16.46a1.36,1.36,0,0,1-.09.23,1.57,1.57,0,0,1-.1.26c0,.08-.07.16-.1.25s-.11.23-.17.34l.8.51-.83-.45h0l0,0a7.55,7.55,0,0,1-.7,1.1l-.17.22-.05.07a18.61,18.61,0,0,1-1.06-2L30,62.15a38.65,38.65,0,0,0-3.34-5.65c-2-2.81-4.09-4.44-6.42-5a6.67,6.67,0,0,0-1.59-.18,6.86,6.86,0,0,0-2.44.43,3.51,3.51,0,0,0-1.9,1.62A2.54,2.54,0,0,0,14,54l0,.15v.09a1.78,1.78,0,0,0,0,.29,3.46,3.46,0,0,0,0,.79s0,.08,0,.12a1.16,1.16,0,0,0,0,.16A8.25,8.25,0,0,0,15.2,58c.17.26.34.53.48.79.35.63.69,1.28,1,1.93a28.07,28.07,0,0,1,2.74,7.15c.19.94.3,1.91.41,2.94.1.86.2,1.75.35,2.62.33,1.88.74,3.76,1.21,5.58a24.49,24.49,0,0,0,1.2,3.74c.36.85.69,1.64,1,2.4L24,86c.29.71.61,1.46,1,2.26s.75,1.56,1.16,2.31a17.68,17.68,0,0,1,2.12,9,18.78,18.78,0,0,1-.45,3.47,52.34,52.34,0,0,1-1.64,5.58c-.25.76-.51,1.52-.74,2.27l-1,3.2-1.8,5.75,0,.07h0l-.15.51L21.57,123l-.12.37,0,.06a6.73,6.73,0,0,0-.67,1.86c-.06.24-.12.46-.18.64-.26.76-.51,1.52-.76,2.29l-.29.91.92.29a72.51,72.51,0,0,0,21.36,3.24,73.22,73.22,0,0,0,10.55-.77l.73-.11.07-.73L54.4,119.5l0-.31c.14-1.36.24-2.76.34-4.12a61.83,61.83,0,0,1,.9-7.81,22.63,22.63,0,0,1,1.19-4.09,23.41,23.41,0,0,1,3.86-5.81c.85-1,1.73-2.13,2.5-3.28a107.21,107.21,0,0,0,6.09-10.25,106.91,106.91,0,0,0,7.18-17.45c.21-.68.42-1.36.64-2,.42-1.32.86-2.69,1.26-4.08a40.1,40.1,0,0,0,1.75-9,3.76,3.76,0,0,0-1.93-4l-.13-.07A2.22,2.22,0,0,0,77.4,47a1.61,1.61,0,0,0-.33,0H76.9a2.19,2.19,0,0,0-.31,0,1.53,1.53,0,0,0-.29.07,4,4,0,0,0-1.23.67,7.4,7.4,0,0,0-.88.83l-.42.49c-.14.17-.27.33-.4.51l-.2.27-.18.26A22,22,0,0,0,71.82,52l-.11.21-.12.22-.2.37-.21.41-.07.14,0,.08-.11.23-2.1,4.61c.3-1.31.64-2.71,1-4.06a69,69,0,0,0,2.53-9.05,25.82,25.82,0,0,0,.54-8.87A6,6,0,0,0,70.5,32L70.36,32l0,0-.06,0a2.83,2.83,0,0,0-.33-.14l-.22-.05a1.8,1.8,0,0,0-.45-.06H69a3,3,0,0,0-.43.05l-.14,0a2.47,2.47,0,0,0-.62.2,2.08,2.08,0,0,0-.33.17l-.31.2a4.92,4.92,0,0,0-.63.53,5.65,5.65,0,0,0-.62.74l-.24.35c-.11.17-.21.35-.32.53l-.2.38c-.13.26-.25.53-.38.83l-.07.18h0l0,0c0,.12-.1.24-.14.37l0,.11c-.12.29-.23.6-.34.92h0l0,0-.05.15-.19.57,0,.05-.11.32-.08.27-.11.34h0v0c-.29.92-.6,1.92-.91,3l0,.07-.22.73h0v0l-.08.27-.14.49c-.18.61-.37,1.24-.55,1.87l0,.08,0,.11-.46,1.61-.66,2.32-.06.21v0l-.08.28c-.13.44-.25.88-.37,1.3l-.08.26,0,.16-.06.2c-.19.65-.37,1.26-.54,1.81L59,54.7v0l0,.11v.06c-.05.15-.1.3-.14.44l0,.06,0,.07-.14.43c0,.06,0,.09-.05.13-.08.22-.14.39-.2.53h0c.11-.58.23-1.26.38-2.05.36-1.84.7-3.47.76-3.76s.8-2.58,1.54-5.61q.14-.54.27-1.11a67.24,67.24,0,0,0,1.43-8.26,23.31,23.31,0,0,0-.08-6.51c-.4-2.18-1.31-3.63-2.69-4.3l0,0h0a2.61,2.61,0,0,0-1-.17Z"/><path class="cls-7" d="M36.42,100.57a20.37,20.37,0,0,1,5.73-2.06c-1.46.24-4.24-1.84-5.4-2.58A22,22,0,0,1,32.46,92c-3-3.24-5.83-6.78-7.52-10.87-1.5-3.62-2.52-9.51,1.55-11.88-1.27.83-3.08.19-4.06-1a11.83,11.83,0,0,1-1.84-4.14,32.62,32.62,0,0,0-3-6.66c-.89-1.49-1.92-3.28-1.14-4.83A1.93,1.93,0,0,0,15,54.78,6.28,6.28,0,0,0,16,57.39a41.27,41.27,0,0,1,4.29,10.4c1,3.63,1.09,7.35,2,11a25.17,25.17,0,0,0,1.16,3.6c.51,1.18.94,2.25,1.36,3.28.31.75.62,1.48,1,2.22s.7,1.47,1.13,2.26a18.72,18.72,0,0,1,2.24,9.44,20.15,20.15,0,0,1-.47,3.64c-.58,2.7-1.59,5.33-2.41,7.94q-1.39,4.47-2.81,9s0,0,0,0a33.34,33.34,0,0,1-1,3.22c-.06.19-.12.38-.17.57a9.55,9.55,0,0,0-.82,2.38q-.39,1.14-.75,2.28a69.66,69.66,0,0,0,7.56,1.9A4.41,4.41,0,0,1,27,129a5.79,5.79,0,0,1-.37-3.12,47.13,47.13,0,0,1,1.46-7.41c.76-3,1.67-6,2.28-9.07a14.68,14.68,0,0,1,2.49-6.25,9.61,9.61,0,0,1,3.36-2.43Z"/><path class="cls-7" d="M31.53,66.57a2.47,2.47,0,0,1-.28-.38,9.09,9.09,0,0,0,2.06-2.89,18.36,18.36,0,0,0,1.07-3.57q2.17-9.39,5-18.6s1.39-5.72,3.59-8.32c.85-1,1.81-1.53,2.86-1.1a1.75,1.75,0,0,1,.4.22,7.67,7.67,0,0,0-2.89,3c-.25.49-.38,1.05-.61,1.56a5.68,5.68,0,0,0-.58,2.09,1.55,1.55,0,0,0,.13.83c.21.41.67.65.84,1.08a5.51,5.51,0,0,0-1.52.11c-.91.25-1.21.89-1.45,1.73s-.51,1.87-.72,2.82c-.07.34,0,.61-.06.94s-.26.85-.29,1.3a2.46,2.46,0,0,0,.77,1.87c-.25-.25-1,.28-1.12.47a6.25,6.25,0,0,0-.54,1.54,14.1,14.1,0,0,0-.55,3.22,1.32,1.32,0,0,0,.05.56,1.17,1.17,0,0,0,.35.48,8,8,0,0,0,2.68,1.54l-2.56,0a2.07,2.07,0,0,0-.5,0c-.88.19-1.27,1.24-1.48,2a21,21,0,0,1-1.1,3.15A9.8,9.8,0,0,1,31.53,66.57Z"/><path class="cls-7" d="M46.61,58l-.68-.15c.3-.3.72-.37,1-.7a4.45,4.45,0,0,0,.58-1.1,11.67,11.67,0,0,0,.5-1.55S52.67,37.33,54.63,31a11.33,11.33,0,0,1,1.83-3.8,3.47,3.47,0,0,1,2.15-1.4,3.7,3.7,0,0,0-.82,1.38c-.39,1-.77,1.94-1.12,2.93-.63,1.74-1.36,3.81.33,5.24a2.29,2.29,0,0,0-1.74.4,4.12,4.12,0,0,0-1.14,2.46c-.39,1.36-.77,2.73-1.14,4.1-.33,1.17-1,2.43-.29,3.55A6,6,0,0,0,53.78,47H52.4a.85.85,0,0,0-.32,0,.69.69,0,0,0-.29.27,13.59,13.59,0,0,0-1.37,3.8c-.43,1.37-.9,2.73-1.4,4.08a4.73,4.73,0,0,0-.1,1.46A1.45,1.45,0,0,0,49.46,58q.59.57,1.2,1.11A27.51,27.51,0,0,0,46.61,58Z"/><path class="cls-7" d="M57.77,61l-.69-.31A11.57,11.57,0,0,0,59.25,57C60.37,54.34,63.83,40.5,65.69,36a7.91,7.91,0,0,1,1.55-2.53,2.24,2.24,0,0,1,2.59-.75l.16.1a4.53,4.53,0,0,0-2.06,1.56,9,9,0,0,0-1.29,2.66c-.14.39-.16.78-.28,1.17a4,4,0,0,0-.25,1.52,4.53,4.53,0,0,0,1.28,2.39c-.16-.18-1.17-.25-1.42-.29-.45-.08-.83-.07-1.09.36a1.31,1.31,0,0,0-.13.73,5,5,0,0,1-.25,1.27c-.36,1.26-1.07,3-.36,4.31a4,4,0,0,0,.28.43,4.23,4.23,0,0,0,.92,1,2.55,2.55,0,0,1-.91.06,6.07,6.07,0,0,0-.84-.12c-1,0-1.1,1.6-1.31,2.35-.3,1-.61,2.08-1,3.09a15.81,15.81,0,0,0-.71,1.71,11.68,11.68,0,0,0-.43,2.18A4.86,4.86,0,0,0,60.66,62,26.13,26.13,0,0,1,57.77,61Z"/><path class="cls-7" d="M67.69,64.63l-.87-.43c.31.11.83-.88.92-1.07a8.55,8.55,0,0,0,.4-.94l3.69-8.11a23.92,23.92,0,0,1,2.68-4.38c1-1.23,2.14-2.11,3.13-1.62l.13.06A5.28,5.28,0,0,0,75.46,50c-.77,1-2,2.57-1.76,3.93a3.57,3.57,0,0,0,.87,1.65,2.13,2.13,0,0,0-1.66,0c-.54.34-.78,1.18-1.07,1.72-1,1.87-2.47,3.85-2.51,6a2.64,2.64,0,0,0,.11.93,3.49,3.49,0,0,0,.37.75l.87,1.47A25.29,25.29,0,0,0,67.69,64.63Z"/><g class="cls-9"><path class="cls-7" d="M43.3,77.38A18.86,18.86,0,0,1,47,85.91a42,42,0,0,1,.27,8.47A19.4,19.4,0,0,0,48.4,81.32c-.4-1.5-2.38-5.76.25-6.36a3.58,3.58,0,0,1,1.42.06,42,42,0,0,1,12.31,4.51c-.4-.22-.85-1.06-1.16-1.4a28.91,28.91,0,0,0-5-4.39,30.23,30.23,0,0,0-7.91-3.91,28.26,28.26,0,0,0-13.22-1.19c-1.2.2-1.06.59-.29,1.41,1.46,1.54,3.42,2.43,5,3.77A22,22,0,0,1,43.3,77.38Z"/></g><path class="cls-4" d="M95.68,132.22H94.56a71.88,71.88,0,0,1-9.44-.75l-.36-.05-1.31-12.27c-.14-1.34-.24-2.72-.33-4a62.31,62.31,0,0,0-.91-7.93A23.68,23.68,0,0,0,81,103a23.33,23.33,0,0,0-3.92-5.92c-.85-1-1.73-2.12-2.49-3.26a105.87,105.87,0,0,1-13.2-27.57c-.2-.66-.41-1.32-.63-2-.43-1.36-.86-2.74-1.27-4.13a41.29,41.29,0,0,1-1.74-8.85c-.11-1.8.39-2.86,1.67-3.55l.11,0a1.91,1.91,0,0,1,.42-.16l.1,0,.31,0h.12l.23,0,.25.06a3.55,3.55,0,0,1,1.1.61,8,8,0,0,1,.82.77c.13.14.25.29.38.44a5.79,5.79,0,0,1,.41.52l.19.27.18.24c.43.63.82,1.28,1.15,1.87l.24.43.18.34.21.41.2.42L69.73,62v.06l.17.43c-.32-1.86-1.1-5.28-1.89-8.44h0a68,68,0,0,1-2.51-9A25.29,25.29,0,0,1,65,36.4a5.55,5.55,0,0,1,2.2-4l.14-.09a1.43,1.43,0,0,1,.29-.13l.16.45-.06-.48.13,0,.19,0h.34a2.4,2.4,0,0,1,.37,0l.15,0a2.12,2.12,0,0,1,.51.17,2,2,0,0,1,.29.15l.26.16a5.17,5.17,0,0,1,.56.47,5.68,5.68,0,0,1,.58.71s.11.15.18.24l.11.17.24.42c.06.12.13.23.19.36s.24.51.36.8l.1.23s.09.25.13.33v0l.37,1a1.24,1.24,0,0,0,.06.2l.21.63c0,.15.08.22.1.3l.21.61,0,.08v0c.3.92.6,1.9.9,2.92l0,0,0,.07.22.75v.07c.06.16.14.42.21.67L76,48.09l.39,1.35h0l.08.39a.83.83,0,0,0,0,.15l.63,2.2c.18.63.34,1.17.5,1.67l.06.21c.06.22.12.42.18.61l.08.24h0s.33,1,.38,1.16l0,.13c.07.19.13.33.18.46l0,.11a19.45,19.45,0,0,0,1.29,2.63l.09.13c-.11-1-.41-2.79-.85-5.09-.4-2-.77-3.81-.77-3.81h0s-.76-2.36-1.54-5.59c-.09-.36-.17-.73-.26-1.1a65.47,65.47,0,0,1-1.43-8.19,23.66,23.66,0,0,1,.07-6.39A6,6,0,0,1,76.81,26a3.25,3.25,0,0,1,.83-.58,2.34,2.34,0,0,1,.84-.15l.4,0a3.93,3.93,0,0,1,2.44,1.57,11.69,11.69,0,0,1,1.91,4c0,.09.07.21.1.34a1.47,1.47,0,0,1,.08.25l.23.77h.12v.41c.11.39.58,2,.58,2,.13.43.25.88.38,1.34s.29,1,.44,1.52l.2.71c0,.16.08.32.13.47l.31,1.1c.1.37.21.74.32,1.11,0,0,.38,1.41.41,1.51l.14.47.13.48.41,1.48c.07.25.14.49.19.71s.75,2.72.75,2.72c.16.57.32,1.13.45,1.64,0,.13.07.24.11.35l.16.62,0,.13c.15.57.3,1.1.42,1.55l0,.06v0s.08.27.09.32h.11v.48l.21.72,0,.13a2.16,2.16,0,0,1,.05.22l0,.15a11.16,11.16,0,0,0,.36,1.12l.11.28a2.77,2.77,0,0,0,.75,1.18,6.71,6.71,0,0,0,.1-1.67c0-.57,0-1.24-.11-1.92-.12-1.37-.28-2.68-.39-3.55C90.51,48.31,90.3,47,90.3,47a58.53,58.53,0,0,1-1.09-8q0-1,0-2a16,16,0,0,1,.22-2.45,4.47,4.47,0,0,1,1.49-3,2.07,2.07,0,0,1,.5-.28,2,2,0,0,1,.34-.12l.06,0h0a.56.56,0,0,1,.16,0l.23,0h.14l0,0a1.25,1.25,0,0,1,.24,0,2.17,2.17,0,0,1,.52.14l.11,0,.28.14.19.12h0l.13.12.16.13.23.13V32a5.83,5.83,0,0,1,.48.5l.33.42.1.13.22.33c.15.23.3.49.45.76l.36.67h0l0,.08.16.32.37.79v0l.24.59.07.07v.1l.08.22c.05.1.09.23.14.36l0,.09-.42.23.47-.09c.06.17.13.35.19.53s.1.3.15.44l.09.28c.11.34.2.66.28.94h0s0,.06,0,.12l0,.1a1.84,1.84,0,0,1,.07.24,1,1,0,0,1,0,.23l0,.1h.11V41L99,42.71v0l.42,1.42a1.13,1.13,0,0,1,.06.21l.72,2.49.56,2c.64,2.31,1.14,4.23,1.6,6.08.39,1.55.77,3.11,1.13,4.68l.11.47.21.88.11.41a.64.64,0,0,1,0,.21h0s0,.08,0,.15l0,.12.16.48.2.52a2.25,2.25,0,0,0,.11.22,2.84,2.84,0,0,0,.18.39l.06.11a9.55,9.55,0,0,0,.74,1.18l.19.23c.11.14.24.29.37.43l.1.1a15,15,0,0,0,1.43-2.6l.27-.56a38.17,38.17,0,0,1,3.29-5.58c1.93-2.72,4-4.29,6.15-4.82l.4-.08a7.41,7.41,0,0,1,1.08-.08,6.28,6.28,0,0,1,2.27.39,3,3,0,0,1,1.65,1.4,2.11,2.11,0,0,1,.19.55l0,.12,0,.1,0,.23a3.77,3.77,0,0,1,0,.66v0l0,.05,0,.15a7.31,7.31,0,0,1-1.07,2.19c-.17.29-.35.57-.5.85-.36.66-.7,1.29-1,1.94a29.42,29.42,0,0,0-2.79,7.27c-.19,1-.3,2-.41,3s-.19,1.75-.34,2.62c-.32,1.82-.72,3.69-1.2,5.55a26,26,0,0,1-1.18,3.67c-.4.91-.74,1.76-1.07,2.57l-.29.7c-.31.76-.62,1.49-1,2.24s-.74,1.55-1.15,2.29a18.05,18.05,0,0,0-2.17,9.19,19.69,19.69,0,0,0,.45,3.57,55.45,55.45,0,0,0,1.67,5.65c.25.75.5,1.49.74,2.24l2.8,8.93,0,.07v0c.31,1,.63,2,.94,3l.06.16.15.49a6.23,6.23,0,0,1,.65,1.81c.07.24.12.47.18.65.26.75.51,1.51.76,2.27l.15.46-.46.14a70.75,70.75,0,0,1-7.62,1.92A71.46,71.46,0,0,1,95.68,132.22Z"/><path class="cls-8" d="M78.48,25.74a1.94,1.94,0,0,1,.33,0A3.48,3.48,0,0,1,81,27.16,11.14,11.14,0,0,1,82.78,31c0,.09.06.2.09.31s.06.17.09.27l.06.22.11.33c.05.19.11.38.16.56h0l.59,2.05c.13.44.26.88.38,1.34s.29,1,.44,1.51c.07.24.13.48.2.72s.09.32.14.48.08.31.13.46,0,.18.07.27L85.67,41c.09.3.16.61.25.91,0,0,0,.06,0,.08s.1.33.14.5.09.32.14.49.09.32.14.48.13.5.2.74.13.48.2.73.14.47.2.7.15.57.22.83h0c.08.26.15.53.23.79s.07.3.12.44.11.44.17.66c.17.57.32,1.12.45,1.63a3.4,3.4,0,0,0,.12.38l.18.71h0c.15.58.3,1.11.43,1.56h0l.06.25a3.9,3.9,0,0,1,.13.48h0l0,.11c.08.32.15.57.2.74a.7.7,0,0,1,0,.12s0,0,0,.08a.82.82,0,0,1,0,.11v0s0,.08,0,.14a10.34,10.34,0,0,0,.36,1.16,2.52,2.52,0,0,1,.12.29c.3.69.69,1.37,1.14,1.49a.62.62,0,0,0,.19,0h.06c.31-.07.4-1,.37-2.18,0-.58,0-1.26-.11-2-.1-1.2-.24-2.46-.39-3.57-.22-1.73-.43-3.06-.43-3.06A56,56,0,0,1,89.69,39c0-.67,0-1.34,0-2a15.67,15.67,0,0,1,.22-2.38,4.11,4.11,0,0,1,1.3-2.69,1.71,1.71,0,0,1,.4-.22,1.42,1.42,0,0,1,.29-.1H92a1.33,1.33,0,0,1,.28,0h.17l.14,0a2.08,2.08,0,0,1,.41.11l.08,0,.17.07,0,0,.14.08,0,0,.14.09h0l.16.13s.07.06.11.08h0l.09.08c.16.14.31.31.47.48l.31.4.11.16.19.28c.15.23.3.48.44.73l.15.28c.06.1.1.19.15.28h0a.61.61,0,0,1,.07.14c.06.11.12.23.17.34s.21.47.32.7v0c.11.25.21.49.31.74v0c0,.09.07.19.11.28s.11.3.16.44l0,.15c.07.17.14.35.2.52s.09.3.14.45a2.58,2.58,0,0,1,.08.26c.12.34.21.65.29.93l0,.1,0,.1a2,2,0,0,1,.06.23.84.84,0,0,1,0,.2l0,.07c.06.22.09.36.11.44a0,0,0,0,1,0,0,.16.16,0,0,1,0,0c.17.55.33,1.1.5,1.65a.19.19,0,0,1,0,.07c.14.47.29.95.42,1.43a1.52,1.52,0,0,1,.06.2c.25.84.49,1.67.72,2.5l.06.17.51,1.84c.55,2,1.09,4,1.59,6.06.39,1.56.76,3.11,1.13,4.68l.1.46c.08.3.15.6.22.9.05.15.08.29.12.43s0,.09,0,.14.06.19.08.27,0,0,0,.06c0,.17.11.34.16.5l.1.27L104,63c0,.1.08.18.12.27a3.73,3.73,0,0,0,.2.4l0,.11a9.82,9.82,0,0,0,.78,1.23l.2.25c.12.15.26.31.4.46h0c.12.12.25.27.39.4s0,0,0,0l0,0a16.16,16.16,0,0,0,2.09-3.67,37.23,37.23,0,0,1,3.25-5.51c1.44-2,3.35-4,5.87-4.63l.36-.07a6.46,6.46,0,0,1,1-.08,5.82,5.82,0,0,1,2.09.36,2.58,2.58,0,0,1,1.41,1.17,2,2,0,0,1,.15.43s0,.06,0,.11a.25.25,0,0,0,0,.08c0,.07,0,.13,0,.2a3.83,3.83,0,0,1,0,.57.24.24,0,0,0,0,.09s0,.08,0,.12a12.75,12.75,0,0,1-1.52,2.9c-.35.65-.7,1.29-1,2A28.8,28.8,0,0,0,117,67.64c-.37,1.83-.44,3.75-.76,5.6s-.72,3.69-1.19,5.51a25.17,25.17,0,0,1-1.16,3.6c-.51,1.18-.93,2.25-1.36,3.28-.31.75-.61,1.48-1,2.22s-.7,1.47-1.13,2.26a18.61,18.61,0,0,0-2.23,9.44,19.49,19.49,0,0,0,.46,3.65c.58,2.69,1.59,5.32,2.41,7.93.94,3,1.88,6,2.81,9,0,0,0,0,0,0,.33,1.07.67,2.14,1,3.21.06.19.12.38.17.56a9.31,9.31,0,0,1,.82,2.4c.26.75.51,1.51.76,2.27a69.25,69.25,0,0,1-7.57,1.9,70.14,70.14,0,0,1-13.45,1.3H94.56a71.59,71.59,0,0,1-9.37-.75l-1.26-11.9c-.42-4-.46-8.08-1.26-12a22.81,22.81,0,0,0-1.24-4.26C80,99.27,77.08,96.68,75,93.55a106,106,0,0,1-6-10.16A104.48,104.48,0,0,1,61.83,66.1c-.61-2-1.29-4-1.89-6.11a40,40,0,0,1-1.72-8.75c-.1-1.62.3-2.5,1.42-3.1a.91.91,0,0,1,.14-.07A1.25,1.25,0,0,1,60,48l.12,0h.29l.19,0,.21,0a3.07,3.07,0,0,1,.92.52,7.33,7.33,0,0,1,.76.73,5.79,5.79,0,0,1,.39.44l.37.47.18.26.18.25c.42.62.82,1.26,1.12,1.82l.12.21.11.2c.07.12.13.24.18.34s.15.29.21.41.08.16.11.22.1.2.1.2l3.68,8.1a.82.82,0,0,0,0,.11l.12.32,0,0a1,1,0,0,0,.07.15c0,.06,0,.11.07.17s0,0,0,0a3.23,3.23,0,0,0,.55.89.36.36,0,0,0,.26.15h.06c.49-.17-2-10.07-2-10.07A67.51,67.51,0,0,1,66,45a25.08,25.08,0,0,1-.54-8.53,5.14,5.14,0,0,1,2-3.63l.12-.08,0,0a.65.65,0,0,1,.16-.07l.16,0,.17,0h.28a1.33,1.33,0,0,1,.28,0l.09,0a1.89,1.89,0,0,1,.46.15l.23.12.24.15a3.24,3.24,0,0,1,.51.43,5,5,0,0,1,.52.63,3.3,3.3,0,0,1,.22.3l.29.49c0,.11.11.22.17.34s.23.49.35.77c0,.07.06.14.1.22s.08.23.13.34a.33.33,0,0,0,0,.12c.1.28.21.57.32.89a1.59,1.59,0,0,0,.07.2c.06.21.13.4.2.62s.07.21.11.32.13.39.2.59c0,0,0,0,0,.07.29.9.6,1.9.91,2.94a.19.19,0,0,0,0,.1c.07.23.14.46.2.69,0,0,0,0,0,.05.08.25.16.5.22.75.18.62.37,1.24.55,1.87h0c0,.05,0,.1,0,.16.15.55.32,1.09.47,1.64L76,49.91s0,0,0,0,0,.16.07.25c.15.54.31,1.08.45,1.58,0,.09,0,.18.08.27s.07.23.1.35c.19.65.38,1.27.55,1.83.07.27.16.54.23.78a.25.25,0,0,0,0,.07l0,.15c0,.17.1.31.15.45a.5.5,0,0,0,0,.13c.05.16.1.32.15.46a.88.88,0,0,1,0,.15c.08.22.16.4.22.56a18.9,18.9,0,0,0,1.33,2.71l.06.1.15.22a.19.19,0,0,1,.06.07l0,.05,0,.06a.87.87,0,0,0,.25.23l.08,0s0,0,0,0l.05,0h0a.39.39,0,0,0,.14.05h0s.08-.12.08-.32a48.55,48.55,0,0,0-.91-5.84c-.4-2-.77-3.82-.77-3.82s-.75-2.34-1.54-5.6c-.09-.36-.17-.72-.26-1.1a69.48,69.48,0,0,1-1.42-8.13,23,23,0,0,1,.07-6.25,5.53,5.53,0,0,1,1.46-3.12,2.52,2.52,0,0,1,.72-.5,1.78,1.78,0,0,1,.63-.1m0-.95a2.75,2.75,0,0,0-1,.17h0a3.9,3.9,0,0,0-1,.67,6.39,6.39,0,0,0-1.73,3.64,23.3,23.3,0,0,0-.08,6.51,66.23,66.23,0,0,0,1.44,8.26c.08.37.17.74.26,1.1.74,3.05,1.43,5.27,1.54,5.62s.4,1.91.76,3.76c.15.75.28,1.45.39,2.08l0,0,0-.07c0-.12-.1-.26-.16-.42a1.3,1.3,0,0,1,0-.14l-.15-.44v-.07h0v0l0-.06-.09-.29,0-.13,0-.07h0l0-.14,0-.17-.18-.59-.06-.19c-.15-.51-.32-1.06-.49-1.64,0-.13-.07-.25-.1-.37l0-.12,0-.12c-.15-.51-.3-1-.45-1.59l0-.07,0-.11L76.78,49h-.07l-.42-1.51,0-.12c-.07-.28-.15-.55-.23-.82s-.16-.54-.23-.82v0h0l0-.14c-.1-.36-.2-.71-.31-1.06l-.23-.81c-.06-.21-.13-.44-.2-.66v0l0-.13,0-.13-.17-.56,0-.08v0h0c-.3-1-.59-2-.88-2.87v0l0-.15,0-.15c0-.14-.1-.28-.14-.42v-.06c0-.07,0-.14-.07-.2l0-.08c0-.14-.09-.28-.14-.42l-.06-.2-.05-.13v0l0,0L73,36.68l-.11-.3,0-.05v0l0-.09a2,2,0,0,1-.09-.22l0-.1v0l0-.06-.07-.16c-.13-.29-.24-.56-.37-.81s-.12-.24-.19-.36-.17-.31-.26-.44l0-.09-.07-.1-.2-.28a5.2,5.2,0,0,0-.59-.72,5.14,5.14,0,0,0-.66-.55,2,2,0,0,0-.31-.19,2,2,0,0,0-.32-.17,3.09,3.09,0,0,0-.58-.2h0l-.12,0a2.59,2.59,0,0,0-.47-.05H68l-.2,0h-.08l-.11,0h0l-.07,0a2.56,2.56,0,0,0-.3.13h0l-.06,0-.19.12a6,6,0,0,0-2.37,4.26,25.3,25.3,0,0,0,.54,8.87,68.86,68.86,0,0,0,2.52,9.06c.34,1.33.67,2.73,1,4l-2.09-4.59-.1-.21v0l0,0a.43.43,0,0,1,0-.07l0-.1c-.06-.13-.14-.28-.23-.45l-.17-.33-.07-.11,0-.07,0,0,0,0,0-.05a1,1,0,0,0-.08-.14c-.33-.6-.73-1.25-1.16-1.88l-.19-.27-.17-.24c-.14-.2-.28-.37-.42-.54s-.28-.33-.42-.48a7.93,7.93,0,0,0-.87-.82,4.14,4.14,0,0,0-1.21-.68h-.07l-.15,0h-.15l-.23,0h-.19l-.3,0H60l-.16,0a1.9,1.9,0,0,0-.45.16l-.2.11a3.77,3.77,0,0,0-1.88,4,41.24,41.24,0,0,0,1.76,9c.4,1.4.84,2.79,1.27,4.13.21.68.42,1.34.63,2a106,106,0,0,0,7.18,17.45,104.58,104.58,0,0,0,6.08,10.25c.77,1.15,1.66,2.24,2.51,3.29a22.87,22.87,0,0,1,3.85,5.8,22.31,22.31,0,0,1,1.19,4.09,62.79,62.79,0,0,1,.91,7.87c.09,1.33.19,2.71.33,4.06.21,2,.43,4,.64,6l.63,6,.08.73.73.11a72.66,72.66,0,0,0,9.49.76h1.12a71.19,71.19,0,0,0,21.3-3.25l.92-.28-.3-.92c-.25-.76-.5-1.51-.76-2.27,0-.17-.11-.39-.17-.62a6.55,6.55,0,0,0-.68-1.89c0-.14-.09-.29-.13-.44-.33-1-.65-2-1-3.07v-.08l-.07-.14-1.39-4.42-1.4-4.48c-.24-.74-.49-1.49-.74-2.24a55.43,55.43,0,0,1-1.66-5.61,19.33,19.33,0,0,1-.43-3.47,17.59,17.59,0,0,1,2.11-9c.41-.74.79-1.5,1.16-2.31s.73-1.65,1-2.26l.28-.69c.34-.82.68-1.66,1.07-2.57A26.58,26.58,0,0,0,116,79c.48-1.88.89-3.75,1.21-5.59.15-.88.25-1.78.34-2.64.11-1,.22-2,.41-2.93a28.6,28.6,0,0,1,2.74-7.14c.34-.66.69-1.29,1-1.93.15-.27.32-.54.5-.82a8.19,8.19,0,0,0,1.12-2.32l0-.11,0-.11h0V55.3a5.44,5.44,0,0,0,0-.73V54.5c0-.09,0-.14,0-.2v-.08s0-.07,0-.11l0-.09a2.63,2.63,0,0,0-.22-.65,3.46,3.46,0,0,0-1.91-1.62,6.9,6.9,0,0,0-2.44-.43,6.37,6.37,0,0,0-1.17.1,2.12,2.12,0,0,0-.41.08c-2.33.55-4.43,2.19-6.44,5a40.64,40.64,0,0,0-3.33,5.65l-.27.57a19.28,19.28,0,0,1-1,2l-.06-.07-.09-.11-.1-.12a9,9,0,0,1-.68-1.09l0,0v0l0,0a3.18,3.18,0,0,1-.16-.32v-.05s0-.1-.08-.16l-.05-.14-.06-.13-.1-.27a1.3,1.3,0,0,0-.06-.19,2.58,2.58,0,0,1-.08-.26h0a.19.19,0,0,0,0-.07v0a1.66,1.66,0,0,0-.06-.21s0,0,0-.06l0-.06v-.05l-.06-.19-.06-.22c0-.11-.06-.25-.09-.4l-.12-.47,0-.2-.05-.23c-.4-1.71-.78-3.25-1.14-4.7-.45-1.83-1-3.76-1.6-6.08l-.31-1.13-.2-.71v0a.56.56,0,0,1,0-.12c-.24-.85-.48-1.69-.73-2.52a1.5,1.5,0,0,0-.06-.22c-.13-.46-.27-.91-.41-1.36a.75.75,0,0,0,0-.15l-.24-.8L99,41v0l0-.12a.19.19,0,0,1,0-.07c0-.09-.06-.22-.11-.39v0l0,0a.74.74,0,0,0,0-.14,2.17,2.17,0,0,0-.08-.3l0-.07a1.83,1.83,0,0,0-.06-.19c-.07-.27-.17-.57-.27-.9a1,1,0,0,1,0-.13.32.32,0,0,1,0-.09v0l0,0-.12-.38V38c-.06-.18-.13-.37-.2-.55l0-.06,0-.05,0-.1a3.25,3.25,0,0,0-.15-.4.93.93,0,0,0,0-.1v-.21l-.15-.15c0-.14-.11-.28-.17-.42v0l-.09-.21c-.07-.13-.12-.26-.18-.39l-.14-.3-.15-.31h0l-.12-.22,0-.11-.09-.17-.06-.12-.1-.16c-.14-.26-.3-.54-.48-.81l-.1-.15-.08-.11,0,0,0-.05,0-.07v0l0,0c-.09-.13-.19-.25-.28-.37l0-.06-.35-.38v-.12l-.41-.26-.08-.06-.07-.06-.05,0L94,31.08h-.11l0,0h0l0,0h0l0,0,0,0-.08,0-.17-.08h-.07l-.09,0a2.73,2.73,0,0,0-.59-.15,1.86,1.86,0,0,0-.26,0h-.26l-.28,0h-.16l-.12,0a2.84,2.84,0,0,0-.44.15,3.07,3.07,0,0,0-.59.34,5,5,0,0,0-1.65,3.28A16.81,16.81,0,0,0,88.7,37c0,.72,0,1.4,0,2a58.11,58.11,0,0,0,1.09,8.06c0,.19.23,1.45.43,3,.11.86.27,2.17.39,3.53,0,.61.09,1.25.1,1.9v.13l-.06-.13a10.23,10.23,0,0,1-.32-1l0-.14v0a1.08,1.08,0,0,0,0-.17s0,0,0-.07l0,0,0-.06v0c0-.17-.11-.4-.19-.7v-.84h-.23v0c-.13-.45-.27-1-.42-1.54l-.07-.25h0v-.05c0-.13-.07-.26-.1-.4V50a1.58,1.58,0,0,1-.09-.31c-.15-.53-.3-1.09-.46-1.66l-.18-.64c0-.09,0-.15-.06-.22L88.32,47c0-.12-.07-.25-.11-.38a2.76,2.76,0,0,0-.08-.27h0l0-.13c-.08-.26-.15-.53-.23-.81s-.13-.48-.2-.72l-.1-.36-.1-.37c0-.13-.07-.26-.11-.39a2.46,2.46,0,0,0-.09-.34l-.13-.47-.06-.23L87,42.2c0-.1,0-.19-.08-.29l0-.19v-.06l0-.08c0-.12-.08-.29-.12-.45l-.12-.42c-.11-.39-.22-.77-.32-1.15l-.09-.32,0-.14,0-.13L86,38.75,86,38.51,85.83,38h0l0-.05-.19-.68c-.14-.52-.29-1-.43-1.52l-.39-1.34-.22-.75c-.11-.41-.23-.8-.33-1.17v-.81H84l-.07-.23,0-.1,0-.11L83.78,31c0-.12-.07-.23-.1-.33a12,12,0,0,0-2-4.1A4.36,4.36,0,0,0,79,24.82l-.47,0Z"/><path class="cls-7" d="M94.47,131.7,85.19,131l-1.26-11.9c-.42-4-.46-8.08-1.26-12a22.81,22.81,0,0,0-1.24-4.26C80,99.27,77.08,96.68,75,93.55a106,106,0,0,1-6-10.16A104.48,104.48,0,0,1,61.83,66.1a94.39,94.39,0,0,1-3.47-13.21,7,7,0,0,1,0-3.08,2.57,2.57,0,0,1,2.18-1.94,7.32,7.32,0,0,0,2.13,10.31,1.25,1.25,0,0,0-1.15,1.21A3.6,3.6,0,0,0,62,61.15c1.2,2.64,1.62,6.26,5.17,5.13-2.86,2-2,3.65-.75,6.37,3.16,7.22,5.93,17,12.48,21.95,5.42,4.09,11,4.5,17.41,5.3-1.54-.19-5.56,2.63-6.66,3.65a10.94,10.94,0,0,0-2.94,6.33,33.44,33.44,0,0,0,.8,12.68C88.49,126.4,90.85,130.09,94.47,131.7Z"/><g class="cls-9"><path class="cls-7" d="M91.88,77.38a19,19,0,0,0-3.7,8.53,42.77,42.77,0,0,0-.26,8.47,19.4,19.4,0,0,1-1.14-13.06c.4-1.5,2.38-5.76-.25-6.36a3.57,3.57,0,0,0-1.42.06A42,42,0,0,0,72.8,79.53c.39-.22.85-1.06,1.16-1.4a29.21,29.21,0,0,1,5-4.39,30.45,30.45,0,0,1,7.92-3.91,28.26,28.26,0,0,1,13.22-1.19c1.19.2,1.06.59.28,1.41-1.46,1.54-3.41,2.43-5,3.77A21.2,21.2,0,0,0,91.88,77.38Z"/></g><path class="cls-7" d="M78.18,62.09a37.74,37.74,0,0,1-7.53,2.55c-.06-.2-.12-.4-.19-.6h0c.49-.17-2-10.07-2-10.07A67.51,67.51,0,0,1,66,45a25.08,25.08,0,0,1-.54-8.53,5.14,5.14,0,0,1,2-3.63l.12-.08,0,0a.65.65,0,0,1,.16-.07l.16,0,.17,0a4,4,0,0,1-.34.47,7,7,0,0,0-1.31,4.78,26.4,26.4,0,0,0,.94,4.32c.1.41.06.81.38,1.1s1.3.52,1.65.21a3.63,3.63,0,0,0-1,2.86,10.68,10.68,0,0,0,.75,3l.54,1.53a3.45,3.45,0,0,0,.69,1.33,1.17,1.17,0,0,0,1.37.32c0,.35-.42.49-.63.77-.33.44-.16,1.35-.14,1.86a13,13,0,0,0,.26,2.16,12.45,12.45,0,0,0,1.62,4,2.14,2.14,0,0,0,.54.62,2,2,0,0,0,1,.22A26.17,26.17,0,0,0,78.18,62.09Z"/><path class="cls-7" d="M88.21,59.27l-2.54.83a13.07,13.07,0,0,1-4.34.88,1.49,1.49,0,0,1-.81-.19.75.75,0,0,1-.25-.32.39.39,0,0,0,.14.05c.06,0,.09-.11.09-.32a48.55,48.55,0,0,0-.91-5.84c-.4-2-.77-3.82-.77-3.82s-.75-2.34-1.54-5.6c-.09-.36-.17-.72-.26-1.1a69.48,69.48,0,0,1-1.42-8.13,23,23,0,0,1,.07-6.25,5.53,5.53,0,0,1,1.46-3.12,4.74,4.74,0,0,0-.4.93,10,10,0,0,0-.34,3.54,18.56,18.56,0,0,0,.64,4.7,2.74,2.74,0,0,0,.35.78c.61.81,1.86.69,2.86.47-.9.51-1.91,1.13-2.11,2.16a3.89,3.89,0,0,0,.33,2A31.26,31.26,0,0,1,80,48.07a.89.89,0,0,0,.15.49.82.82,0,0,0,.59.19c.67,0,1.32.09,2,.12a2.17,2.17,0,0,0-1.66,1.68,6.28,6.28,0,0,0,0,2.48c.3,2.08.45,4.71,2.68,5.62A14.73,14.73,0,0,0,88.21,59.27Z"/><path class="cls-7" d="M98.89,56.36c-.07.55-.74.76-1.29.84l-4.37.72a2.82,2.82,0,0,1-1.68-.09,1.17,1.17,0,0,1-.25-.16h0c.31-.07.4-1,.37-2.18,0-.58,0-1.26-.11-2-.1-1.2-.24-2.46-.39-3.57-.22-1.73-.43-3.06-.43-3.06A56,56,0,0,1,89.69,39c0-.67,0-1.34,0-2a15.67,15.67,0,0,1,.22-2.38,4.11,4.11,0,0,1,1.3-2.69,1.71,1.71,0,0,1,.4-.22,1.42,1.42,0,0,1,.29-.1h0A3.91,3.91,0,0,0,91,33.12a7.32,7.32,0,0,0-.14,3.42,3.37,3.37,0,0,0,.87,2.13,3.77,3.77,0,0,0,2.69.62l-1.83.78a1.18,1.18,0,0,0-.49.33,1.07,1.07,0,0,0-.16.59,36.48,36.48,0,0,0,0,4,3.69,3.69,0,0,0,.82,2.56,3.25,3.25,0,0,0,2.63.69c-.28.58-1.14.56-1.67.94a2.21,2.21,0,0,0-.55,2.14,15.21,15.21,0,0,0,.51,2.52,3.1,3.1,0,0,0,.56,1.22,2.87,2.87,0,0,0,1.07.71A7.4,7.4,0,0,0,98.89,56.36Z"/><path class="cls-7" d="M117.79,52.52a19.69,19.69,0,0,0-4.26,4.29,6.53,6.53,0,0,0-.87,5.79,2.13,2.13,0,0,0-2.18.5A6.34,6.34,0,0,0,109.15,65a26.67,26.67,0,0,0-3,7.52c0-2.13,0-4.27-.07-6.39,0,0,0,0,0,0l0,0a16.16,16.16,0,0,0,2.09-3.67,37.23,37.23,0,0,1,3.25-5.51c1.44-2,3.35-4,5.87-4.63l.36-.07Z"/></g><path class="cls-8" d="M65.9,129.41a63.77,63.77,0,1,1,63.77-63.76A63.83,63.83,0,0,1,65.9,129.41Zm0-124.68a60.92,60.92,0,1,0,60.92,60.92A61,61,0,0,0,65.9,4.73Z"/><g class="cls-6"><path class="cls-7" d="M68.17,84.12a7.75,7.75,0,0,0-5.7-7.46A5,5,0,0,0,62.78,75a5.14,5.14,0,0,0-5.15-5.15,5,5,0,0,0-2.49.67A8.25,8.25,0,0,0,39.37,73.9,8.34,8.34,0,0,0,39.46,75a4.33,4.33,0,0,0-7.75,2.67A4.28,4.28,0,0,0,33.27,81a6.64,6.64,0,0,0,7.31,11,4.71,4.71,0,0,0,4.35,2.91,4.63,4.63,0,0,0,2.19-.56,5.11,5.11,0,0,0,9.2.29,4.73,4.73,0,0,0,.93.09,4.54,4.54,0,0,0,4.24-3A7.73,7.73,0,0,0,68.17,84.12Z"/></g><g class="cls-6"><path class="cls-7" d="M97.09,69a5.71,5.71,0,0,0-4.21-5.52,3.75,3.75,0,0,0,.23-1.26,3.82,3.82,0,0,0-3.81-3.81,3.74,3.74,0,0,0-1.85.5,6.11,6.11,0,0,0-11.67,2.53,7.54,7.54,0,0,0,.06.83,3.2,3.2,0,1,0-4.58,4.42,4.91,4.91,0,0,0,5.41,8.14A3.49,3.49,0,0,0,79.9,77a3.38,3.38,0,0,0,1.61-.42,3.79,3.79,0,0,0,6.82.21,3.08,3.08,0,0,0,.68.08,3.35,3.35,0,0,0,3.14-2.19A5.72,5.72,0,0,0,97.09,69Z"/></g><g class="cls-3"><circle class="cls-4" cx="268.31" cy="69.21" r="62.34" transform="translate(140.82 315.23) rotate(-77.07)"/></g><g class="cls-3"><circle class="cls-4" cx="271.87" cy="65.65" r="62.34"/></g><rect class="cls-4" x="265.11" y="33.66" width="7.64" height="7.36"/><path class="cls-8" d="M272.28,34.13v6.41h-6.69V34.13h6.69m1-1h-8.59v8.31h8.59V33.18Z"/><path class="cls-7" d="M268,36a2.2,2.2,0,0,0-.24,1.11,3.48,3.48,0,0,0,.12,1.2,1.36,1.36,0,0,0,.78.87,1.93,1.93,0,0,0,.68.1l2.9,0v1.21h-6.69V34.13h6.69v.34a12.53,12.53,0,0,0-3.57.94A1.82,1.82,0,0,0,268,36Z"/><g class="cls-3"><path class="cls-4" d="M261.92,34.59a3,3,0,0,1-3-3,2.94,2.94,0,0,1,1.84-2.73,3,3,0,0,1,1.12-.22h32.57a5.45,5.45,0,0,1,4.93,3.14,5.31,5.31,0,0,1,.52,2.3v.48Z"/><path class="cls-8" d="M294.49,29.14A5,5,0,0,1,299,32a4.79,4.79,0,0,1,.47,2.1H261.92a2.49,2.49,0,0,1-1.76-4.24,2.54,2.54,0,0,1,.82-.54,2.39,2.39,0,0,1,.94-.19h32.57m0-.95H261.92a3.37,3.37,0,0,0-1.31.26,3.55,3.55,0,0,0-1.12.75,3.4,3.4,0,0,0-1,2.42,3.43,3.43,0,0,0,3.43,3.44h38.49v-1a5.7,5.7,0,0,0-.57-2.51,5.91,5.91,0,0,0-5.35-3.41Z"/></g><path class="cls-4" d="M261.92,34.59a3,3,0,0,1-3-3,2.94,2.94,0,0,1,1.84-2.73,3,3,0,0,1,1.12-.22h32.57a5.45,5.45,0,0,1,4.93,3.14,5.31,5.31,0,0,1,.52,2.3v.48Z"/><path class="cls-8" d="M294.49,29.14A5,5,0,0,1,299,32a4.79,4.79,0,0,1,.47,2.1H261.92a2.49,2.49,0,0,1-1.76-4.24,2.54,2.54,0,0,1,.82-.54,2.39,2.39,0,0,1,.94-.19h32.57m0-.95H261.92a3.37,3.37,0,0,0-1.31.26,3.55,3.55,0,0,0-1.12.75,3.4,3.4,0,0,0-1,2.42,3.43,3.43,0,0,0,3.43,3.44h38.49v-1a5.7,5.7,0,0,0-.57-2.51,5.91,5.91,0,0,0-5.35-3.41Z"/><path class="cls-7" d="M299.46,34.11H261.92a2.49,2.49,0,0,1-1.76-4.24,2.54,2.54,0,0,1,.82-.54.57.57,0,0,0,0,.14,1.76,1.76,0,0,0,1,2,3.79,3.79,0,0,0,1.16.17c9.5.31,14,.48,23.48.44,3.62,0,7.25,0,10.87-.13.5,0,1,0,1.52,0A4.79,4.79,0,0,1,299.46,34.11Z"/><path class="cls-4" d="M259,48.08V43.41A3.31,3.31,0,0,1,260,41a2.49,2.49,0,0,1,.72-.53,3,3,0,0,1,1.45-.42h13.43a.93.93,0,0,1,.24,0,3,3,0,0,1,1.4.41,3.22,3.22,0,0,1,.71.54,3.3,3.3,0,0,1,1,2.37v4.67Z"/><path class="cls-8" d="M275.57,40.54h.15a2.76,2.76,0,0,1,1.25.36,3.05,3.05,0,0,1,.61.46,2.86,2.86,0,0,1,.86,2v4.2h-19v-4.2a2.86,2.86,0,0,1,.86-2,2.42,2.42,0,0,1,.6-.45,2.68,2.68,0,0,1,1.25-.37h13.42m0-.95H262.3a1.15,1.15,0,0,0-.24,0,3.55,3.55,0,0,0-1.61.48,3.3,3.3,0,0,0-.84.63,3.72,3.72,0,0,0-1.12,2.69v5.14h20.9V43.41a3.79,3.79,0,0,0-1.15-2.72,3.6,3.6,0,0,0-.79-.6,3.67,3.67,0,0,0-1.64-.48,1.15,1.15,0,0,0-.24,0Z"/><path class="cls-7" d="M278.44,45.7v1.91h-19v-4.2a2.86,2.86,0,0,1,.86-2,2.42,2.42,0,0,1,.6-.45,2.68,2.68,0,0,1,1.25-.37h.19a15.69,15.69,0,0,0,.23,2.9,2.3,2.3,0,0,0,.51,1.29,2.42,2.42,0,0,0,1.48.59C269.13,46,273.81,45.52,278.44,45.7Z"/><path class="cls-4" d="M254.15,55.13V50.68a3.57,3.57,0,0,1,3.56-3.56h22.46a3.57,3.57,0,0,1,3.56,3.56v4.45Z"/><path class="cls-8" d="M280.17,47.6a3.08,3.08,0,0,1,3.08,3.08v4H254.62v-4a3.08,3.08,0,0,1,3.09-3.08h22.46m0-1H257.71a4,4,0,0,0-4,4v4.93H284.2V50.68a4,4,0,0,0-4-4Z"/><path class="cls-7" d="M283.25,52.87v1.79H254.62v-4a3.08,3.08,0,0,1,3.09-3.08h.11l-.21,2a3.13,3.13,0,0,0,0,1.22c.31,1.12,1.65,1.56,2.81,1.71a35.7,35.7,0,0,0,4.27.17l14.91-.05A21.85,21.85,0,0,1,283.25,52.87Z"/><g class="cls-10"><g class="cls-11"><path class="cls-4" d="M246.58,153.76c-4.28,0-7.76-3.92-7.76-8.74V71c0-9.26,6.66-16.79,14.85-16.79H284.2c8.19,0,14.86,7.53,14.86,16.8v74c0,4.82-3.49,8.74-7.77,8.74Z"/><path class="cls-8" d="M284.2,54.65c7.94,0,14.38,7.31,14.38,16.33v74c0,4.57-3.26,8.27-7.29,8.27H246.58c-4,0-7.29-3.7-7.29-8.27V71c0-9,6.44-16.32,14.38-16.32H284.2m0-.94H253.67c-8.45,0-15.33,7.74-15.33,17.26V145c0,5.08,3.7,9.22,8.24,9.22h44.71c4.55,0,8.24-4.14,8.24-9.22V71c0-9.53-6.88-17.27-15.33-17.27Z"/><path class="cls-7" d="M262.64,57.08c-1.7-.63-3.89-.29-5.67-.28a18.12,18.12,0,0,0-9.1,2.22,11.33,11.33,0,0,0-5.58,8.18c-.24,1.37-.12,2.73-.27,4.09,0,.38-.18.74-.21,1.12s.23,1.08.12,1.52a38.55,38.55,0,0,1,2.55-7.83,13.12,13.12,0,0,1,5.47-6,19.54,19.54,0,0,1,5.49-1.57l5-.92A12.6,12.6,0,0,0,262.64,57.08Z"/></g><path class="cls-12" d="M298.69,35.06h-4.81a.76.76,0,0,1-.77-.77v-.18h6.35v.18A.76.76,0,0,1,298.69,35.06Z"/><rect class="cls-8" x="268.38" y="54.94" width="1.11" height="29.65"/><path class="cls-7" d="M246.58,149.87a4.59,4.59,0,0,1-4.27-4.85V84.59h53.26V145a4.6,4.6,0,0,1-4.28,4.85Z"/><g class="cls-3"><rect class="cls-4" x="289.35" y="60.5" width="2.85" height="85.09" rx="1.15" ry="1.15"/></g><rect class="cls-8" x="268.38" y="84.59" width="1.11" height="34.42"/></g><path class="cls-8" d="M271.87,129.41a63.77,63.77,0,1,1,63.77-63.76A63.83,63.83,0,0,1,271.87,129.41Zm0-124.68a60.92,60.92,0,1,0,60.92,60.92A61,61,0,0,0,271.87,4.73Z"/><g class="cls-3"><circle class="cls-4" cx="474.28" cy="69.21" r="62.34" transform="translate(89.98 355.64) rotate(-45)"/></g><g class="cls-3"><circle class="cls-4" cx="477.84" cy="65.65" r="62.34"/></g><g class="cls-13"><path class="cls-4" d="M498.1,119.19V82a19.08,19.08,0,0,1,13.63-18.22,11.8,11.8,0,0,1,4.59-22.38l.61,0a11.8,11.8,0,0,1,5.93,22l-.61.34A19,19,0,0,1,536.06,82v37.18Z"/><path class="cls-8" d="M516.93,41.86a11.35,11.35,0,0,1,3.82,22l.32.06A18.52,18.52,0,0,1,535.59,82v36.7h-37V82A18.51,18.51,0,0,1,513.23,63.9a11.33,11.33,0,0,1,3.12-22l.58,0m0-.94h-.62a12.28,12.28,0,0,0-5.77,22.75A19.56,19.56,0,0,0,497.62,82v37.65h38.92V82a19.48,19.48,0,0,0-13.11-18.4,12.27,12.27,0,0,0-6.5-22.69Z"/><path class="cls-7" d="M527.3,56.91a12.59,12.59,0,0,1-7.75,7.49c-2.16.72-6.56.21-6.61,3.48a18.64,18.64,0,0,0,.23,2.11,9.93,9.93,0,0,1-1.32,5.32c-.44.73-1.11,1.31-1.53,2.07-1.33,2.41.43,3.73,2.09,5.28,4.87,4.57,5.14,11.06,3.12,17-.77,2.3-1.76,4.53-2.64,6.79-.68,1.77-1.52,3.57-1,5.48s.75,4.15,2.06,5.52c1,1.07,2.83,1.21,4.25,1.21H498.57V82c0-7.53,4.82-14.81,12-17.23l2.63-.89a11.3,11.3,0,0,1,3.14-22,11.49,11.49,0,0,0-6.95,9.62,9.26,9.26,0,0,0,12.83,9.3A11.94,11.94,0,0,0,527.3,56.91Z"/><path class="cls-4" d="M461.08,119.19V82a19.08,19.08,0,0,1,13.63-18.22,11.8,11.8,0,0,1,4.6-22.38l.6,0a11.8,11.8,0,0,1,5.93,22l-.61.34A19,19,0,0,1,499.05,82v37.18Z"/><path class="cls-8" d="M479.91,41.86a11.35,11.35,0,0,1,3.83,22l.31.06A18.52,18.52,0,0,1,498.57,82v36.7h-37V82A18.52,18.52,0,0,1,476.21,63.9a11.33,11.33,0,0,1,3.12-22l.58,0m0-.94h-.62a12.28,12.28,0,0,0-5.77,22.75A19.55,19.55,0,0,0,460.61,82v37.65h38.91V82a19.48,19.48,0,0,0-13.11-18.4,12.27,12.27,0,0,0-6.5-22.69Z"/><path class="cls-7" d="M490.29,56.91a12.6,12.6,0,0,1-7.76,7.49c-2.47.83-5.26.92-7.51,2.36a5.19,5.19,0,0,0-2.28,3,11.07,11.07,0,0,1-2.13,5,4.87,4.87,0,0,0-1.29,1.94,3.36,3.36,0,0,0,.42,2.09A13.35,13.35,0,0,0,471,81a4.53,4.53,0,0,0-3.61-.08c-1.65.71-2.08,2.12-2,3.74.12,2.14-.09,20.23.14,22.39s.47,4.32,1.78,6.1c2.22,3,6.07,4.44,9.63,5,1.38.23,2.77.38,4.17.52H461.55V82c0-7.53,4.82-14.81,12-17.23l2.63-.89a11.3,11.3,0,0,1,3.14-22,11.49,11.49,0,0,0-6.94,9.62,9.25,9.25,0,0,0,12.83,9.3A12.06,12.06,0,0,0,490.29,56.91Z"/><path class="cls-4" d="M424.06,119.19V82a19.1,19.1,0,0,1,13.63-18.22,11.8,11.8,0,0,1,4.6-22.38l.61,0a11.81,11.81,0,0,1,5.93,22c-.2.12-.41.23-.62.34A19,19,0,0,1,462,82v37.18Z"/><path class="cls-8" d="M442.9,41.86a11.35,11.35,0,0,1,3.82,22l.31.06A18.52,18.52,0,0,1,461.55,82v36.7h-37V82A18.51,18.51,0,0,1,439.19,63.9a11.33,11.33,0,0,1,3.12-22l.59,0m0-.94h-.62a12.28,12.28,0,0,0-5.78,22.75A19.57,19.57,0,0,0,423.59,82v37.65H462.5V82a19.49,19.49,0,0,0-13.1-18.4,12.27,12.27,0,0,0-6.5-22.69Z"/><path class="cls-7" d="M453.27,56.91a12.61,12.61,0,0,1-7.75,7.49c-1.57.52-3.27.53-4.81,1.12A14,14,0,0,0,437,68a24,24,0,0,0-7.88,12.58c-1,4.3-.66,8.84-.67,13.22s-.37,8.93.11,13.28c.23,2.16.46,4.32,1.78,6.1,2.21,3,6.06,4.44,9.62,5,1.38.23,2.78.38,4.18.52H424.54V82c0-7.53,4.81-14.81,12-17.23l2.63-.89a11.3,11.3,0,0,1,3.14-22,11.49,11.49,0,0,0-6.95,9.62,9.25,9.25,0,0,0,12.83,9.3A12.06,12.06,0,0,0,453.27,56.91Z"/><path class="cls-4" d="M439,127.85V98a19.06,19.06,0,0,1,13.63-18.21,11.81,11.81,0,0,1,4.59-22.39l.61,0a11.81,11.81,0,0,1,5.93,22c-.2.12-.4.24-.61.34A19,19,0,0,1,476.92,98v29.89Z"/><path class="cls-8" d="M457.79,57.82a11.33,11.33,0,0,1,5.69,21.12,10,10,0,0,1-1.87.88l.32.07A18.52,18.52,0,0,1,476.45,98v29.42h-37V98a18.5,18.5,0,0,1,14.66-18.1,11.33,11.33,0,0,1,3.12-22h.58m0-1-.62,0a12.28,12.28,0,0,0-5.77,22.75A19.55,19.55,0,0,0,438.48,98v30.37H477.4V98a19.45,19.45,0,0,0-13.11-18.39,12.28,12.28,0,0,0-6.5-22.7Z"/><path class="cls-7" d="M468.17,72.87a20.56,20.56,0,0,1-2.09,3.61,13.54,13.54,0,0,1-4,3.24,20.67,20.67,0,0,1-4.58,1.3,22.12,22.12,0,0,0-4.39,1.65,17.78,17.78,0,0,0-7.81,7.08c-1.74,3.16-1.64,6.64-1.94,10.11-.21,2.39-.18,13.47.08,15.86.24,2.15.46,4.31,1.78,6.1,2.22,3,6.07,4.43,9.63,5,1.37.24,2.77.39,4.17.53H439.43V98a18.5,18.5,0,0,1,14.66-18.1,11.33,11.33,0,0,1,3.12-22c-3.35,2.06-6.29,4.41-6.89,8.55-.69,4.72,2.32,10,7.16,10.94A10.91,10.91,0,0,0,468.17,72.87Z"/><path class="cls-4" d="M479.59,127.85V98a19.06,19.06,0,0,1,13.63-18.21,11.81,11.81,0,0,1,4.59-22.39l.61,0a11.8,11.8,0,0,1,5.93,22c-.2.12-.4.24-.61.34A19,19,0,0,1,517.56,98v29.89Z"/><path class="cls-8" d="M498.42,57.82a11.33,11.33,0,0,1,5.69,21.12,10,10,0,0,1-1.87.88l.32.07A18.52,18.52,0,0,1,517.08,98v29.42h-37V98a18.51,18.51,0,0,1,14.66-18.1,11.33,11.33,0,0,1,3.12-22h.58m0-1-.62,0A12.28,12.28,0,0,0,492,79.64,19.55,19.55,0,0,0,479.11,98v30.37H518V98a19.45,19.45,0,0,0-13.11-18.39,12.28,12.28,0,0,0-6.5-22.7Z"/><path class="cls-7" d="M508.79,72.87A12.57,12.57,0,0,1,501,80.35c-1.63.55-3.35.77-5,1.26a8.2,8.2,0,0,0-3.58,1.73,4.13,4.13,0,0,0-.93,2.86,7,7,0,0,1-1.25,3.38,18.3,18.3,0,0,0-2,3.37c-.4,1.16.48,2.47,1.19,3.34a16,16,0,0,0,2.17,2.19,7,7,0,0,0-5,1c-3,2-2.67,5.42-2.68,8.58a70.62,70.62,0,0,0,.11,7.7c.24,2.15.47,4.31,1.78,6.1,2.22,3,6.07,4.43,9.63,5,1.37.24,2.77.39,4.17.53H480.06V98c0-7.53,4.82-14.81,12-17.23l2.63-.88a11.31,11.31,0,0,1,3.14-22,11.48,11.48,0,0,0-6.94,9.63,9.24,9.24,0,0,0,12.83,9.29A12,12,0,0,0,508.79,72.87Z"/><path class="cls-4" d="M459.27,132.65V111.42A19.08,19.08,0,0,1,472.9,93.21a11.8,11.8,0,0,1,4.6-22.39h.61a11.81,11.81,0,0,1,5.93,22c-.2.11-.41.23-.62.33a19,19,0,0,1,13.82,18.27v21.23Z"/><path class="cls-8" d="M478.11,71.28a11.33,11.33,0,0,1,5.69,21.13,10.6,10.6,0,0,1-1.87.87l.31.07a18.52,18.52,0,0,1,14.52,18.07v20.75h-37V111.42a18.5,18.5,0,0,1,14.65-18.1,11.33,11.33,0,0,1,3.12-22h.59m0-1-.62,0a12.28,12.28,0,0,0-5.78,22.75,19.55,19.55,0,0,0-12.91,18.32v21.7h38.91v-21.7A19.46,19.46,0,0,0,484.61,93a12.28,12.28,0,0,0-6.5-22.7Z"/><path class="cls-7" d="M488.48,86.33A20.33,20.33,0,0,1,486.4,90a13.8,13.8,0,0,1-4,3.23,20.75,20.75,0,0,1-4.59,1.3,22.27,22.27,0,0,0-4.38,1.65,17.86,17.86,0,0,0-7.82,7.08c-1.74,3.16-1.63,6.64-1.93,10.11a36.75,36.75,0,0,0,.08,7.19c.23,2.16.46,4.32,1.78,6.11,2.21,3,6.06,4.43,9.62,5,1.38.23,2.78.38,4.18.52H459.75V111.42a18.5,18.5,0,0,1,14.65-18.1,11.33,11.33,0,0,1,3.12-22c-3.34,2.06-6.29,4.41-6.89,8.55-.68,4.72,2.33,10,7.17,10.94A10.89,10.89,0,0,0,488.48,86.33Z"/><g class="cls-14"><rect class="cls-15" x="469.93" y="-19.28" width="15.83" height="169.85" transform="translate(93.54 357.12) rotate(-45)"/></g><g class="cls-9"><polygon class="cls-15" points="534.14 129.44 532.3 131.29 412.2 11.2 414.05 9.34 534.14 129.44"/></g></g><path class="cls-8" d="M477.84,129.41a63.77,63.77,0,1,1,63.77-63.76A63.83,63.83,0,0,1,477.84,129.41Zm0-124.68a60.92,60.92,0,1,0,60.92,60.92A61,61,0,0,0,477.84,4.73Z"/><g class="cls-3"><circle class="cls-4" cx="474.28" cy="228.62" r="62.34" transform="translate(-22.74 402.33) rotate(-45)"/></g><g class="cls-3"><circle class="cls-4" cx="477.84" cy="225.06" r="62.34" transform="translate(180.5 661.6) rotate(-80.96)"/></g><g class="cls-16"><rect class="cls-4" x="451.57" y="177.57" width="13.49" height="17.06"/><path class="cls-8" d="M464.59,178v16.11H452V178h12.55m1-.94H451.09v18h14.45v-18Z"/><path class="cls-7" d="M464.59,192.08v2.07H452V178h3.54c-.07,3.26-.07,6.54,0,9.79a4.58,4.58,0,0,0,.12,1.16,3.11,3.11,0,0,0,2.07,1.95,9.41,9.41,0,0,0,2.95.31c.71,0,1.44,0,2.14,0a2,2,0,0,1,1.56.47A.81.81,0,0,1,464.59,192.08Z"/><polygon class="cls-4" points="464.11 194.63 464.11 177.54 488.61 179.15 505.39 184.1 505.39 194.63 464.11 194.63"/><path class="cls-8" d="M464.59,178l4.29.29,19.64,1.29,16.39,4.84v9.69H464.59V178m-.95-1V195.1h42.22V183.75l-.68-.2-16.39-4.84-.1,0h-.1l-19.65-1.3-4.29-.28-1-.07Z"/><path class="cls-7" d="M504.91,192.55v1.6H464.59V178l4.29.29c0,2.52-.19,5,.76,7.36a1.62,1.62,0,0,0,.47.73,1.81,1.81,0,0,0,.85.26,11.68,11.68,0,0,0,4.12-.92,19.35,19.35,0,0,1,16,2.14c1.27.8,2.45,1.77,3.77,2.5C497.86,192.12,501.38,192.52,504.91,192.55Z"/><path class="cls-4" d="M469.37,208.68V195.07a6.8,6.8,0,0,1,6.44-6.82,2,2,0,0,1,.38,0H481a6.85,6.85,0,0,1,6.85,6.84v13.61Z"/><path class="cls-8" d="M481,188.7a6.37,6.37,0,0,1,6.37,6.37V208.2H469.85V195.07a6.32,6.32,0,0,1,6-6.34,1.38,1.38,0,0,1,.35,0H481m0-.95h-4.76a2.64,2.64,0,0,0-.46,0,7.27,7.27,0,0,0-6.83,7.29v14.08h19.37V195.07a7.33,7.33,0,0,0-7.32-7.32Z"/><path class="cls-7" d="M487.32,205v3.21H469.85V195.07a6.32,6.32,0,0,1,6-6.34c-1,1.6-1.11,3.72-1.11,5.68,0,3.94,0,4-.05,8a2.82,2.82,0,0,0,.43,1.81,2.69,2.69,0,0,0,2.19.69C480.65,205,484,205,487.32,205Z"/><path class="cls-4" d="M454.54,211.65a3.18,3.18,0,0,1-1.54-.39l-.55-.31a3.21,3.21,0,0,1,.25-5.74,2.35,2.35,0,0,0,1.07-1l7.28-13.61a4,4,0,0,1,2.06-1.38.79.79,0,0,1,.3,0h0l.15,0,.51,0a4.51,4.51,0,0,1,1.82.44c.17.1.29.19.42.28l.13.1a3.61,3.61,0,0,1,1.15,1.47,3.84,3.84,0,0,1,.32,1.55,3.78,3.78,0,0,1-.84,2.38l-.49.73-.3.47-9.06,13.72-.05.06a2.71,2.71,0,0,1-.53.57A3.21,3.21,0,0,1,454.54,211.65Z"/><path class="cls-8" d="M464.1,189.55a4.11,4.11,0,0,1,1.62.4,5,5,0,0,1,.47.33,3.26,3.26,0,0,1,1,1.27,3.39,3.39,0,0,1,.28,1.37,3.26,3.26,0,0,1-.73,2.08l-.3.45-.21.31-.31.49-9,13.67,0,0a2.57,2.57,0,0,1-.47.52,2.79,2.79,0,0,1-1.84.71,2.67,2.67,0,0,1-1.31-.34l-.54-.3a2.73,2.73,0,0,1,.21-4.9,2.84,2.84,0,0,0,1.29-1.23l7.28-13.61a3.5,3.5,0,0,1,1.8-1.15.25.25,0,0,1,.14,0l.25,0a3,3,0,0,1,.44,0m0-1c-.18,0-.35,0-.52,0h-.05l-.19,0h0a1.13,1.13,0,0,0-.36.07,4.37,4.37,0,0,0-2.22,1.45l-.06.07-.05.08L453.36,204a2,2,0,0,1-.87.81,3.67,3.67,0,0,0-2.17,3.15,3.61,3.61,0,0,0,1.91,3.44l.53.3a3.68,3.68,0,0,0,4.23-.47,3,3,0,0,0,.58-.63l0,0,.08-.1,9-13.67.31-.5.2-.29.29-.42a4.36,4.36,0,0,0,.55-4.4,4.16,4.16,0,0,0-1.27-1.63l-.16-.12a3,3,0,0,0-.43-.29l0,0,0,0a4.89,4.89,0,0,0-2-.49Z"/><path class="cls-7" d="M467.46,192.92a3.26,3.26,0,0,1-.73,2.08l-.3.45-.21.31-.31.49-9,13.67,0,0a2.57,2.57,0,0,1-.47.52,2.74,2.74,0,0,1-3.15.37l-.54-.3a2.67,2.67,0,0,1-1.42-2.56.23.23,0,0,0,.09.08,2.75,2.75,0,0,0,2.15.57A4.54,4.54,0,0,0,455.7,207,58.92,58.92,0,0,0,463.18,196a9.82,9.82,0,0,0,1.28-3.53,3.91,3.91,0,0,0-.8-2.92,3,3,0,0,1,.44,0,4.11,4.11,0,0,1,1.62.4,5,5,0,0,1,.47.33,3.26,3.26,0,0,1,1,1.27A3.39,3.39,0,0,1,467.46,192.92Z"/><path class="cls-4" d="M463.74,220.94v-8.33a4.88,4.88,0,0,1,4.86-4.88h19.95a4.89,4.89,0,0,1,4.88,4.88v8.33Z"/><path class="cls-8" d="M488.55,208.2a4.42,4.42,0,0,1,4.41,4.41v7.85H464.21v-7.85a4.4,4.4,0,0,1,4.39-4.41h19.95m0-.95H468.6a5.36,5.36,0,0,0-5.34,5.36v8.8h30.65v-8.8a5.37,5.37,0,0,0-5.36-5.36Z"/><path class="cls-7" d="M493,217.16v3.3H464.21v-7.85a4.4,4.4,0,0,1,4.39-4.41h.94v8.49Q481.26,216.77,493,217.16Z"/><path class="cls-4" d="M457.11,230.77V224.5a4.5,4.5,0,0,1,4.48-4.51h34a4.5,4.5,0,0,1,4.48,4.51v6.27Z"/><path class="cls-8" d="M495.58,220.46a4,4,0,0,1,4,4v5.8h-42v-5.8a4,4,0,0,1,4-4h34m0-1h-34a5,5,0,0,0-4.95,5v6.75h43.89V224.5a5,5,0,0,0-4.95-5Z"/><path class="cls-7" d="M499.58,226.41v3.89h-42v-5.8a4,4,0,0,1,4-4h1.35a25.91,25.91,0,0,0,.14,4.74,1.49,1.49,0,0,0,.14.55,1.35,1.35,0,0,0,1.13.59,9.68,9.68,0,0,0,1.06.09Z"/><path class="cls-4" d="M447,192.62a2,2,0,0,1-2-2v-9a2,2,0,0,1,2-2h4.52v13Z"/><path class="cls-8" d="M451.06,180.05v12.09h-4a1.56,1.56,0,0,1-1.56-1.56v-9a1.56,1.56,0,0,1,1.56-1.57h4m.95-1h-5a2.52,2.52,0,0,0-2.51,2.52v9a2.52,2.52,0,0,0,2.51,2.51h5v-14Z"/><path class="cls-7" d="M451.06,180.05v12.09h-4a1.56,1.56,0,0,1-1.56-1.56v-.09a10.35,10.35,0,0,0,2.3-.29,1.93,1.93,0,0,0,1.24-.75,2.05,2.05,0,0,0,.18-1q0-4.17,0-8.36Z"/><path class="cls-4" d="M456.74,300.8a9.31,9.31,0,0,1-9.29-9.31V239.14a9.32,9.32,0,0,1,9.29-9.32h43.68a9.32,9.32,0,0,1,9.29,9.32v52.35a9.31,9.31,0,0,1-9.29,9.31Z"/><path class="cls-8" d="M500.42,230.29a8.85,8.85,0,0,1,8.82,8.85v52.35a8.85,8.85,0,0,1-8.82,8.84H456.74a8.85,8.85,0,0,1-8.82-8.84V239.14a8.85,8.85,0,0,1,8.82-8.85h43.68m0-.95H456.74a9.79,9.79,0,0,0-9.76,9.8v52.35a9.79,9.79,0,0,0,9.76,9.79h43.68a9.79,9.79,0,0,0,9.77-9.79V239.14a9.8,9.8,0,0,0-9.77-9.8Z"/><path class="cls-7" d="M456.74,297.26a5.77,5.77,0,0,1-5.75-5.77V244h55.18v47.54a5.77,5.77,0,0,1-5.75,5.77Z"/><g class="cls-3"><rect class="cls-4" x="499.59" y="235.26" width="3.11" height="58.22" rx="0.63" ry="0.63"/></g><rect class="cls-4" x="447.87" y="256.35" width="61.44" height="16.09"/><path class="cls-8" d="M508.83,256.83V272H448.34V256.83h60.49m.95-.95H447.39v17h62.39v-17Z"/><path class="cls-7" d="M508.83,268.9V272H448.34V256.83h3.42c0,2.94,0,5.87,0,8.82a2.57,2.57,0,0,0,.45,1.79A2.7,2.7,0,0,0,454,268c15.75.89,31.53.47,47.28.35A34,34,0,0,1,508.83,268.9Z"/><path class="cls-4" d="M477.84,282.55A18.16,18.16,0,1,1,496,264.39,18.19,18.19,0,0,1,477.84,282.55Z"/><path class="cls-8" d="M477.84,246.7a17.69,17.69,0,1,1-17.68,17.69,17.69,17.69,0,0,1,17.68-17.69m0-.94a18.64,18.64,0,1,0,18.64,18.63,18.65,18.65,0,0,0-18.64-18.63Z"/><path class="cls-7" d="M490.69,276.52a17.48,17.48,0,0,1-12.85,5.56,17.68,17.68,0,0,1-9.5-32.59,17.5,17.5,0,0,0-4.86,12.15,17.69,17.69,0,0,0,17.69,17.68A17.47,17.47,0,0,0,490.69,276.52Z"/><path class="cls-4" d="M475.7,274.92a1.86,1.86,0,0,1-1.87-1.85v-4.69h-4.67a1.84,1.84,0,0,1-1.84-1.84v-4.31a1.85,1.85,0,0,1,1.84-1.85h4.67v-4.66a1.85,1.85,0,0,1,1.87-1.84H480a1.84,1.84,0,0,1,1.84,1.84v4.66h4.67a1.84,1.84,0,0,1,1.84,1.85v4.31a1.84,1.84,0,0,1-1.84,1.84h-4.67v4.69a1.84,1.84,0,0,1-1.84,1.85Z"/><path class="cls-8" d="M480,254.35a1.37,1.37,0,0,1,1.37,1.37v5.14h5.14a1.37,1.37,0,0,1,1.37,1.37v4.31a1.37,1.37,0,0,1-1.37,1.37h-5.14v5.16a1.37,1.37,0,0,1-1.37,1.37H475.7a1.38,1.38,0,0,1-1.4-1.37v-5.16h-5.14a1.36,1.36,0,0,1-1.36-1.37v-4.31a1.36,1.36,0,0,1,1.36-1.37h5.14v-5.14a1.38,1.38,0,0,1,1.4-1.37H480m0-.95H475.7a2.33,2.33,0,0,0-2.34,2.32v4.19h-4.2a2.32,2.32,0,0,0-2.31,2.32v4.31a2.32,2.32,0,0,0,2.31,2.32h4.2v4.21a2.33,2.33,0,0,0,2.34,2.32H480a2.32,2.32,0,0,0,2.32-2.32v-4.21h4.19a2.32,2.32,0,0,0,2.32-2.32v-4.31a2.32,2.32,0,0,0-2.32-2.32h-4.19v-4.19A2.32,2.32,0,0,0,480,253.4Z"/><path class="cls-7" d="M474.73,261c-.14-.09-.28-.16-.43-.24v-5a1.38,1.38,0,0,1,1.4-1.37h.8l0,4.48v2.45c-.47-.07-1,.14-1.39,0C475,261.17,474.87,261.07,474.73,261Z"/><path class="cls-7" d="M481.38,272.11v1a1.37,1.37,0,0,1-1.37,1.37H475.7a1.38,1.38,0,0,1-1.4-1.37v-5.16h-5.14a1.36,1.36,0,0,1-1.36-1.37v-4.31a1.36,1.36,0,0,1,1.36-1.37h.43v3c0,.61-.28,2,.48,2.27a9.58,9.58,0,0,0,2.51,0h4.11c0,.49.11,1,.1,1.46s-.06,1-.06,1.53v1.62c0,.74-.17,1.43.78,1.41Z"/></g><path class="cls-8" d="M477.84,288.83a63.77,63.77,0,1,1,63.77-63.77A63.84,63.84,0,0,1,477.84,288.83Zm0-124.69a60.92,60.92,0,1,0,60.92,60.92A61,61,0,0,0,477.84,164.14Z"/><g class="cls-3"><circle class="cls-4" cx="268.31" cy="228.62" r="62.34" transform="translate(-14.55 438.97) rotate(-77.07)"/></g><g class="cls-3"><circle class="cls-4" cx="271.87" cy="225.06" r="62.34" transform="translate(-8.31 439.68) rotate(-77.07)"/></g><g class="cls-17"><path class="cls-4" d="M274.62,264.7a17.12,17.12,0,0,1-7.57-2.15,65.65,65.65,0,0,0-7.34-3c-8-2.89-17.12-6.15-23.62-18.58l-36.53-4.35,6.62-39.42,31.51,7.24a10.56,10.56,0,0,0,2.31.26,10.19,10.19,0,0,0,5.21-1.43c7.59-4.45,17.2-9.77,20-9.77l.25,0c3.33.41,12.52,2.88,14.52,4.21s23.81,28,26.3,31l0,0,4.26,8.53,1,1.93c.1.33,1.64,6.13-6.45,10.9q-.66.41-1.41.78a13.49,13.49,0,0,1-.43,1.28c-.81,2.1-2.81,5.73-7.09,6.48a8.8,8.8,0,0,1-1.65.15,11.11,11.11,0,0,1-1.87-.17c-.08.18-.2.41-.35.68a8.1,8.1,0,0,1-6.59,3.86c-.31,0-.63,0-1,0a16.46,16.46,0,0,1-4.34-.64l-.39-.11A6.72,6.72,0,0,1,274.62,264.7Z"/><path class="cls-8" d="M265.16,194h.19c3.39.42,12.41,2.86,14.32,4.14s26.2,31,26.2,31l4.23,8.48,1,1.94s1.59,5.63-6.27,10.27c-.49.3-1,.58-1.58.86a10.9,10.9,0,0,1-.46,1.44c-.78,2-2.69,5.48-6.73,6.18a8.65,8.65,0,0,1-1.57.14,10.77,10.77,0,0,1-2.17-.23,5.9,5.9,0,0,1-.46,1,7.63,7.63,0,0,1-6.22,3.63c-.3,0-.61,0-.93,0a16.08,16.08,0,0,1-4.27-.64h0l-.63-.19s-1.39,2.2-5.15,2.2a16.5,16.5,0,0,1-7.36-2.09c-9.45-4.77-22.38-5.12-30.87-21.56l-36.27-4.32,1.13-6.78,5.32-31.66,31,7.13a11,11,0,0,0,2.42.27,10.64,10.64,0,0,0,5.45-1.49c5.84-3.43,16.89-9.7,19.71-9.7m0-1h0c-2.29,0-9.09,3.31-20.19,9.84a9.84,9.84,0,0,1-5,1.35,9.73,9.73,0,0,1-2.21-.25l-31-7.12-1-.23-.17,1-5.31,31.67-1.14,6.77-.17,1,1,.12,35.78,4.26c6.58,12.41,15.7,15.69,23.77,18.58a63.1,63.1,0,0,1,7.28,3,17.75,17.75,0,0,0,7.79,2.19,7.39,7.39,0,0,0,5.48-2.06h0l.12,0h0a16.81,16.81,0,0,0,4.4.65c.34,0,.68,0,1,0a8.55,8.55,0,0,0,6.95-4.1,3.24,3.24,0,0,0,.22-.4,11.19,11.19,0,0,0,1.6.12,8.94,8.94,0,0,0,1.74-.16c4.5-.78,6.6-4.58,7.45-6.77.17-.46.3-.84.38-1.12.44-.23.86-.46,1.26-.7,8.39-4.95,6.76-11.09,6.69-11.35l0-.09,0-.08-1-1.93-4.24-8.49,0-.09-.07-.08c-4.07-5-24.47-29.86-26.4-31.14-2.09-1.4-11.28-3.86-14.73-4.29l-.31,0Z"/><path class="cls-7" d="M304.8,249.81c-.3.18-.61.36-.94.53s-.42.23-.64.33a10.9,10.9,0,0,1-.46,1.44c-.78,2-2.69,5.48-6.73,6.18a6.31,6.31,0,0,1-.76.1l-.29,0h-.47a10.47,10.47,0,0,1-2.22-.23,5.9,5.9,0,0,1-.46,1,7.63,7.63,0,0,1-6.22,3.63c-.14,0-.29,0-.45,0h-.48c-.3,0-.61,0-.93,0l-.31,0-.41,0a19.13,19.13,0,0,1-2.63-.53l-.63-.19s-3.07,4.88-12.51.11-22.38-5.12-30.87-21.56l-36.27-4.32,1.13-6.78A7.89,7.89,0,0,0,203,231a11.74,11.74,0,0,0,3.52,1.3c3.25.8,6.55,1.43,9.86,1.92,3.11.46,6.26.83,9.4,1,2.71.14,5.77-.12,8.13-1.59.43-.27.83-.57,1.25-.85a8.59,8.59,0,0,1,5.57-1.57,5.49,5.49,0,0,1,4.57,3.26,3.25,3.25,0,0,0-2.44-1.22,7.11,7.11,0,0,0-2.76.51,6.45,6.45,0,0,1,3.54.87,3.51,3.51,0,0,1,.76.57c.88.95.75,2.46.39,3.71a15.13,15.13,0,0,1-1.73,3.9,4.36,4.36,0,0,0-.81,1.8,3.14,3.14,0,0,0,1.84-1c.23-.25.33-.59.53-.84a4.85,4.85,0,0,1,.95-.72,28.69,28.69,0,0,0,3.85-3.37c.81-.86,1.72-1.87,2.9-1.83a3.87,3.87,0,0,1,1.9.79c1.21.78,2.56,1.79,2.6,3.23a4.6,4.6,0,0,1-.9,2.4q-2.26,3.72-4.39,7.5c.31.36.89.17,1.3-.07,2.87-1.69,4.8-4.55,7-7.07.91-1.06,2.14-2.17,3.52-1.9a2.84,2.84,0,0,1,1.94,1.73,8.48,8.48,0,0,1,.52,2.64,7.9,7.9,0,0,1-.09,2.66c-.19.73-.59,1.39-.76,2.13a1.86,1.86,0,0,0,.61,2c.65.4,1.51.13,2.25.32a2.46,2.46,0,0,1,1.49,1.42,8.35,8.35,0,0,1,.53,2,8,8,0,0,0,1.09,3,3.41,3.41,0,0,0,2.33,1.47,4,4,0,0,0,2.71-.44c1.3-1.1-1.47-2.31-2.1-2.83a20.2,20.2,0,0,1-1.62-1.45c-.43-.42-.89-1.23-1.39-1.53q2.44,1.5,5,2.88a11.32,11.32,0,0,0,4.93,1.86,17.57,17.57,0,0,0,4.91.08,6,6,0,0,0,3.26-2,1.39,1.39,0,0,0,.15-.19c-5.26-2.86-10.6-5.89-14.35-10.54a8.17,8.17,0,0,0,2,1.18l2.08,1.22c1.5.86,3,1.67,4.55,2.41s2.86,1.86,4.49,2.49c2.17.84,4.05.55,6.28.38a10.15,10.15,0,0,0,6.34-3.05c.18-.19.37-.39.53-.59-1.59-.82-3.17-1.68-4.75-2.54-5.5-3-11.27-6.1-15.3-11,1.9.83,3.72,2.07,5.54,3.08l4.59,2.57c1.47.81,3,1.44,4.49,2.26a12.11,12.11,0,0,0,4.37,1.66,5.92,5.92,0,0,0,2.89-.32,12.75,12.75,0,0,0,2.29-1.54c1.46-.91,4.3-2.43,2.74-4.49a5.88,5.88,0,0,0-2.39-1.56,60.48,60.48,0,0,1-14.91-9.39c-4.74-4.05-8.6-8.92-12.64-13.63a1.68,1.68,0,0,0-.62-.51,1.78,1.78,0,0,0-1,.08,9.47,9.47,0,0,1-4.67.08,1.9,1.9,0,0,0-1.2,0,1.78,1.78,0,0,0-.59.57,12.88,12.88,0,0,1-18.59,1.82,16.94,16.94,0,0,0,4.08,1,12.79,12.79,0,0,0,7.12-2c2.17-1.24,4.15-2.8,6.3-4.08a20.24,20.24,0,0,1,9.72-3.05,13.11,13.11,0,0,1,9.43,3.41,36.69,36.69,0,0,1,2.93,3.52,27.82,27.82,0,0,0,7,6.17c3,1.88,6.5,3.22,8.91,5.84a15.64,15.64,0,0,1,3.41,6.71c.32,1.21.42,2.5.82,3.68a4.38,4.38,0,0,1,.33,1.86C310.93,245.09,307.9,248,304.8,249.81Z"/><path class="cls-4" d="M309.81,239.45a105.19,105.19,0,0,1-14.48-8.51,73.17,73.17,0,0,1-9.45-7.85,57.19,57.19,0,0,1-4.14-4.73c-.86-1.06-1.75-2.16-2.68-3.19a7.83,7.83,0,0,1-.5-.73c-.13-.21-.32-.52-.39-.6l-.08,0a2.3,2.3,0,0,0-.51,0,11,11,0,0,0-1.67.19c-.36.06-.68.11-.92.13l-4,.24-.23,0c-1.32.08-1.9.8-2.71,1.79-.27.33-.56.67-.88,1a12.3,12.3,0,0,1-4.87,3.38,13.35,13.35,0,0,1-3.42.6h-.7a10.22,10.22,0,0,1-7.36-2.57l-.12-.1c-.62-.53-.2-1.64,0-2.23l.05-.13c.09-.25.18-.48.27-.7s.23-.51.36-.76a19.87,19.87,0,0,1,1.26-2.21,37.12,37.12,0,0,1,4.41-5.73c.46-.49.9-.92,1.33-1.3a28.3,28.3,0,0,1,7.26-4.93,43.11,43.11,0,0,1,8.44-2.65c1-.24,2-.48,3-.75l.76-.2a54.85,54.85,0,0,1,5.63-1.31,5.12,5.12,0,0,1,.7,0c4.37,0,11.58,5.65,15.46,8.68.65.52,1.2,1,1.61,1.25a8.24,8.24,0,0,0,4.88,1.43,9.12,9.12,0,0,0,1.49-.11l27.49-8.68,9.07,33.84L311,240Z"/><path class="cls-8" d="M284.21,196c5,0,14.05,7.8,16.79,9.83a8.72,8.72,0,0,0,5.17,1.52,10.14,10.14,0,0,0,1.58-.11l27.07-8.54L343,229.21l.63,2.37-32.56,8L310,239a105.72,105.72,0,0,1-14.42-8.47,75.38,75.38,0,0,1-9.39-7.81c-2.49-2.46-4.48-5.32-6.79-7.9-.25-.26-.78-1.27-1-1.38a.82.82,0,0,0-.25-.1,2,2,0,0,0-.63-.08c-.88,0-2,.28-2.62.32l-4.21.26c-2,.13-2.61,1.61-3.9,2.95a11.72,11.72,0,0,1-4.68,3.25,12.22,12.22,0,0,1-3.29.58l-.68,0a9.75,9.75,0,0,1-7.17-2.56c-.41-.35.08-1.47.22-1.84s.16-.45.26-.67.22-.5.34-.74a19.18,19.18,0,0,1,1.24-2.16,37.92,37.92,0,0,1,4.35-5.67c.42-.44.86-.87,1.3-1.27a28.77,28.77,0,0,1,7.15-4.86c3.52-1.66,7.61-2.35,11.36-3.36a62.76,62.76,0,0,1,6.34-1.5,4.21,4.21,0,0,1,.62,0m0-.95a6.19,6.19,0,0,0-.76,0,55.4,55.4,0,0,0-5.69,1.32l-.75.21c-1,.26-2,.5-3,.74a43.2,43.2,0,0,0-8.54,2.68,28.93,28.93,0,0,0-7.38,5c-.42.37-.88.82-1.35,1.31a39.2,39.2,0,0,0-4.46,5.8,19.33,19.33,0,0,0-1.29,2.27c-.13.24-.25.51-.36.77a7.12,7.12,0,0,0-.28.72l-.05.13c-.27.7-.77,2,.1,2.76l.12.1a10.7,10.7,0,0,0,7.67,2.69l.72,0a13.77,13.77,0,0,0,3.54-.62,12.59,12.59,0,0,0,5.07-3.5,13.59,13.59,0,0,0,.9-1c.84-1,1.32-1.55,2.38-1.62h.26l3.95-.25c.27,0,.59-.07,1-.13a10.25,10.25,0,0,1,1.59-.19l.31,0,.27.43a6,6,0,0,0,.55.8c.92,1,1.81,2.12,2.67,3.17a57.71,57.71,0,0,0,4.16,4.77,75.51,75.51,0,0,0,9.51,7.9,106.81,106.81,0,0,0,14.55,8.55l.53.25.52.26.31.15.33-.08,32.57-8,.94-.23-.25-.94-.64-2.36-8.17-30.52-.26-1-.94.3-27,8.52a8.63,8.63,0,0,1-1.36.09,7.82,7.82,0,0,1-4.6-1.33c-.41-.3-.95-.73-1.6-1.24-3.92-3.07-11.21-8.78-15.76-8.78Z"/><path class="cls-4" d="M245.48,253.57a2.45,2.45,0,0,1-1.63-.62l-2.22-2a4.69,4.69,0,0,1-1.08-5.61,4.33,4.33,0,0,1,.84-1.18l7.19-7.41a4.79,4.79,0,0,1,2.64-1.41,4.91,4.91,0,0,1,.86-.07,4.77,4.77,0,0,1,2.95,1l.2.15.8.69a3.17,3.17,0,0,1,1,1.88,3.11,3.11,0,0,1-.64,2.43l-9,11.19A2.49,2.49,0,0,1,245.48,253.57Z"/><path class="cls-8" d="M252.07,235.78a4.35,4.35,0,0,1,2.67.91l.19.15.79.68a2.67,2.67,0,0,1,.34,3.66l-9,11.18a2,2,0,0,1-2.88.24l-2.21-2a4.23,4.23,0,0,1-1-5,4.06,4.06,0,0,1,.76-1.06l7.19-7.41a4.36,4.36,0,0,1,2.38-1.27,5.12,5.12,0,0,1,.77-.07m0-.95a4.88,4.88,0,0,0-.93.09,5.22,5.22,0,0,0-2.9,1.54l-7.2,7.41a4.93,4.93,0,0,0-.92,1.31,5.18,5.18,0,0,0,1.2,6.17l2.21,2a3,3,0,0,0,4.25-.35l9-11.19a3.61,3.61,0,0,0-.46-5l-.79-.69-.22-.17a5.36,5.36,0,0,0-3.26-1.12Z"/><path class="cls-7" d="M256.06,241.18l-9,11.18a2,2,0,0,1-2.88.24l-2.21-2a4.23,4.23,0,0,1-1-5,8,8,0,0,0,1.19,2.79,3.68,3.68,0,0,0,5.89.54,10.76,10.76,0,0,0,1.76-2.4,3.34,3.34,0,0,0,.46-1,2.5,2.5,0,0,0-.53-2,6.58,6.58,0,0,0-1.34-1.24,4.45,4.45,0,0,0,1.85.84,2.79,2.79,0,0,0,2.21-.52,4.65,4.65,0,0,0,.86-1.11c.89-1.45,1.76-3.13,1.42-4.77l.19.15.79.68a2.67,2.67,0,0,1,.34,3.66Z"/><path class="cls-4" d="M238,245.41a3.27,3.27,0,0,1-1.81-.59,5.87,5.87,0,0,1-2-2.41,4.13,4.13,0,0,1-.42-1.56,1.78,1.78,0,0,1,.47-1.3l.11-.15.06-.07a21.46,21.46,0,0,1,3.28-3.87l.14-.13a6,6,0,0,1,3.25-1.83h.19a4.49,4.49,0,0,1,1.82.4l.28.13h0l.29.17a5.79,5.79,0,0,1,1.15.93,3,3,0,0,1,.85,1.7,2.93,2.93,0,0,1,0,.78,4.52,4.52,0,0,1-1,2l-.85,1.05a24.23,24.23,0,0,1-3.07,3.37l-.19.17a4.49,4.49,0,0,1-1.85,1.12A2.73,2.73,0,0,1,238,245.41Z"/><path class="cls-8" d="M241.27,234a4,4,0,0,1,1.63.35h0a3.46,3.46,0,0,1,.5.27,5.93,5.93,0,0,1,1.07.86,2.58,2.58,0,0,1,.72,1.43,2.24,2.24,0,0,1,0,.63,3.92,3.92,0,0,1-.95,1.81,33.92,33.92,0,0,1-3.86,4.36,4.6,4.6,0,0,1-1.84,1.19,2.33,2.33,0,0,1-.53.06,2.86,2.86,0,0,1-1.55-.51,5.47,5.47,0,0,1-1.82-2.22,3.69,3.69,0,0,1-.38-1.39c0-.48.19-.72.47-1.11l0,0a21.51,21.51,0,0,1,3.26-3.86c.86-.75,1.93-1.75,3.11-1.84h.16m0-.95H241a6.41,6.41,0,0,0-3.52,1.95l-.13.12a22.25,22.25,0,0,0-3.36,4l0,0-.05.08-.08.1a2.26,2.26,0,0,0-.57,1.64,4.82,4.82,0,0,0,.47,1.71,6.38,6.38,0,0,0,2.15,2.61,3.77,3.77,0,0,0,2.08.67,3.2,3.2,0,0,0,.75-.09,4.76,4.76,0,0,0,2-1.22l.19-.17a25,25,0,0,0,3.13-3.43l.84-1a4.93,4.93,0,0,0,1.16-2.25,3.09,3.09,0,0,0,0-.91,3.49,3.49,0,0,0-1-2,7.12,7.12,0,0,0-1.25-1l-.07,0v0l-.56-.26a4.94,4.94,0,0,0-2-.44Z"/><path class="cls-7" d="M245.17,237.52a3.92,3.92,0,0,1-.95,1.81,33.92,33.92,0,0,1-3.86,4.36,4.6,4.6,0,0,1-1.84,1.19,2.68,2.68,0,0,1-2.08-.45,5.47,5.47,0,0,1-1.82-2.22,3.69,3.69,0,0,1-.38-1.39c0-.48.19-.72.47-1.11l0,0a14.29,14.29,0,0,0,1.45,2.24,2.64,2.64,0,0,0,1.87,1.16,2.76,2.76,0,0,0,1.83-.91c.41-.39.85-.78.5-1.39a2.31,2.31,0,0,0-.53-.55,3.31,3.31,0,0,1-1.21-1.81l.4.55a2.05,2.05,0,0,0,.39.44,2.12,2.12,0,0,0,.61.28,2.87,2.87,0,0,0,1.62.28c.38-.14.65-.79.86-1.14a5.78,5.78,0,0,0,.86-2,3.5,3.5,0,0,0-.49-2.48,3.46,3.46,0,0,1,.5.27,5.93,5.93,0,0,1,1.07.86,2.58,2.58,0,0,1,.72,1.43A2.24,2.24,0,0,1,245.17,237.52Z"/><path class="cls-4" d="M254,260.63a7.3,7.3,0,0,1-3.76-1.16,7,7,0,0,1-3.06-3.6,4.47,4.47,0,0,1,.12-2.5,5.28,5.28,0,0,1,1.09-1.89h0c.27-.33,1.66-1.86,9-10a5.39,5.39,0,0,1,3.31-1.69l.52,0a4.28,4.28,0,0,1,.72.06,4,4,0,0,1,2.91,2.07l.05.09a7.52,7.52,0,0,1,.82,4.07,7.1,7.1,0,0,1-.3,1.71,8.73,8.73,0,0,1-1.67,2.7l-.44.55c-.37.49-.76,1-1.15,1.47s-.91,1.16-1.36,1.75l-.35.47c-.86,1.15-1.75,2.33-2.58,3.52a4.83,4.83,0,0,1-3.59,2.43Z"/><path class="cls-8" d="M261.29,240.21a3.49,3.49,0,0,1,.65,0,3.58,3.58,0,0,1,2.57,1.83s0,.09.07.13a7.16,7.16,0,0,1,.74,3.77,6.68,6.68,0,0,1-.28,1.6,11,11,0,0,1-2,3.1c-.83,1.08-1.69,2.13-2.52,3.22-1,1.33-2,2.65-2.94,4a4.43,4.43,0,0,1-3.22,2.22H254a6.93,6.93,0,0,1-3.51-1.08,6.48,6.48,0,0,1-2.85-3.32,4,4,0,0,1,.11-2.23,4.9,4.9,0,0,1,1-1.72l9-10a5,5,0,0,1,3-1.53h0a3.62,3.62,0,0,1,.46,0m0-1a4.35,4.35,0,0,0-.51,0h-.07a5.79,5.79,0,0,0-3.6,1.84c-7,7.75-8.61,9.57-9,10.05h0a5.58,5.58,0,0,0-1.19,2.05,5,5,0,0,0-.13,2.77,7.39,7.39,0,0,0,3.27,3.89,7.82,7.82,0,0,0,4,1.22h.34a5.29,5.29,0,0,0,4-2.63c.81-1.18,1.7-2.36,2.55-3.5l.36-.48c.44-.58.9-1.16,1.36-1.74s.77-1,1.15-1.48l.43-.53a9.34,9.34,0,0,0,1.76-2.86,7.94,7.94,0,0,0,.32-1.83,8,8,0,0,0-.86-4.28.76.76,0,0,0-.09-.16,4.49,4.49,0,0,0-3.23-2.28,5.29,5.29,0,0,0-.8-.06Z"/><path class="cls-7" d="M265.32,246a6.68,6.68,0,0,1-.28,1.6,11,11,0,0,1-2,3.1c-.83,1.08-1.69,2.13-2.52,3.22-1,1.33-2,2.65-2.94,4a4.43,4.43,0,0,1-3.22,2.22,6.69,6.69,0,0,1-3.8-1.07,6.48,6.48,0,0,1-2.85-3.32,3.71,3.71,0,0,1,.61-3,1,1,0,0,0,.2-.47,2.21,2.21,0,0,0-.09,1.3,5.55,5.55,0,0,0,.44,1.24,3.76,3.76,0,0,0,1.35,1.76,5.58,5.58,0,0,0,5.68,0,6,6,0,0,0,2.18-2.23,3.59,3.59,0,0,0,.49-3.21,8.73,8.73,0,0,0-1.11-1.47,5,5,0,0,1-1-2.85,3.15,3.15,0,0,0,5.44,1.46,6.2,6.2,0,0,0,.82-1.32q.61-1.26,1.14-2.55c.29-.73.46-1.46.78-2.17A7.16,7.16,0,0,1,265.32,246Z"/><path class="cls-4" d="M263.28,265.47a10.21,10.21,0,0,1-4-1.32,3.85,3.85,0,0,1-2-2.07,3.92,3.92,0,0,1,.77-3.46l.07-.11a36.92,36.92,0,0,1,2.57-3.71,9.44,9.44,0,0,1,3.77-3.12l.12,0a3.68,3.68,0,0,1,1-.15,4.4,4.4,0,0,1,2.21.66l.24.14h0l.39.28a4.33,4.33,0,0,1,1.48,2.52,6.68,6.68,0,0,1,.14,1.15,10.12,10.12,0,0,1-2.15,5.82c-1,1.48-2.39,3.41-4.43,3.41Z"/><path class="cls-8" d="M265.6,252a3.87,3.87,0,0,1,2,.59h0a4.76,4.76,0,0,1,.57.39,3.9,3.9,0,0,1,1.32,2.25,5.47,5.47,0,0,1,.12,1.06,9.72,9.72,0,0,1-2.06,5.54c-1,1.36-2.21,3.21-4,3.21h-.17a9.61,9.61,0,0,1-3.8-1.27,3.44,3.44,0,0,1-1.76-1.8,3.49,3.49,0,0,1,.72-3.05l0-.08a36.42,36.42,0,0,1,2.57-3.7,9.1,9.1,0,0,1,3.55-3l.09,0,.08,0a2.71,2.71,0,0,1,.8-.11m0-.95h0a3.84,3.84,0,0,0-1.07.15h-.06l-.1,0-.08,0a9.87,9.87,0,0,0-3.94,3.26,35,35,0,0,0-2.62,3.77l-.08.13a4.34,4.34,0,0,0-.8,3.83,4.29,4.29,0,0,0,2.21,2.34,10.68,10.68,0,0,0,4.18,1.38h.24c2.29,0,3.72-2,4.76-3.53l.06-.08a10.53,10.53,0,0,0,2.23-6.09,6.77,6.77,0,0,0-.15-1.25,4.69,4.69,0,0,0-1.66-2.8l-.2-.15v0l-.47-.28a4.9,4.9,0,0,0-2.45-.72Z"/><path class="cls-7" d="M269.58,256.26a9.72,9.72,0,0,1-2.06,5.54c-1,1.4-2.29,3.32-4.21,3.2a9.61,9.61,0,0,1-3.8-1.27,3.44,3.44,0,0,1-1.76-1.8,3.49,3.49,0,0,1,.72-3.05.46.46,0,0,1,.07-.07,7.93,7.93,0,0,0,.68,2.3,4,4,0,0,0,3.51,2.09,3.11,3.11,0,0,0,2.12-.8,2.08,2.08,0,0,0,.56-2.12,6.82,6.82,0,0,1-2.45-.94,2.69,2.69,0,0,1-1.24-2.21,3.33,3.33,0,0,0,4.07.76,4.65,4.65,0,0,0,1.67-2.62,4.19,4.19,0,0,0,.17-2.54l-.06-.17a4.76,4.76,0,0,1,.57.39,3.9,3.9,0,0,1,1.32,2.25A5.47,5.47,0,0,1,269.58,256.26Z"/><path class="cls-7" d="M343.63,231.58l-32.56,8L310,239a105.72,105.72,0,0,1-14.42-8.47,75.38,75.38,0,0,1-9.39-7.81c-2.49-2.46-4.48-5.32-6.79-7.9-.25-.26-.78-1.27-1-1.38a.82.82,0,0,0-.25-.1c-.84-.25-2.51.19-3.25.24l-4.21.26c-2,.13-2.61,1.61-3.9,2.95a11.72,11.72,0,0,1-4.68,3.25,12.22,12.22,0,0,1-3.29.58c-5,.21-7.11-1.91-7.85-2.54-.41-.35.08-1.47.22-1.84a12.43,12.43,0,0,1,.6-1.41,2.68,2.68,0,0,0,1.31,1.64,6.07,6.07,0,0,0,3.17.51,13.13,13.13,0,0,0,6.39-1.58,5.89,5.89,0,0,0,2.95-5.55c1.74,2.21,5.07,2.37,7.78,1.61s5.19-2.24,8-2.7a8.09,8.09,0,0,0,1.54,6.63,23.79,23.79,0,0,0,5.12,4.79l10,7.65c1.73,1.32,8.53,7.68,10.15,3.19a4.38,4.38,0,0,0,.11-1.91,46.06,46.06,0,0,0-1.12-6.4,22.19,22.19,0,0,0,8.46,9.8,8.87,8.87,0,0,0,1.79.91c3.45,1.23,8.28-.77,11.7-1.51l12-2.59a5,5,0,0,1,1.84-.14Z"/><path class="cls-4" d="M260.92,211.15a7.84,7.84,0,0,1-4.37,5.08,7.1,7.1,0,0,1-3.25.77c-.61,0-2.21-.33-1.8-1.3.1-.23.2-.46.31-.68a18.6,18.6,0,0,1,1.12-2,34.64,34.64,0,0,1,3.92-5.25c.38-.4.78-.8,1.18-1.18.21-.19,2.3,2.09,2.49,2.34A2.52,2.52,0,0,1,260.92,211.15Z"/><path class="cls-8" d="M253.51,217.25h-.22c-.07,0-1.52-.08-2-.8a.88.88,0,0,1,0-.83c.1-.23.21-.47.32-.69a19.84,19.84,0,0,1,1.12-2,35.2,35.2,0,0,1,4-5.28c.41-.44.81-.84,1.19-1.19l.07-.06h.13c.53,0,2.62,2.41,2.64,2.43a2.79,2.79,0,0,1,.45,2.43,8.14,8.14,0,0,1-4.51,5.24A7.87,7.87,0,0,1,253.51,217.25Zm4.59-10.4c-.34.32-.7.69-1.07,1.09a34.14,34.14,0,0,0-3.9,5.2,18.26,18.26,0,0,0-1.1,2c-.11.22-.22.45-.31.68a.36.36,0,0,0,0,.39,2.4,2.4,0,0,0,1.58.58,7.09,7.09,0,0,0,3.14-.75,7.6,7.6,0,0,0,4.24-4.93,2.23,2.23,0,0,0-.36-2A20.34,20.34,0,0,0,258.1,206.85Z"/><path class="cls-4" d="M256.6,239.11c-.47.64-1,1.28-1.5,1.87a4.33,4.33,0,0,1-3.19,1.75,2.89,2.89,0,0,1-2.28-1.3,3.65,3.65,0,0,1-.64-1.58,2,2,0,0,1,.26-1.48,15,15,0,0,1,2.05-2.52,4.39,4.39,0,0,1,3.63,1l.79.68A2.63,2.63,0,0,1,256.6,239.11Z"/><path class="cls-8" d="M252,243h-.06a3.1,3.1,0,0,1-2.47-1.41,3.68,3.68,0,0,1-.68-1.67,2.26,2.26,0,0,1,.29-1.64,14.48,14.48,0,0,1,2.08-2.56l.06-.06h.07a4.7,4.7,0,0,1,3.83,1l.79.68a2.83,2.83,0,0,1,.95,1.73l0,.1-.06.08c-.54.74-1,1.36-1.51,1.89A4.51,4.51,0,0,1,252,243Zm-.55-6.9a13.5,13.5,0,0,0-2,2.42,1.74,1.74,0,0,0-.23,1.33,3.38,3.38,0,0,0,.59,1.47,2.65,2.65,0,0,0,2.1,1.2l.05.24v-.24a4.06,4.06,0,0,0,3-1.67c.44-.5.91-1.08,1.42-1.77a2.35,2.35,0,0,0-.79-1.35l-.78-.68A4.18,4.18,0,0,0,251.42,236.07Z"/><path class="cls-4" d="M265.32,246c-.3.38-.61.75-.92,1.11a5.13,5.13,0,0,1-3.72,2,3.4,3.4,0,0,1-2.66-1.52,4.24,4.24,0,0,1-.74-1.84,2.3,2.3,0,0,1,.31-1.72,21.85,21.85,0,0,1,3.24-3.83h0a4.12,4.12,0,0,1,1.11,0,3.58,3.58,0,0,1,2.57,1.83A7,7,0,0,1,265.32,246Z"/><path class="cls-8" d="M260.73,249.38h-.05a3.62,3.62,0,0,1-2.85-1.62,4.31,4.31,0,0,1-.78-1.94,2.51,2.51,0,0,1,.33-1.88,18,18,0,0,1,2.65-3.23l.62-.64.07-.08h.1a4.54,4.54,0,0,1,1.16,0,3.85,3.85,0,0,1,2.74,1.95,7.36,7.36,0,0,1,.84,4v.08l0,.06c-.33.41-.64.78-.94,1.12A5.24,5.24,0,0,1,260.73,249.38Zm.21-8.92-.56.58a17.31,17.31,0,0,0-2.59,3.14,2.12,2.12,0,0,0-.28,1.56,4,4,0,0,0,.7,1.74,3.15,3.15,0,0,0,2.48,1.42l0,.24v-.24a4.81,4.81,0,0,0,3.49-2c.28-.32.56-.66.87-1a6.78,6.78,0,0,0-.78-3.69,3.33,3.33,0,0,0-2.41-1.72A3.85,3.85,0,0,0,260.94,240.46Z"/><path class="cls-4" d="M245.19,236.89c-.37.44-.74.88-1.14,1.28a3.48,3.48,0,0,1-2.61,1.32,2.32,2.32,0,0,1-1.8-1.13,2.8,2.8,0,0,1-.47-1.28,1.63,1.63,0,0,1,.26-1.18,11.41,11.41,0,0,1,1.68-1.93h.16a4,4,0,0,1,2.13.63,5.93,5.93,0,0,1,1.07.86A2.58,2.58,0,0,1,245.19,236.89Z"/><path class="cls-8" d="M241.57,239.73h-.14a2.6,2.6,0,0,1-2-1.24,3,3,0,0,1-.5-1.38,1.81,1.81,0,0,1,.3-1.34,11.18,11.18,0,0,1,1.71-2l.06-.05h.26a4.23,4.23,0,0,1,2.26.67,6.06,6.06,0,0,1,1.11.89,2.79,2.79,0,0,1,.78,1.57v.1l-.06.08c-.4.49-.78.92-1.14,1.3A3.74,3.74,0,0,1,241.57,239.73Zm-.35-5.53a10.69,10.69,0,0,0-1.59,1.82,1.4,1.4,0,0,0-.22,1,2.55,2.55,0,0,0,.43,1.18,2.08,2.08,0,0,0,1.61,1,3.12,3.12,0,0,0,2.43-1.24c.34-.35.69-.74,1.06-1.19a2.28,2.28,0,0,0-.65-1.2,4.78,4.78,0,0,0-1-.82,3.94,3.94,0,0,0-2-.6Z"/><path class="cls-4" d="M269.46,255.2c-.34.54-.68,1.08-1,1.59a4,4,0,0,1-2.73,1.9,2.66,2.66,0,0,1-2.21-1,3.43,3.43,0,0,1-.73-1.37,1.83,1.83,0,0,1,.1-1.38,14.31,14.31,0,0,1,1.95-2.9,3.83,3.83,0,0,1,3.34.87A3.9,3.9,0,0,1,269.46,255.2Z"/><path class="cls-8" d="M265.49,258.94a3,3,0,0,1-2.19-1.06,3.54,3.54,0,0,1-.78-1.47,2.06,2.06,0,0,1,.11-1.53,14.65,14.65,0,0,1,1.88-2.83l.15-.18.07,0a4.19,4.19,0,0,1,5,3.3l0,.09,0,.08c-.41.67-.73,1.16-1.05,1.61a4.12,4.12,0,0,1-2.9,2Zm-.56-6.65,0,.06a13.86,13.86,0,0,0-1.83,2.73,1.59,1.59,0,0,0-.08,1.22,3,3,0,0,0,.68,1.27,2.45,2.45,0,0,0,2,.89,3.7,3.7,0,0,0,2.55-1.81c.3-.41.6-.88,1-1.49a3.58,3.58,0,0,0-1.2-2A3.65,3.65,0,0,0,264.93,252.29Z"/><g class="cls-9"><polygon class="cls-15" points="328.18 288.64 326.33 290.49 206.23 170.39 208.08 168.54 328.18 288.64"/></g></g><path class="cls-8" d="M271.87,288.83a63.77,63.77,0,1,1,63.77-63.77A63.84,63.84,0,0,1,271.87,288.83Zm0-124.69a60.92,60.92,0,1,0,60.92,60.92A61,61,0,0,0,271.87,164.14Z"/><g class="cls-3"><circle class="cls-4" cx="62.34" cy="228.62" r="62.34" transform="translate(-173.23 254.26) rotate(-80.96)"/></g><g class="cls-3"><circle class="cls-4" cx="65.9" cy="225.06" r="62.34" transform="translate(-168.06 241.08) rotate(-77.6)"/></g><path class="cls-8" d="M65.9,288.83a63.77,63.77,0,1,1,63.77-63.77A63.84,63.84,0,0,1,65.9,288.83Zm0-124.69a60.92,60.92,0,1,0,60.92,60.92A61,61,0,0,0,65.9,164.14Z"/><path class="cls-4" d="M31.59,239.6a5.76,5.76,0,0,1-1.37-.16,5.94,5.94,0,0,1-4.11-3.74,11.35,11.35,0,0,1-.42-3.88,13.39,13.39,0,0,0-.21-3,12,12,0,0,0-.62-1.83c-.14-.36-.28-.71-.4-1.07a12,12,0,0,1-.29-6.65,5.31,5.31,0,0,1,2.61-3.74,4.62,4.62,0,0,1,1.95-.37h.11a7.08,7.08,0,0,1,2.26.42l.2.08.08.2c.31.81.67,1.63,1.1,2.5a22.87,22.87,0,0,1,2.07,6.44,22.6,22.6,0,0,1,.16,6.3A1.35,1.35,0,0,0,35,231l.75-.53,0,7.51-.15.14a5.61,5.61,0,0,1-1.32.9A6.12,6.12,0,0,1,31.59,239.6Z"/><path class="cls-8" d="M28.74,215.63h.1a6.51,6.51,0,0,1,2.09.4c.31.81.68,1.65,1.12,2.54a22.64,22.64,0,0,1,2,6.3,22.41,22.41,0,0,1,.08,6.84,1.88,1.88,0,0,0,1.09-.37l0,6.38a5,5,0,0,1-1.21.82,5.53,5.53,0,0,1-2.49.59,5.42,5.42,0,0,1-1.26-.15,5.49,5.49,0,0,1-3.77-3.44c-.76-2.16-.1-4.59-.62-6.83a30.39,30.39,0,0,0-1-3,11.54,11.54,0,0,1-.28-6.38A4.85,4.85,0,0,1,27,216a4.26,4.26,0,0,1,1.77-.33m0-.95a5.07,5.07,0,0,0-2.16.42,5.61,5.61,0,0,0-2.87,4.05,12.54,12.54,0,0,0,.3,6.92c.12.37.27.73.41,1.09a12.21,12.21,0,0,1,.6,1.76,12.42,12.42,0,0,1,.19,2.9,11.69,11.69,0,0,0,.45,4,6.41,6.41,0,0,0,4.44,4,6.26,6.26,0,0,0,1.49.18,6.56,6.56,0,0,0,2.92-.69,5.86,5.86,0,0,0,1.42-1l.31-.28v-.42l0-6.39V229.5l-.91.65a23.64,23.64,0,0,0-.26-5.43,23.17,23.17,0,0,0-2.12-6.57c-.42-.86-.78-1.66-1.08-2.46l-.16-.4-.4-.15a7.36,7.36,0,0,0-2.4-.46Z"/><path class="cls-7" d="M35.29,237.72a5,5,0,0,1-1.21.82,5.36,5.36,0,0,1-7.52-3c-.56-1.6-.28-3.28-.29-4.94a2.12,2.12,0,0,0,.39,1c.25.45.44,1,.65,1.42a2.89,2.89,0,0,0,.88,1.27,2.66,2.66,0,0,0,1.52.33,2.94,2.94,0,0,0,2.54-.91,2.54,2.54,0,0,0,.38-1.33,2.59,2.59,0,0,0-.21-1.46,6.87,6.87,0,0,0-1-1.07,3.1,3.1,0,0,1-.68-2.08,4.79,4.79,0,0,1,.63-2.11c.18-.34.39-.65.54-1a3.24,3.24,0,0,0,.2-2.06,2.22,2.22,0,0,0-.8-1.34,2.5,2.5,0,0,0-1.3-.44,4.12,4.12,0,0,0-2.8.66A2.86,2.86,0,0,0,26,224a6.4,6.4,0,0,1,.38-2.67,4.47,4.47,0,0,1,.46-.93A3.79,3.79,0,0,1,31.34,219a3.86,3.86,0,0,0-4.65-2.73A3.6,3.6,0,0,1,29,215.6c.28,0,1.86.16,2,.43.31.81.68,1.65,1.12,2.54a22.64,22.64,0,0,1,2,6.3,22.41,22.41,0,0,1,.08,6.84,1.88,1.88,0,0,0,1.09-.37Z"/><path class="cls-4" d="M100.22,239.6a6,6,0,0,1-2.7-.64,5,5,0,0,1-1.32-.89l-.16-.14,0-7.39.94-.08c.06.31.09.62.13.93h.35c-.41-2.46-.09-9.6-.08-9.67a22.54,22.54,0,0,1,1.48-5.12l0-.14.13-.09a7.56,7.56,0,0,1,3.87-1.21h.11a4.66,4.66,0,0,1,2,.37,5.33,5.33,0,0,1,2.61,3.74,12.13,12.13,0,0,1-.29,6.65c-.13.38-.28.75-.42,1.12a9.3,9.3,0,0,0-.81,4.78,11.11,11.11,0,0,1-.42,3.88,5.94,5.94,0,0,1-4.11,3.74A5.76,5.76,0,0,1,100.22,239.6Z"/><path class="cls-8" d="M103.07,215.63a4.24,4.24,0,0,1,1.76.33,4.84,4.84,0,0,1,2.35,3.42,11.54,11.54,0,0,1-.28,6.38c-.33,1-.81,1.94-1,3-.51,2.24.16,4.67-.61,6.83a5.48,5.48,0,0,1-3.78,3.44,5.28,5.28,0,0,1-1.25.15,5.53,5.53,0,0,1-2.49-.59,5,5,0,0,1-1.21-.82l0-7.18c.07.44.12.88.16,1.32h1.44c-.58,0-.38-9.21-.27-10.08a21.71,21.71,0,0,1,1.45-5,7,7,0,0,1,3.62-1.14h.1m0-.95H103a7.83,7.83,0,0,0-4.12,1.3l-.26.16-.11.29a22.47,22.47,0,0,0-1.5,5.22,79.66,79.66,0,0,0,0,8.78l-1.31.1-.05,7.19v.41l.31.29a6,6,0,0,0,1.44,1,6.54,6.54,0,0,0,2.9.68,6.12,6.12,0,0,0,1.48-.18,6.45,6.45,0,0,0,4.45-4,11.69,11.69,0,0,0,.45-4,12.45,12.45,0,0,1,.19-2.9,10.36,10.36,0,0,1,.58-1.7c.14-.37.3-.76.43-1.16a12.65,12.65,0,0,0,.31-6.9,5.79,5.79,0,0,0-2.88-4.06,5.11,5.11,0,0,0-2.16-.42Z"/><path class="cls-7" d="M96.15,237.72a4.73,4.73,0,0,0,1.2.82,5.36,5.36,0,0,0,7.52-3c.57-1.6.29-3.28.29-4.94a2.12,2.12,0,0,1-.39,1c-.25.45-.44,1-.65,1.42a2.89,2.89,0,0,1-.88,1.27,2.64,2.64,0,0,1-1.52.33,2.94,2.94,0,0,1-2.54-.91,2.54,2.54,0,0,1-.38-1.33,2.59,2.59,0,0,1,.21-1.46,6.93,6.93,0,0,1,1-1.07,3.15,3.15,0,0,0,.67-2.08,4.66,4.66,0,0,0-.63-2.11c-.18-.34-.39-.65-.54-1a3.31,3.31,0,0,1-.2-2.06,2.22,2.22,0,0,1,.8-1.34,2.5,2.5,0,0,1,1.3-.44,4.11,4.11,0,0,1,2.8.66,2.86,2.86,0,0,1,1.22,2.52,6.24,6.24,0,0,0-.38-2.67,4.44,4.44,0,0,0-.45-.93A3.8,3.8,0,0,0,100.1,219a3.85,3.85,0,0,1,4.64-2.73,3.6,3.6,0,0,0-2.28-.67c-.28,0-1.86.16-2,.43-.31.81-.68,1.65-1.12,2.54a22.64,22.64,0,0,0-2,6.3,22.41,22.41,0,0,0-.07,6.84,1.89,1.89,0,0,1-1.1-.37Z"/><path class="cls-4" d="M65.91,275.5c-9,0-17.06-7.1-23.1-13.28a55,55,0,0,1-4.86-5.5,20.93,20.93,0,0,1-4.34-13.51V224.87l.94-.07a22.6,22.6,0,0,1,.16,6.3A1.35,1.35,0,0,0,35,231a2.4,2.4,0,0,0,.89-1.15,7.1,7.1,0,0,0,.3-2.66c0-4.16.06-8.35.35-12.5a6.73,6.73,0,0,1,1.32-4.23,7.06,7.06,0,0,1,1.06-.92l.46-.35a6.48,6.48,0,0,0,2.24-5.95h0l.93-.15-.45.08.45-.08c1,6.16,9.32,10.06,16.16,11.35a4.74,4.74,0,0,1-1.23-2l.88-.35c.53,1.09,1.74,1.88,3.7,2.42a28.24,28.24,0,0,0,7.57.92,87.11,87.11,0,0,0,8.82-.61,86.81,86.81,0,0,1,9-.62h.27a4.08,4.08,0,0,1,2.72.73c1,.85,1,2.13,1,3.37a9,9,0,0,0,.09,1.51,3.72,3.72,0,0,0,1.73,2.49l.49.26a4.09,4.09,0,0,1,1.22.82,3.77,3.77,0,0,1,.77,1.5A31.9,31.9,0,0,1,97,230.48c0,.29.08.6.12.91h1v11.82A21.7,21.7,0,0,1,93.87,257a47.25,47.25,0,0,1-6.37,6.68C81.94,268.66,74.34,275.5,65.91,275.5Z"/><path class="cls-8" d="M42.05,203.1h0m0,0c1.28,7.66,12.71,11.53,19.3,12.14a4.4,4.4,0,0,1-3.45-3c.72,1.48,2.4,2.23,4,2.67a28.65,28.65,0,0,0,7.7.94c5.87,0,11.88-1.24,17.81-1.24h.26a3.72,3.72,0,0,1,2.42.62c1.23,1,.68,3,1,4.61a4.22,4.22,0,0,0,2,2.81,6.51,6.51,0,0,1,1.6,1,3.44,3.44,0,0,1,.67,1.32,31.46,31.46,0,0,1,1.29,5.57c.07.44.12.88.16,1.32h1v11.35a21.24,21.24,0,0,1-4.24,13.49,45.91,45.91,0,0,1-6.31,6.61C81.54,268.38,74.08,275,65.91,275c-8.92,0-17-7.23-22.76-13.13a55.68,55.68,0,0,1-4.82-5.45,20.44,20.44,0,0,1-4.25-13.23V224.87a22.41,22.41,0,0,1,.08,6.84,1.88,1.88,0,0,0,1.09-.37,2.92,2.92,0,0,0,1-1.37,7.84,7.84,0,0,0,.34-2.9q-.09-6.21.34-12.4a6.46,6.46,0,0,1,1.2-3.94,10.82,10.82,0,0,1,1.47-1.22,7,7,0,0,0,2.41-6.4M43,203l-.29,0-.65.1-.93.16,1-.16-1,.17a6.06,6.06,0,0,1-2.07,5.5l-.44.34a7,7,0,0,0-1.14,1A7.34,7.34,0,0,0,36,214.6c-.29,4.17-.41,8.37-.35,12.48v.07a6.7,6.7,0,0,1-.27,2.47,2.39,2.39,0,0,1-.13.28,23.77,23.77,0,0,0-.27-5.18l-1.89.15v18.34A21.39,21.39,0,0,0,37.57,257a56,56,0,0,0,4.9,5.54C48.58,268.8,56.77,276,65.91,276c8.61,0,16.29-6.91,21.9-12a47.83,47.83,0,0,0,6.44-6.76,22.09,22.09,0,0,0,4.43-14v-12.3h-1.1c0-.17,0-.35-.08-.53a32.39,32.39,0,0,0-1.32-5.7,4.33,4.33,0,0,0-.87-1.67,4.25,4.25,0,0,0-1.36-.92c-.15-.08-.31-.16-.45-.25A3.24,3.24,0,0,1,92,219.68a9.19,9.19,0,0,1-.09-1.44c0-1.28,0-2.73-1.19-3.73a4.56,4.56,0,0,0-3-.84h-.28a87.39,87.39,0,0,0-9,.63,86.54,86.54,0,0,1-8.77.61,27.66,27.66,0,0,1-7.44-.91c-1.82-.5-2.93-1.21-3.4-2.17l-1.76.7a4.91,4.91,0,0,0,.5,1.12C51.1,212.18,43.93,208.52,43,203Z"/><path class="cls-4" d="M96.26,231.91a32.19,32.19,0,0,0-1.43-6.79,3,3,0,0,0-.56-1.15,3.45,3.45,0,0,0-1-.61c-.19-.09-.37-.19-.55-.29a4.64,4.64,0,0,1-2.18-3.14,9.31,9.31,0,0,1-.11-1.67c0-1.07,0-2.09-.7-2.66a3.31,3.31,0,0,0-2.11-.5h-.26a85.47,85.47,0,0,0-8.9.62,88.08,88.08,0,0,1-8.91.61,29,29,0,0,1-7.83-1l-.4-.11,0,.46c-6.12-.56-15.8-3.72-18.88-9.93A7.48,7.48,0,0,1,40,209.88l-.51.38a6.41,6.41,0,0,0-.91.78,6,6,0,0,0-1.07,3.66c-.29,4.1-.41,8.26-.35,12.36a8.2,8.2,0,0,1-.36,3.08,3,3,0,0,1-2.58,2.05h-.56l.08-.56a22.05,22.05,0,0,0-2.06-12.86A24,24,0,0,1,29,209a43.46,43.46,0,0,1,.24-9.45,24.07,24.07,0,0,1,1.69-6.13c1.37-3.27,4-7.32,8.9-8.09a5.14,5.14,0,0,1,.55-.06c.49,0,.8-.07,1-.3a3.88,3.88,0,0,0,.71-1.09l.11-.22c2.07-3.95,6.34-6.92,11.43-8a57,57,0,0,1,11.26-1.06c1.4,0,2.85,0,4.33.13h.35a35.86,35.86,0,0,1,25.86,13.91,29.31,29.31,0,0,1,5.74,23.95,28.86,28.86,0,0,1-1.35,4.25,22.32,22.32,0,0,0-1.44,5c-.13,1-.25,8.91.14,9.72a.41.41,0,0,0-.33-.17v1H96.3Z"/><path class="cls-8" d="M64.88,175.09c1.44,0,2.87,0,4.3.13l.38,0c18.43,1.18,35.1,18.07,31.14,37.29-.67,3.23-2.37,6-2.8,9.25-.12.87-.31,10.08.28,10.08H96.73A32.29,32.29,0,0,0,95.28,225a3.41,3.41,0,0,0-.67-1.33,6.7,6.7,0,0,0-1.6-1,4.14,4.14,0,0,1-2-2.81c-.29-1.59.26-3.56-1-4.61a3.73,3.73,0,0,0-2.41-.62h-.27c-5.93,0-11.93,1.24-17.8,1.24a28.67,28.67,0,0,1-7.71-.94c-1.59-.45-3.27-1.18-4-2.67a4.4,4.4,0,0,0,3.45,3c-6.6-.61-18-4.48-19.3-12.15a7,7,0,0,1-2.42,6.41,11.37,11.37,0,0,0-1.46,1.22A6.31,6.31,0,0,0,37,214.66q-.43,6.19-.36,12.41a7.83,7.83,0,0,1-.32,2.9,2.55,2.55,0,0,1-2.15,1.74,22.58,22.58,0,0,0-2.1-13.14A23.39,23.39,0,0,1,29.44,209a43.08,43.08,0,0,1,.23-9.36,24.14,24.14,0,0,1,1.65-6c1.6-3.78,4.31-7.13,8.55-7.81.64-.1,1.33,0,1.83-.47a5.25,5.25,0,0,0,.91-1.44c2.18-4.16,6.6-6.79,11.11-7.71a55.61,55.61,0,0,1,11.16-1.06m0-.94v0a57.2,57.2,0,0,0-11.35,1.07c-5.23,1.06-9.63,4.13-11.76,8.2l-.11.22a3.86,3.86,0,0,1-.62,1c-.11.12-.35.14-.73.17a5.61,5.61,0,0,0-.59.06c-4,.64-7.23,3.54-9.27,8.37a25.25,25.25,0,0,0-1.72,6.25,43.78,43.78,0,0,0-.24,9.55,24.41,24.41,0,0,0,2.72,10,21.67,21.67,0,0,1,2,12.58l-.16,1.11,1.12,0a3.49,3.49,0,0,0,3-2.35,8.43,8.43,0,0,0,.39-3.22c0-4.13.07-8.27.35-12.36a5.72,5.72,0,0,1,1-3.37,6.29,6.29,0,0,1,.85-.72l.52-.4A7.79,7.79,0,0,0,42.57,207c3.65,5.73,12.8,8.67,18.7,9.22l.06-.46.31.09a29.53,29.53,0,0,0,8,1,89.08,89.08,0,0,0,9-.62,87.72,87.72,0,0,1,8.85-.62h.26a3,3,0,0,1,1.8.39c.48.41.52,1.14.53,2.3a11.66,11.66,0,0,0,.12,1.76,5.14,5.14,0,0,0,2.41,3.46,6.19,6.19,0,0,0,.57.3,3.06,3.06,0,0,1,.82.52,2.66,2.66,0,0,1,.46,1A31.87,31.87,0,0,1,95.79,232l.08.85h2.31v-1.9h0a.84.84,0,0,1,.77.48c-.35-1-.23-8.6-.11-9.49a21.7,21.7,0,0,1,1.42-4.86,28.31,28.31,0,0,0,1.36-4.32,29.75,29.75,0,0,0-5.82-24.33A36.29,36.29,0,0,0,69.62,174.3h-.23l-.15,0c-1.49-.08-2.95-.12-4.36-.12Z"/><path class="cls-7" d="M61.36,215.25a4.4,4.4,0,0,1-3.45-3c.72,1.49,2.4,2.22,4,2.67,8.32,2.3,17.14-.35,25.78-.3a3.73,3.73,0,0,1,2.41.62c1.23,1,.68,3,1,4.61a4.14,4.14,0,0,0,2,2.81,6.7,6.7,0,0,1,1.6,1,3.41,3.41,0,0,1,.67,1.33,32.29,32.29,0,0,1,1.45,6.88h1.45c-.59,0-.4-9.21-.28-10.08.43-3.28,2.13-6,2.8-9.25a26.48,26.48,0,0,0,0-11.45,12,12,0,0,0-2-4.18A11.45,11.45,0,0,0,97,195.11c-.36-.31-1.44-.78-1.64-1.16a31,31,0,0,1,2.2,4.75c1.27,3.84,1,8,.71,12a3.83,3.83,0,0,0-.77-3.86,8.19,8.19,0,0,0-3.46-2.2,9.72,9.72,0,0,1,2,4.9c-1.36-2.21-4.21-3-6.8-3.16s-5.47-.09-8.18-.38a26.3,26.3,0,0,1-10.58-3.52,27.47,27.47,0,0,0,8.39,5.7c-3-.46-5.92-1-8.87-1.5a47.83,47.83,0,0,1-10-2.74,24.81,24.81,0,0,1-4.47-2.43,22.42,22.42,0,0,1-2.06-1.61c-.37-.32-1.56-1.12-1.68-1.62a15.09,15.09,0,0,0,2.64,5.94,12.75,12.75,0,0,0,4.43,3.89c-1-.52-2.46-.6-3.57-1.08a17.85,17.85,0,0,1-3-1.67,19.11,19.11,0,0,1-5-5.17,24.63,24.63,0,0,1-3.5-8.87,18.46,18.46,0,0,1-.28-6,10.42,10.42,0,0,1,2.4-5.46c-1.24,1.39-2.52,2.32-3.41,4a5.25,5.25,0,0,1-.91,1.44c-.5.48-1.19.37-1.83.47a9.42,9.42,0,0,0-3.48,1.31c-.86.55-1.54,1.5-2.51,1.86a3.47,3.47,0,0,1,3.86,1.11,5.89,5.89,0,0,1,.8,1.63,28.64,28.64,0,0,1,1.4,8.92,16.54,16.54,0,0,1-.36,4.33,7,7,0,0,1-2.17,3.71,9.93,9.93,0,0,0,1-5c-1.13,2.68-2.44,5.54-5,7a9.3,9.3,0,0,0-1.21-5.6,15.56,15.56,0,0,0-.18,6.08,17.76,17.76,0,0,1-2-11c-1.33,2.5-.83,6.12-.63,8.84a23.39,23.39,0,0,0,2.62,9.62,22.58,22.58,0,0,1,2.1,13.14A2.55,2.55,0,0,0,36.31,230a7.83,7.83,0,0,0,.32-2.9q-.08-6.21.36-12.41a6.36,6.36,0,0,1,1.19-3.94,12.18,12.18,0,0,1,1.46-1.21,7,7,0,0,0,2.42-6.41C43.33,210.77,54.76,214.64,61.36,215.25Z"/><path class="cls-4" d="M65.91,275.5c-9,0-17.06-7.1-23.1-13.28a55,55,0,0,1-4.86-5.5l-.1-.13.77-19.72,27.29-7.34,27.28,7.34.78,20-.1.13a28.68,28.68,0,0,1-2.19,2.62c-1.1,1.2-2.43,2.49-4.18,4.06C81.94,268.66,74.34,275.5,65.91,275.5Z"/><path class="cls-8" d="M65.91,230l.21.06,26.61,7.15.76,19.47a29.83,29.83,0,0,1-2.16,2.58c-1.23,1.34-2.63,2.66-4.15,4C81.54,268.38,74.08,275,65.91,275c-8.92,0-17-7.23-22.76-13.13a55.68,55.68,0,0,1-4.82-5.45l.75-19.21L65.91,230m0-1-.24.07-26.83,7.21-.67.18,0,.7-.74,19.2,0,.34.2.26a54.85,54.85,0,0,0,4.9,5.55C48.58,268.8,56.77,276,65.91,276c8.61,0,16.29-6.91,21.9-12,1.8-1.61,3.1-2.88,4.22-4.1a29.79,29.79,0,0,0,2.22-2.66l.2-.27v-.33l-.76-19.46,0-.7-.68-.18-26.61-7.16-.21,0L65.9,229Z"/><path class="cls-8" d="M92.73,237.71a.48.48,0,0,1-.34-.81l5.45-5.38a.47.47,0,0,1,.67,0,.46.46,0,0,1,0,.67l-5.45,5.37A.47.47,0,0,1,92.73,237.71Z"/><path class="cls-8" d="M39.08,237.71a.48.48,0,0,1-.36-.16L33.8,232a.48.48,0,0,1,0-.67.47.47,0,0,1,.67,0l4.92,5.52a.48.48,0,0,1-.35.79Z"/><path class="cls-7" d="M91.33,259.28c-1.23,1.34-2.63,2.66-4.15,4C81.54,268.38,74.08,275,65.91,275c-8.92,0-17-7.23-22.76-13.13a55.68,55.68,0,0,1-4.82-5.45l.75-19.21L65.91,230l.21.06a19.69,19.69,0,0,1-2.37,2.66c-1.61,1.12-3.51,1.48-5.22,2.32a20.79,20.79,0,0,1-4,1.38c-.91.24-2.84.36-3.2,1.45a2.52,2.52,0,0,0-.07.73c0,.93,0,1.85,0,2.78,0,.73-.1,2.11.55,2.64.42.34,1.15.17,1.65.16a21.17,21.17,0,0,0,5.86-.83c2-.59,3.75-1.83,5.85-1.78s3.91,1.25,5.75,2.22a30.37,30.37,0,0,0,14.94,3.56,29.35,29.35,0,0,0-2.87.83,23.25,23.25,0,0,1-3.12.21,27.46,27.46,0,0,0-6.21.4c-2,.51-4,1.3-6.09,1.62a21.9,21.9,0,0,1-8.46-.24c-1.74-.43-3.4-1.23-5.17-1.52-1.38-.23-2.5-.28-3,1.24a9.38,9.38,0,0,0-.51,2.45c-.07,1.12,0,1.19,1.05,1.53,1.77.57,3.58,1,5.37,1.53,1.22.36,2.33,1.4,3.54,1.89a13.77,13.77,0,0,0,4.06,1c3.39.27,6.81-.68,10.2-.36-.79.38-1.59.74-2.39,1.08a11.87,11.87,0,0,1-2,.69,12.28,12.28,0,0,1-2.64.22A55.61,55.61,0,0,1,56.78,259c-.83-.16-5.07-1.73-5.49-1.1a1.31,1.31,0,0,0-.17.71l-.23,4.86c0,.33,0,.66,0,1-.07,1.41,1.87,1.91,3,2.38,1.92.81,3.5,2,5.73,1.74a24.44,24.44,0,0,0,3.92-1.25,11.05,11.05,0,0,1,7.31.31,19.12,19.12,0,0,0,2.4,1,7.87,7.87,0,0,0,5.54-1A50.29,50.29,0,0,0,85.38,264a35.21,35.21,0,0,0,3.11-2.61c.43-.39,2.84-2.19,2.81-2.71C91.31,258.88,91.33,259.08,91.33,259.28Z"/></g></g></g></svg>